<svg xmlns="http://www.w3.org/2000/svg" viewBox="0 0 920 506" width="920" height="506" role="img" aria-label="Jamminroot activity charts">
  <style>
  text { font-family: -apple-system, BlinkMacSystemFont, "Segoe UI", Roboto, "Helvetica Neue", sans-serif; }
  .bg { fill: #ffffff; }
  .panel { fill: #f6f8fa; }
  .border { stroke: #d0d7de; }
  .fg { fill: #1f2328; }
  .muted { fill: #656d76; }
  .accent { fill: #0969da; }
  .accent2 { fill: #1f883d; }
  .work { fill: #6b21a8; }
  @media (prefers-color-scheme: dark) {
    .bg { fill: #0d1117; }
    .panel { fill: #161b22; }
    .border { stroke: #30363d; }
    .fg { fill: #e6edf3; }
    .muted { fill: #7d8590; }
    .accent { fill: #58a6ff; }
    .accent2 { fill: #3fb950; }
    .work { fill: #a855f7; }
  }
</style>
  <rect class="bg" x="0" y="0" width="920" height="506" rx="8" ry="8"/>
  <g transform="translate(24, 24)"><text class="muted" x="0" y="14" font-size="11" letter-spacing="0.1em">PROJECT ACTIVITY · LAST 12 MONTHS</text><text class="fg" x="0" y="43" font-size="11">Work</text><text class="muted" x="0" y="54" font-size="8">22 commits</text><rect class="work" x="110.00" y="30" width="762.00" height="16" rx="3" ry="3" opacity="0.18"/><text class="fg" x="0" y="65" font-size="11">n8n-nodes-telep…</text><rect fill="#3178c6" x="344.77" y="52" width="13.67" height="16" rx="1.5" ry="1.5" opacity="0.62"/><rect fill="#3178c6" x="359.44" y="52" width="13.67" height="16" rx="1.5" ry="1.5" opacity="0.35"/><rect fill="#3178c6" x="652.90" y="52" width="13.67" height="16" rx="1.5" ry="1.5" opacity="0.57"/><rect fill="#3178c6" x="711.60" y="52" width="13.67" height="16" rx="1.5" ry="1.5" opacity="1.00"/><text class="fg" x="0" y="87" font-size="11">intag</text><rect fill="hsl(244, 55%, 50%)" x="623.56" y="74" width="13.67" height="16" rx="1.5" ry="1.5" opacity="0.47"/><rect fill="hsl(244, 55%, 50%)" x="638.23" y="74" width="13.67" height="16" rx="1.5" ry="1.5" opacity="0.39"/><rect fill="hsl(244, 55%, 50%)" x="652.90" y="74" width="13.67" height="16" rx="1.5" ry="1.5" opacity="0.39"/><rect fill="hsl(244, 55%, 50%)" x="682.25" y="74" width="13.67" height="16" rx="1.5" ry="1.5" opacity="1.00"/><rect fill="hsl(244, 55%, 50%)" x="696.92" y="74" width="13.67" height="16" rx="1.5" ry="1.5" opacity="0.47"/><text class="fg" x="0" y="109" font-size="11">.dotfiles</text><rect fill="#000080" x="682.25" y="96" width="13.67" height="16" rx="1.5" ry="1.5" opacity="1.00"/><rect fill="#000080" x="711.60" y="96" width="13.67" height="16" rx="1.5" ry="1.5" opacity="0.60"/><text class="fg" x="0" y="131" font-size="11">yolo-labeler</text><rect fill="#e34c26" x="711.60" y="118" width="13.67" height="16" rx="1.5" ry="1.5" opacity="1.00"/><text class="fg" x="0" y="153" font-size="11">Clash.Meta</text><rect fill="#00ADD8" x="814.31" y="140" width="13.67" height="16" rx="1.5" ry="1.5" opacity="1.00"/><text class="fg" x="0" y="175" font-size="11">summit</text><text class="muted" x="0" y="186" font-size="8">587 commits</text><rect fill="#178600" x="110.00" y="162" width="762.00" height="16" rx="3" ry="3" opacity="0.18"/><text class="fg" x="0" y="197" font-size="11">crypto-model-re…</text><text class="muted" x="0" y="208" font-size="8">107 commits</text><rect fill="#3572A5" x="110.00" y="184" width="762.00" height="16" rx="3" ry="3" opacity="0.18"/><text class="fg" x="0" y="219" font-size="11">poker-cv</text><text class="muted" x="0" y="230" font-size="8">99 commits</text><rect fill="#3572A5" x="110.00" y="206" width="762.00" height="16" rx="3" ry="3" opacity="0.18"/><text class="muted" x="116.84" y="245" font-size="9" text-anchor="middle">May</text><text class="muted" x="278.24" y="245" font-size="9" text-anchor="middle">Aug</text><text class="muted" x="468.99" y="245" font-size="9" text-anchor="middle">Nov</text><text class="muted" x="659.74" y="245" font-size="9" text-anchor="middle">Feb</text><text class="muted" x="850.49" y="245" font-size="9" text-anchor="middle">May</text></g>
  <g transform="translate(24, 290)"><text class="muted" x="0" y="14" font-size="11" letter-spacing="0.1em">LANGUAGES BY COMMIT</text><text class="fg" x="0" y="36" font-size="12">C#</text><text class="muted" x="280" y="36" font-size="10" text-anchor="end">614 · 58%</text><rect class="panel" x="0" y="40" width="280" height="6" rx="3" ry="3"/><rect x="0" y="40" width="161.67655299649263" height="6" rx="3" ry="3" fill="#178600"/><text class="fg" x="0" y="64" font-size="12">C++</text><text class="muted" x="280" y="64" font-size="10" text-anchor="end">171 · 23%</text><rect class="panel" x="0" y="68" width="280" height="6" rx="3" ry="3"/><rect x="0" y="68" width="64.89619407365346" height="6" rx="3" ry="3" fill="#f34b7d"/><text class="fg" x="0" y="92" font-size="12">Python</text><text class="muted" x="280" y="92" font-size="10" text-anchor="end">279 · 9%</text><rect class="panel" x="0" y="96" width="280" height="6" rx="3" ry="3"/><rect x="0" y="96" width="25.470204349525954" height="6" rx="3" ry="3" fill="#3572A5"/><text class="fg" x="0" y="120" font-size="12">Kotlin</text><text class="muted" x="280" y="120" font-size="10" text-anchor="end">97 · 5%</text><rect class="panel" x="0" y="124" width="280" height="6" rx="3" ry="3"/><rect x="0" y="124" width="13.78556441350689" height="6" rx="3" ry="3" fill="#A97BFF"/><text class="fg" x="0" y="148" font-size="12">TypeScript</text><text class="muted" x="280" y="148" font-size="10" text-anchor="end">70 · 4%</text><rect class="panel" x="0" y="152" width="280" height="6" rx="3" ry="3"/><rect x="0" y="152" width="10.867287051806777" height="6" rx="3" ry="3" fill="#3178c6"/><text class="fg" x="0" y="176" font-size="12">C</text><text class="muted" x="280" y="176" font-size="10" text-anchor="end">17 · 1%</text><rect class="panel" x="0" y="180" width="280" height="6" rx="3" ry="3"/><rect x="0" y="180" width="3.304197115014245" height="6" rx="3" ry="3" fill="#555555"/></g>
  <g transform="translate(320, 290)"><text class="muted" x="0" y="14" font-size="11" letter-spacing="0.1em">COMMITS BY HOUR (UTC)</text><text class="muted" x="280" y="14" font-size="9" text-anchor="end">61 commits</text><rect class="accent" x="0" y="124" width="10.708333333333334" height="0" rx="1.5" ry="1.5" opacity="0.55"/><rect class="accent" x="11.708333333333334" y="124" width="10.708333333333334" height="0" rx="1.5" ry="1.5" opacity="0.55"/><rect class="accent" x="23.416666666666668" y="124" width="10.708333333333334" height="0" rx="1.5" ry="1.5" opacity="0.55"/><rect class="accent" x="35.125" y="124" width="10.708333333333334" height="0" rx="1.5" ry="1.5" opacity="0.55"/><rect class="accent" x="46.833333333333336" y="124" width="10.708333333333334" height="0" rx="1.5" ry="1.5" opacity="0.55"/><rect class="accent" x="58.54166666666667" y="124" width="10.708333333333334" height="0" rx="1.5" ry="1.5" opacity="0.55"/><rect class="accent" x="70.25" y="114.4" width="10.708333333333334" height="9.600000000000001" rx="1.5" ry="1.5" opacity="0.60"/><rect class="accent" x="81.95833333333334" y="124" width="10.708333333333334" height="0" rx="1.5" ry="1.5" opacity="0.55"/><rect class="accent" x="93.66666666666667" y="66.4" width="10.708333333333334" height="57.599999999999994" rx="1.5" ry="1.5" opacity="0.82"/><rect class="accent2" x="105.375" y="28" width="10.708333333333334" height="96" rx="1.5" ry="1.5" opacity="1.00"/><rect class="accent" x="117.08333333333334" y="104.8" width="10.708333333333334" height="19.200000000000003" rx="1.5" ry="1.5" opacity="0.64"/><rect class="accent" x="128.79166666666669" y="124" width="10.708333333333334" height="0" rx="1.5" ry="1.5" opacity="0.55"/><rect class="accent" x="140.5" y="85.6" width="10.708333333333334" height="38.400000000000006" rx="1.5" ry="1.5" opacity="0.73"/><rect class="accent" x="152.20833333333334" y="104.8" width="10.708333333333334" height="19.200000000000003" rx="1.5" ry="1.5" opacity="0.64"/><rect class="accent" x="163.91666666666669" y="66.4" width="10.708333333333334" height="57.599999999999994" rx="1.5" ry="1.5" opacity="0.82"/><rect class="accent" x="175.625" y="56.80000000000001" width="10.708333333333334" height="67.19999999999999" rx="1.5" ry="1.5" opacity="0.86"/><rect class="accent" x="187.33333333333334" y="124" width="10.708333333333334" height="0" rx="1.5" ry="1.5" opacity="0.55"/><rect class="accent" x="199.04166666666669" y="104.8" width="10.708333333333334" height="19.200000000000003" rx="1.5" ry="1.5" opacity="0.64"/><rect class="accent" x="210.75" y="66.4" width="10.708333333333334" height="57.599999999999994" rx="1.5" ry="1.5" opacity="0.82"/><rect class="accent" x="222.45833333333334" y="85.6" width="10.708333333333334" height="38.400000000000006" rx="1.5" ry="1.5" opacity="0.73"/><rect class="accent" x="234.16666666666669" y="114.4" width="10.708333333333334" height="9.600000000000001" rx="1.5" ry="1.5" opacity="0.60"/><rect class="accent" x="245.875" y="66.4" width="10.708333333333334" height="57.599999999999994" rx="1.5" ry="1.5" opacity="0.82"/><rect class="accent" x="257.58333333333337" y="85.6" width="10.708333333333334" height="38.400000000000006" rx="1.5" ry="1.5" opacity="0.73"/><rect class="accent" x="269.2916666666667" y="124" width="10.708333333333334" height="0" rx="1.5" ry="1.5" opacity="0.55"/><text class="muted" x="5.354166666666667" y="136" font-size="9" text-anchor="middle">00</text><text class="muted" x="75.60416666666667" y="136" font-size="9" text-anchor="middle">06</text><text class="muted" x="145.85416666666666" y="136" font-size="9" text-anchor="middle">12</text><text class="muted" x="216.10416666666666" y="136" font-size="9" text-anchor="middle">18</text><text class="muted" x="0" y="152" font-size="11">peak hour</text><text class="fg" x="280" y="152" font-size="12" text-anchor="end" font-weight="600">09:00 UTC</text></g>
  <g transform="translate(616, 290)"><text class="muted" x="0" y="14" font-size="11" letter-spacing="0.1em">MONTHLY CONTRIBUTIONS</text><text class="muted" x="280" y="14" font-size="9" text-anchor="end">last 12 months</text><rect class="accent2" x="0" y="115.93399339933994" width="19.666666666666668" height="8.066006600660065" rx="2" ry="2" opacity="0.59"/><text class="muted" x="9.833333333333334" y="136" font-size="9" text-anchor="middle">J</text><rect class="accent2" x="23.666666666666668" y="118.31243124312431" width="19.666666666666668" height="5.687568756875688" rx="2" ry="2" opacity="0.58"/><text class="muted" x="33.5" y="136" font-size="9" text-anchor="middle">J</text><rect class="accent2" x="47.333333333333336" y="115.83058305830583" width="19.666666666666668" height="8.16941694169417" rx="2" ry="2" opacity="0.59"/><text class="muted" x="57.16666666666667" y="136" font-size="9" text-anchor="middle">A</text><rect class="accent2" x="71" y="119.44994499449945" width="19.666666666666668" height="4.55005500550055" rx="2" ry="2" opacity="0.57"/><text class="muted" x="80.83333333333333" y="136" font-size="9" text-anchor="middle">S</text><rect class="accent2" x="94.66666666666667" y="117.17491749174917" width="19.666666666666668" height="6.8250825082508255" rx="2" ry="2" opacity="0.58"/><text class="muted" x="104.5" y="136" font-size="9" text-anchor="middle">O</text><rect class="accent2" x="118.33333333333334" y="115.72717271727173" width="19.666666666666668" height="8.272827282728274" rx="2" ry="2" opacity="0.59"/><text class="muted" x="128.16666666666669" y="136" font-size="9" text-anchor="middle">N</text><rect class="accent2" x="142" y="106.83388338833883" width="19.666666666666668" height="17.166116611661167" rx="2" ry="2" opacity="0.63"/><text class="muted" x="151.83333333333334" y="136" font-size="9" text-anchor="middle">D</text><rect class="accent2" x="165.66666666666669" y="108.5918591859186" width="19.666666666666668" height="15.408140814081408" rx="2" ry="2" opacity="0.62"/><text class="muted" x="175.50000000000003" y="136" font-size="9" text-anchor="middle">J</text><rect class="accent2" x="189.33333333333334" y="67.43454345434543" width="19.666666666666668" height="56.56545654565457" rx="2" ry="2" opacity="0.82"/><text class="muted" x="199.16666666666669" y="136" font-size="9" text-anchor="middle">F</text><rect class="accent2" x="213" y="30" width="19.666666666666668" height="94" rx="2" ry="2" opacity="1.00"/><text class="muted" x="222.83333333333334" y="136" font-size="9" text-anchor="middle">M</text><rect class="accent2" x="236.66666666666669" y="106.62706270627064" width="19.666666666666668" height="17.372937293729372" rx="2" ry="2" opacity="0.63"/><text class="muted" x="246.50000000000003" y="136" font-size="9" text-anchor="middle">A</text><rect class="accent2" x="260.33333333333337" y="117.69196919691969" width="19.666666666666668" height="6.308030803080308" rx="2" ry="2" opacity="0.58"/><text class="muted" x="270.1666666666667" y="136" font-size="9" text-anchor="middle">M</text><text class="muted" x="0" y="152" font-size="11">total</text><text class="fg" x="280" y="152" font-size="12" text-anchor="end" font-weight="600">2,402</text></g>
</svg>