<svg xmlns="http://www.w3.org/2000/svg" viewBox="0 0 920 462" width="920" height="462" role="img" aria-label="Jamminroot activity charts">
  <style>
  text { font-family: -apple-system, BlinkMacSystemFont, "Segoe UI", Roboto, "Helvetica Neue", sans-serif; }
  .bg { fill: #ffffff; }
  .panel { fill: #f6f8fa; }
  .border { stroke: #d0d7de; }
  .fg { fill: #1f2328; }
  .muted { fill: #656d76; }
  .accent { fill: #0969da; }
  .accent2 { fill: #1f883d; }
  .work { fill: #6b21a8; }
  @media (prefers-color-scheme: dark) {
    .bg { fill: #0d1117; }
    .panel { fill: #161b22; }
    .border { stroke: #30363d; }
    .fg { fill: #e6edf3; }
    .muted { fill: #7d8590; }
    .accent { fill: #58a6ff; }
    .accent2 { fill: #3fb950; }
    .work { fill: #a855f7; }
  }
</style>
  <rect class="bg" x="0" y="0" width="920" height="462" rx="8" ry="8"/>
  <g transform="translate(24, 24)"><text class="muted" x="0" y="14" font-size="11" letter-spacing="0.1em">PROJECT ACTIVITY · LAST 12 MONTHS</text><text class="fg" x="0" y="43" font-size="11">n8n-nodes-telep…</text><rect fill="#3178c6" x="110.00" y="30" width="13.67" height="16" rx="1.5" ry="1.5" opacity="0.06"/><rect fill="#3178c6" x="124.67" y="30" width="13.67" height="16" rx="1.5" ry="1.5" opacity="0.06"/><rect fill="#3178c6" x="139.35" y="30" width="13.67" height="16" rx="1.5" ry="1.5" opacity="0.06"/><rect fill="#3178c6" x="154.02" y="30" width="13.67" height="16" rx="1.5" ry="1.5" opacity="0.06"/><rect fill="#3178c6" x="168.69" y="30" width="13.67" height="16" rx="1.5" ry="1.5" opacity="0.06"/><rect fill="#3178c6" x="183.37" y="30" width="13.67" height="16" rx="1.5" ry="1.5" opacity="0.06"/><rect fill="#3178c6" x="198.04" y="30" width="13.67" height="16" rx="1.5" ry="1.5" opacity="0.06"/><rect fill="#3178c6" x="212.71" y="30" width="13.67" height="16" rx="1.5" ry="1.5" opacity="0.06"/><rect fill="#3178c6" x="227.38" y="30" width="13.67" height="16" rx="1.5" ry="1.5" opacity="0.06"/><rect fill="#3178c6" x="242.06" y="30" width="13.67" height="16" rx="1.5" ry="1.5" opacity="0.06"/><rect fill="#3178c6" x="256.73" y="30" width="13.67" height="16" rx="1.5" ry="1.5" opacity="0.06"/><rect fill="#3178c6" x="271.40" y="30" width="13.67" height="16" rx="1.5" ry="1.5" opacity="0.06"/><rect fill="#3178c6" x="286.08" y="30" width="13.67" height="16" rx="1.5" ry="1.5" opacity="0.06"/><rect fill="#3178c6" x="300.75" y="30" width="13.67" height="16" rx="1.5" ry="1.5" opacity="0.06"/><rect fill="#3178c6" x="315.42" y="30" width="13.67" height="16" rx="1.5" ry="1.5" opacity="0.06"/><rect fill="#3178c6" x="330.10" y="30" width="13.67" height="16" rx="1.5" ry="1.5" opacity="0.06"/><rect fill="#3178c6" x="344.77" y="30" width="13.67" height="16" rx="1.5" ry="1.5" opacity="0.60"/><rect fill="#3178c6" x="359.44" y="30" width="13.67" height="16" rx="1.5" ry="1.5" opacity="0.31"/><rect fill="#3178c6" x="374.12" y="30" width="13.67" height="16" rx="1.5" ry="1.5" opacity="0.06"/><rect fill="#3178c6" x="388.79" y="30" width="13.67" height="16" rx="1.5" ry="1.5" opacity="0.06"/><rect fill="#3178c6" x="403.46" y="30" width="13.67" height="16" rx="1.5" ry="1.5" opacity="0.06"/><rect fill="#3178c6" x="418.13" y="30" width="13.67" height="16" rx="1.5" ry="1.5" opacity="0.06"/><rect fill="#3178c6" x="432.81" y="30" width="13.67" height="16" rx="1.5" ry="1.5" opacity="0.06"/><rect fill="#3178c6" x="447.48" y="30" width="13.67" height="16" rx="1.5" ry="1.5" opacity="0.06"/><rect fill="#3178c6" x="462.15" y="30" width="13.67" height="16" rx="1.5" ry="1.5" opacity="0.06"/><rect fill="#3178c6" x="476.83" y="30" width="13.67" height="16" rx="1.5" ry="1.5" opacity="0.06"/><rect fill="#3178c6" x="491.50" y="30" width="13.67" height="16" rx="1.5" ry="1.5" opacity="0.06"/><rect fill="#3178c6" x="506.17" y="30" width="13.67" height="16" rx="1.5" ry="1.5" opacity="0.06"/><rect fill="#3178c6" x="520.85" y="30" width="13.67" height="16" rx="1.5" ry="1.5" opacity="0.06"/><rect fill="#3178c6" x="535.52" y="30" width="13.67" height="16" rx="1.5" ry="1.5" opacity="0.06"/><rect fill="#3178c6" x="550.19" y="30" width="13.67" height="16" rx="1.5" ry="1.5" opacity="0.06"/><rect fill="#3178c6" x="564.87" y="30" width="13.67" height="16" rx="1.5" ry="1.5" opacity="0.06"/><rect fill="#3178c6" x="579.54" y="30" width="13.67" height="16" rx="1.5" ry="1.5" opacity="0.06"/><rect fill="#3178c6" x="594.21" y="30" width="13.67" height="16" rx="1.5" ry="1.5" opacity="0.06"/><rect fill="#3178c6" x="608.88" y="30" width="13.67" height="16" rx="1.5" ry="1.5" opacity="0.06"/><rect fill="#3178c6" x="623.56" y="30" width="13.67" height="16" rx="1.5" ry="1.5" opacity="0.06"/><rect fill="#3178c6" x="638.23" y="30" width="13.67" height="16" rx="1.5" ry="1.5" opacity="0.06"/><rect fill="#3178c6" x="652.90" y="30" width="13.67" height="16" rx="1.5" ry="1.5" opacity="0.54"/><rect fill="#3178c6" x="667.58" y="30" width="13.67" height="16" rx="1.5" ry="1.5" opacity="0.06"/><rect fill="#3178c6" x="682.25" y="30" width="13.67" height="16" rx="1.5" ry="1.5" opacity="0.06"/><rect fill="#3178c6" x="696.92" y="30" width="13.67" height="16" rx="1.5" ry="1.5" opacity="0.06"/><rect fill="#3178c6" x="711.60" y="30" width="13.67" height="16" rx="1.5" ry="1.5" opacity="1.00"/><rect fill="#3178c6" x="726.27" y="30" width="13.67" height="16" rx="1.5" ry="1.5" opacity="0.06"/><rect fill="#3178c6" x="740.94" y="30" width="13.67" height="16" rx="1.5" ry="1.5" opacity="0.06"/><rect fill="#3178c6" x="755.62" y="30" width="13.67" height="16" rx="1.5" ry="1.5" opacity="0.06"/><rect fill="#3178c6" x="770.29" y="30" width="13.67" height="16" rx="1.5" ry="1.5" opacity="0.06"/><rect fill="#3178c6" x="784.96" y="30" width="13.67" height="16" rx="1.5" ry="1.5" opacity="0.06"/><rect fill="#3178c6" x="799.63" y="30" width="13.67" height="16" rx="1.5" ry="1.5" opacity="0.06"/><rect fill="#3178c6" x="814.31" y="30" width="13.67" height="16" rx="1.5" ry="1.5" opacity="0.06"/><rect fill="#3178c6" x="828.98" y="30" width="13.67" height="16" rx="1.5" ry="1.5" opacity="0.06"/><rect fill="#3178c6" x="843.65" y="30" width="13.67" height="16" rx="1.5" ry="1.5" opacity="0.06"/><rect fill="#3178c6" x="858.33" y="30" width="13.67" height="16" rx="1.5" ry="1.5" opacity="0.06"/><text class="fg" x="0" y="65" font-size="11">Jamminroot</text><rect fill="#3178c6" x="110.00" y="52" width="13.67" height="16" rx="1.5" ry="1.5" opacity="0.06"/><rect fill="#3178c6" x="124.67" y="52" width="13.67" height="16" rx="1.5" ry="1.5" opacity="0.06"/><rect fill="#3178c6" x="139.35" y="52" width="13.67" height="16" rx="1.5" ry="1.5" opacity="0.06"/><rect fill="#3178c6" x="154.02" y="52" width="13.67" height="16" rx="1.5" ry="1.5" opacity="0.06"/><rect fill="#3178c6" x="168.69" y="52" width="13.67" height="16" rx="1.5" ry="1.5" opacity="0.06"/><rect fill="#3178c6" x="183.37" y="52" width="13.67" height="16" rx="1.5" ry="1.5" opacity="0.06"/><rect fill="#3178c6" x="198.04" y="52" width="13.67" height="16" rx="1.5" ry="1.5" opacity="0.06"/><rect fill="#3178c6" x="212.71" y="52" width="13.67" height="16" rx="1.5" ry="1.5" opacity="0.06"/><rect fill="#3178c6" x="227.38" y="52" width="13.67" height="16" rx="1.5" ry="1.5" opacity="0.06"/><rect fill="#3178c6" x="242.06" y="52" width="13.67" height="16" rx="1.5" ry="1.5" opacity="0.06"/><rect fill="#3178c6" x="256.73" y="52" width="13.67" height="16" rx="1.5" ry="1.5" opacity="0.06"/><rect fill="#3178c6" x="271.40" y="52" width="13.67" height="16" rx="1.5" ry="1.5" opacity="0.06"/><rect fill="#3178c6" x="286.08" y="52" width="13.67" height="16" rx="1.5" ry="1.5" opacity="0.06"/><rect fill="#3178c6" x="300.75" y="52" width="13.67" height="16" rx="1.5" ry="1.5" opacity="0.06"/><rect fill="#3178c6" x="315.42" y="52" width="13.67" height="16" rx="1.5" ry="1.5" opacity="0.06"/><rect fill="#3178c6" x="330.10" y="52" width="13.67" height="16" rx="1.5" ry="1.5" opacity="0.06"/><rect fill="#3178c6" x="344.77" y="52" width="13.67" height="16" rx="1.5" ry="1.5" opacity="0.06"/><rect fill="#3178c6" x="359.44" y="52" width="13.67" height="16" rx="1.5" ry="1.5" opacity="0.06"/><rect fill="#3178c6" x="374.12" y="52" width="13.67" height="16" rx="1.5" ry="1.5" opacity="0.06"/><rect fill="#3178c6" x="388.79" y="52" width="13.67" height="16" rx="1.5" ry="1.5" opacity="0.06"/><rect fill="#3178c6" x="403.46" y="52" width="13.67" height="16" rx="1.5" ry="1.5" opacity="0.06"/><rect fill="#3178c6" x="418.13" y="52" width="13.67" height="16" rx="1.5" ry="1.5" opacity="0.06"/><rect fill="#3178c6" x="432.81" y="52" width="13.67" height="16" rx="1.5" ry="1.5" opacity="0.06"/><rect fill="#3178c6" x="447.48" y="52" width="13.67" height="16" rx="1.5" ry="1.5" opacity="0.06"/><rect fill="#3178c6" x="462.15" y="52" width="13.67" height="16" rx="1.5" ry="1.5" opacity="0.06"/><rect fill="#3178c6" x="476.83" y="52" width="13.67" height="16" rx="1.5" ry="1.5" opacity="0.06"/><rect fill="#3178c6" x="491.50" y="52" width="13.67" height="16" rx="1.5" ry="1.5" opacity="0.06"/><rect fill="#3178c6" x="506.17" y="52" width="13.67" height="16" rx="1.5" ry="1.5" opacity="0.06"/><rect fill="#3178c6" x="520.85" y="52" width="13.67" height="16" rx="1.5" ry="1.5" opacity="0.06"/><rect fill="#3178c6" x="535.52" y="52" width="13.67" height="16" rx="1.5" ry="1.5" opacity="0.06"/><rect fill="#3178c6" x="550.19" y="52" width="13.67" height="16" rx="1.5" ry="1.5" opacity="0.06"/><rect fill="#3178c6" x="564.87" y="52" width="13.67" height="16" rx="1.5" ry="1.5" opacity="0.06"/><rect fill="#3178c6" x="579.54" y="52" width="13.67" height="16" rx="1.5" ry="1.5" opacity="0.06"/><rect fill="#3178c6" x="594.21" y="52" width="13.67" height="16" rx="1.5" ry="1.5" opacity="0.06"/><rect fill="#3178c6" x="608.88" y="52" width="13.67" height="16" rx="1.5" ry="1.5" opacity="0.06"/><rect fill="#3178c6" x="623.56" y="52" width="13.67" height="16" rx="1.5" ry="1.5" opacity="0.06"/><rect fill="#3178c6" x="638.23" y="52" width="13.67" height="16" rx="1.5" ry="1.5" opacity="0.06"/><rect fill="#3178c6" x="652.90" y="52" width="13.67" height="16" rx="1.5" ry="1.5" opacity="0.06"/><rect fill="#3178c6" x="667.58" y="52" width="13.67" height="16" rx="1.5" ry="1.5" opacity="0.06"/><rect fill="#3178c6" x="682.25" y="52" width="13.67" height="16" rx="1.5" ry="1.5" opacity="0.29"/><rect fill="#3178c6" x="696.92" y="52" width="13.67" height="16" rx="1.5" ry="1.5" opacity="0.06"/><rect fill="#3178c6" x="711.60" y="52" width="13.67" height="16" rx="1.5" ry="1.5" opacity="0.06"/><rect fill="#3178c6" x="726.27" y="52" width="13.67" height="16" rx="1.5" ry="1.5" opacity="0.06"/><rect fill="#3178c6" x="740.94" y="52" width="13.67" height="16" rx="1.5" ry="1.5" opacity="0.06"/><rect fill="#3178c6" x="755.62" y="52" width="13.67" height="16" rx="1.5" ry="1.5" opacity="0.06"/><rect fill="#3178c6" x="770.29" y="52" width="13.67" height="16" rx="1.5" ry="1.5" opacity="0.06"/><rect fill="#3178c6" x="784.96" y="52" width="13.67" height="16" rx="1.5" ry="1.5" opacity="0.06"/><rect fill="#3178c6" x="799.63" y="52" width="13.67" height="16" rx="1.5" ry="1.5" opacity="0.06"/><rect fill="#3178c6" x="814.31" y="52" width="13.67" height="16" rx="1.5" ry="1.5" opacity="0.06"/><rect fill="#3178c6" x="828.98" y="52" width="13.67" height="16" rx="1.5" ry="1.5" opacity="0.06"/><rect fill="#3178c6" x="843.65" y="52" width="13.67" height="16" rx="1.5" ry="1.5" opacity="0.06"/><rect fill="#3178c6" x="858.33" y="52" width="13.67" height="16" rx="1.5" ry="1.5" opacity="1.00"/><text class="fg" x="0" y="87" font-size="11">intag</text><rect fill="hsl(244, 55%, 50%)" x="110.00" y="74" width="13.67" height="16" rx="1.5" ry="1.5" opacity="0.06"/><rect fill="hsl(244, 55%, 50%)" x="124.67" y="74" width="13.67" height="16" rx="1.5" ry="1.5" opacity="0.06"/><rect fill="hsl(244, 55%, 50%)" x="139.35" y="74" width="13.67" height="16" rx="1.5" ry="1.5" opacity="0.06"/><rect fill="hsl(244, 55%, 50%)" x="154.02" y="74" width="13.67" height="16" rx="1.5" ry="1.5" opacity="0.06"/><rect fill="hsl(244, 55%, 50%)" x="168.69" y="74" width="13.67" height="16" rx="1.5" ry="1.5" opacity="0.06"/><rect fill="hsl(244, 55%, 50%)" x="183.37" y="74" width="13.67" height="16" rx="1.5" ry="1.5" opacity="0.06"/><rect fill="hsl(244, 55%, 50%)" x="198.04" y="74" width="13.67" height="16" rx="1.5" ry="1.5" opacity="0.06"/><rect fill="hsl(244, 55%, 50%)" x="212.71" y="74" width="13.67" height="16" rx="1.5" ry="1.5" opacity="0.06"/><rect fill="hsl(244, 55%, 50%)" x="227.38" y="74" width="13.67" height="16" rx="1.5" ry="1.5" opacity="0.06"/><rect fill="hsl(244, 55%, 50%)" x="242.06" y="74" width="13.67" height="16" rx="1.5" ry="1.5" opacity="0.06"/><rect fill="hsl(244, 55%, 50%)" x="256.73" y="74" width="13.67" height="16" rx="1.5" ry="1.5" opacity="0.06"/><rect fill="hsl(244, 55%, 50%)" x="271.40" y="74" width="13.67" height="16" rx="1.5" ry="1.5" opacity="0.06"/><rect fill="hsl(244, 55%, 50%)" x="286.08" y="74" width="13.67" height="16" rx="1.5" ry="1.5" opacity="0.06"/><rect fill="hsl(244, 55%, 50%)" x="300.75" y="74" width="13.67" height="16" rx="1.5" ry="1.5" opacity="0.06"/><rect fill="hsl(244, 55%, 50%)" x="315.42" y="74" width="13.67" height="16" rx="1.5" ry="1.5" opacity="0.06"/><rect fill="hsl(244, 55%, 50%)" x="330.10" y="74" width="13.67" height="16" rx="1.5" ry="1.5" opacity="0.06"/><rect fill="hsl(244, 55%, 50%)" x="344.77" y="74" width="13.67" height="16" rx="1.5" ry="1.5" opacity="0.06"/><rect fill="hsl(244, 55%, 50%)" x="359.44" y="74" width="13.67" height="16" rx="1.5" ry="1.5" opacity="0.06"/><rect fill="hsl(244, 55%, 50%)" x="374.12" y="74" width="13.67" height="16" rx="1.5" ry="1.5" opacity="0.06"/><rect fill="hsl(244, 55%, 50%)" x="388.79" y="74" width="13.67" height="16" rx="1.5" ry="1.5" opacity="0.06"/><rect fill="hsl(244, 55%, 50%)" x="403.46" y="74" width="13.67" height="16" rx="1.5" ry="1.5" opacity="0.06"/><rect fill="hsl(244, 55%, 50%)" x="418.13" y="74" width="13.67" height="16" rx="1.5" ry="1.5" opacity="0.06"/><rect fill="hsl(244, 55%, 50%)" x="432.81" y="74" width="13.67" height="16" rx="1.5" ry="1.5" opacity="0.06"/><rect fill="hsl(244, 55%, 50%)" x="447.48" y="74" width="13.67" height="16" rx="1.5" ry="1.5" opacity="0.06"/><rect fill="hsl(244, 55%, 50%)" x="462.15" y="74" width="13.67" height="16" rx="1.5" ry="1.5" opacity="0.06"/><rect fill="hsl(244, 55%, 50%)" x="476.83" y="74" width="13.67" height="16" rx="1.5" ry="1.5" opacity="0.06"/><rect fill="hsl(244, 55%, 50%)" x="491.50" y="74" width="13.67" height="16" rx="1.5" ry="1.5" opacity="0.06"/><rect fill="hsl(244, 55%, 50%)" x="506.17" y="74" width="13.67" height="16" rx="1.5" ry="1.5" opacity="0.06"/><rect fill="hsl(244, 55%, 50%)" x="520.85" y="74" width="13.67" height="16" rx="1.5" ry="1.5" opacity="0.06"/><rect fill="hsl(244, 55%, 50%)" x="535.52" y="74" width="13.67" height="16" rx="1.5" ry="1.5" opacity="0.06"/><rect fill="hsl(244, 55%, 50%)" x="550.19" y="74" width="13.67" height="16" rx="1.5" ry="1.5" opacity="0.06"/><rect fill="hsl(244, 55%, 50%)" x="564.87" y="74" width="13.67" height="16" rx="1.5" ry="1.5" opacity="0.06"/><rect fill="hsl(244, 55%, 50%)" x="579.54" y="74" width="13.67" height="16" rx="1.5" ry="1.5" opacity="0.06"/><rect fill="hsl(244, 55%, 50%)" x="594.21" y="74" width="13.67" height="16" rx="1.5" ry="1.5" opacity="0.06"/><rect fill="hsl(244, 55%, 50%)" x="608.88" y="74" width="13.67" height="16" rx="1.5" ry="1.5" opacity="0.06"/><rect fill="hsl(244, 55%, 50%)" x="623.56" y="74" width="13.67" height="16" rx="1.5" ry="1.5" opacity="0.44"/><rect fill="hsl(244, 55%, 50%)" x="638.23" y="74" width="13.67" height="16" rx="1.5" ry="1.5" opacity="0.34"/><rect fill="hsl(244, 55%, 50%)" x="652.90" y="74" width="13.67" height="16" rx="1.5" ry="1.5" opacity="0.34"/><rect fill="hsl(244, 55%, 50%)" x="667.58" y="74" width="13.67" height="16" rx="1.5" ry="1.5" opacity="0.06"/><rect fill="hsl(244, 55%, 50%)" x="682.25" y="74" width="13.67" height="16" rx="1.5" ry="1.5" opacity="1.00"/><rect fill="hsl(244, 55%, 50%)" x="696.92" y="74" width="13.67" height="16" rx="1.5" ry="1.5" opacity="0.44"/><rect fill="hsl(244, 55%, 50%)" x="711.60" y="74" width="13.67" height="16" rx="1.5" ry="1.5" opacity="0.06"/><rect fill="hsl(244, 55%, 50%)" x="726.27" y="74" width="13.67" height="16" rx="1.5" ry="1.5" opacity="0.06"/><rect fill="hsl(244, 55%, 50%)" x="740.94" y="74" width="13.67" height="16" rx="1.5" ry="1.5" opacity="0.06"/><rect fill="hsl(244, 55%, 50%)" x="755.62" y="74" width="13.67" height="16" rx="1.5" ry="1.5" opacity="0.06"/><rect fill="hsl(244, 55%, 50%)" x="770.29" y="74" width="13.67" height="16" rx="1.5" ry="1.5" opacity="0.06"/><rect fill="hsl(244, 55%, 50%)" x="784.96" y="74" width="13.67" height="16" rx="1.5" ry="1.5" opacity="0.06"/><rect fill="hsl(244, 55%, 50%)" x="799.63" y="74" width="13.67" height="16" rx="1.5" ry="1.5" opacity="0.06"/><rect fill="hsl(244, 55%, 50%)" x="814.31" y="74" width="13.67" height="16" rx="1.5" ry="1.5" opacity="0.06"/><rect fill="hsl(244, 55%, 50%)" x="828.98" y="74" width="13.67" height="16" rx="1.5" ry="1.5" opacity="0.06"/><rect fill="hsl(244, 55%, 50%)" x="843.65" y="74" width="13.67" height="16" rx="1.5" ry="1.5" opacity="0.06"/><rect fill="hsl(244, 55%, 50%)" x="858.33" y="74" width="13.67" height="16" rx="1.5" ry="1.5" opacity="0.06"/><text class="fg" x="0" y="109" font-size="11">.dotfiles</text><rect fill="#000080" x="110.00" y="96" width="13.67" height="16" rx="1.5" ry="1.5" opacity="0.06"/><rect fill="#000080" x="124.67" y="96" width="13.67" height="16" rx="1.5" ry="1.5" opacity="0.06"/><rect fill="#000080" x="139.35" y="96" width="13.67" height="16" rx="1.5" ry="1.5" opacity="0.06"/><rect fill="#000080" x="154.02" y="96" width="13.67" height="16" rx="1.5" ry="1.5" opacity="0.06"/><rect fill="#000080" x="168.69" y="96" width="13.67" height="16" rx="1.5" ry="1.5" opacity="0.06"/><rect fill="#000080" x="183.37" y="96" width="13.67" height="16" rx="1.5" ry="1.5" opacity="0.06"/><rect fill="#000080" x="198.04" y="96" width="13.67" height="16" rx="1.5" ry="1.5" opacity="0.06"/><rect fill="#000080" x="212.71" y="96" width="13.67" height="16" rx="1.5" ry="1.5" opacity="0.06"/><rect fill="#000080" x="227.38" y="96" width="13.67" height="16" rx="1.5" ry="1.5" opacity="0.06"/><rect fill="#000080" x="242.06" y="96" width="13.67" height="16" rx="1.5" ry="1.5" opacity="0.06"/><rect fill="#000080" x="256.73" y="96" width="13.67" height="16" rx="1.5" ry="1.5" opacity="0.06"/><rect fill="#000080" x="271.40" y="96" width="13.67" height="16" rx="1.5" ry="1.5" opacity="0.06"/><rect fill="#000080" x="286.08" y="96" width="13.67" height="16" rx="1.5" ry="1.5" opacity="0.06"/><rect fill="#000080" x="300.75" y="96" width="13.67" height="16" rx="1.5" ry="1.5" opacity="0.06"/><rect fill="#000080" x="315.42" y="96" width="13.67" height="16" rx="1.5" ry="1.5" opacity="0.06"/><rect fill="#000080" x="330.10" y="96" width="13.67" height="16" rx="1.5" ry="1.5" opacity="0.06"/><rect fill="#000080" x="344.77" y="96" width="13.67" height="16" rx="1.5" ry="1.5" opacity="0.06"/><rect fill="#000080" x="359.44" y="96" width="13.67" height="16" rx="1.5" ry="1.5" opacity="0.06"/><rect fill="#000080" x="374.12" y="96" width="13.67" height="16" rx="1.5" ry="1.5" opacity="0.06"/><rect fill="#000080" x="388.79" y="96" width="13.67" height="16" rx="1.5" ry="1.5" opacity="0.06"/><rect fill="#000080" x="403.46" y="96" width="13.67" height="16" rx="1.5" ry="1.5" opacity="0.06"/><rect fill="#000080" x="418.13" y="96" width="13.67" height="16" rx="1.5" ry="1.5" opacity="0.06"/><rect fill="#000080" x="432.81" y="96" width="13.67" height="16" rx="1.5" ry="1.5" opacity="0.06"/><rect fill="#000080" x="447.48" y="96" width="13.67" height="16" rx="1.5" ry="1.5" opacity="0.06"/><rect fill="#000080" x="462.15" y="96" width="13.67" height="16" rx="1.5" ry="1.5" opacity="0.06"/><rect fill="#000080" x="476.83" y="96" width="13.67" height="16" rx="1.5" ry="1.5" opacity="0.06"/><rect fill="#000080" x="491.50" y="96" width="13.67" height="16" rx="1.5" ry="1.5" opacity="0.06"/><rect fill="#000080" x="506.17" y="96" width="13.67" height="16" rx="1.5" ry="1.5" opacity="0.06"/><rect fill="#000080" x="520.85" y="96" width="13.67" height="16" rx="1.5" ry="1.5" opacity="0.06"/><rect fill="#000080" x="535.52" y="96" width="13.67" height="16" rx="1.5" ry="1.5" opacity="0.06"/><rect fill="#000080" x="550.19" y="96" width="13.67" height="16" rx="1.5" ry="1.5" opacity="0.06"/><rect fill="#000080" x="564.87" y="96" width="13.67" height="16" rx="1.5" ry="1.5" opacity="0.06"/><rect fill="#000080" x="579.54" y="96" width="13.67" height="16" rx="1.5" ry="1.5" opacity="0.06"/><rect fill="#000080" x="594.21" y="96" width="13.67" height="16" rx="1.5" ry="1.5" opacity="0.06"/><rect fill="#000080" x="608.88" y="96" width="13.67" height="16" rx="1.5" ry="1.5" opacity="0.06"/><rect fill="#000080" x="623.56" y="96" width="13.67" height="16" rx="1.5" ry="1.5" opacity="0.06"/><rect fill="#000080" x="638.23" y="96" width="13.67" height="16" rx="1.5" ry="1.5" opacity="0.06"/><rect fill="#000080" x="652.90" y="96" width="13.67" height="16" rx="1.5" ry="1.5" opacity="0.06"/><rect fill="#000080" x="667.58" y="96" width="13.67" height="16" rx="1.5" ry="1.5" opacity="0.06"/><rect fill="#000080" x="682.25" y="96" width="13.67" height="16" rx="1.5" ry="1.5" opacity="1.00"/><rect fill="#000080" x="696.92" y="96" width="13.67" height="16" rx="1.5" ry="1.5" opacity="0.06"/><rect fill="#000080" x="711.60" y="96" width="13.67" height="16" rx="1.5" ry="1.5" opacity="0.57"/><rect fill="#000080" x="726.27" y="96" width="13.67" height="16" rx="1.5" ry="1.5" opacity="0.06"/><rect fill="#000080" x="740.94" y="96" width="13.67" height="16" rx="1.5" ry="1.5" opacity="0.06"/><rect fill="#000080" x="755.62" y="96" width="13.67" height="16" rx="1.5" ry="1.5" opacity="0.06"/><rect fill="#000080" x="770.29" y="96" width="13.67" height="16" rx="1.5" ry="1.5" opacity="0.06"/><rect fill="#000080" x="784.96" y="96" width="13.67" height="16" rx="1.5" ry="1.5" opacity="0.06"/><rect fill="#000080" x="799.63" y="96" width="13.67" height="16" rx="1.5" ry="1.5" opacity="0.06"/><rect fill="#000080" x="814.31" y="96" width="13.67" height="16" rx="1.5" ry="1.5" opacity="0.06"/><rect fill="#000080" x="828.98" y="96" width="13.67" height="16" rx="1.5" ry="1.5" opacity="0.06"/><rect fill="#000080" x="843.65" y="96" width="13.67" height="16" rx="1.5" ry="1.5" opacity="0.06"/><rect fill="#000080" x="858.33" y="96" width="13.67" height="16" rx="1.5" ry="1.5" opacity="0.06"/><text class="fg" x="0" y="131" font-size="11">jamminroot_prof…</text><rect fill="#3178c6" x="110.00" y="118" width="13.67" height="16" rx="1.5" ry="1.5" opacity="0.06"/><rect fill="#3178c6" x="124.67" y="118" width="13.67" height="16" rx="1.5" ry="1.5" opacity="0.06"/><rect fill="#3178c6" x="139.35" y="118" width="13.67" height="16" rx="1.5" ry="1.5" opacity="0.06"/><rect fill="#3178c6" x="154.02" y="118" width="13.67" height="16" rx="1.5" ry="1.5" opacity="0.06"/><rect fill="#3178c6" x="168.69" y="118" width="13.67" height="16" rx="1.5" ry="1.5" opacity="0.06"/><rect fill="#3178c6" x="183.37" y="118" width="13.67" height="16" rx="1.5" ry="1.5" opacity="0.06"/><rect fill="#3178c6" x="198.04" y="118" width="13.67" height="16" rx="1.5" ry="1.5" opacity="0.06"/><rect fill="#3178c6" x="212.71" y="118" width="13.67" height="16" rx="1.5" ry="1.5" opacity="0.06"/><rect fill="#3178c6" x="227.38" y="118" width="13.67" height="16" rx="1.5" ry="1.5" opacity="0.06"/><rect fill="#3178c6" x="242.06" y="118" width="13.67" height="16" rx="1.5" ry="1.5" opacity="0.06"/><rect fill="#3178c6" x="256.73" y="118" width="13.67" height="16" rx="1.5" ry="1.5" opacity="0.06"/><rect fill="#3178c6" x="271.40" y="118" width="13.67" height="16" rx="1.5" ry="1.5" opacity="0.06"/><rect fill="#3178c6" x="286.08" y="118" width="13.67" height="16" rx="1.5" ry="1.5" opacity="0.06"/><rect fill="#3178c6" x="300.75" y="118" width="13.67" height="16" rx="1.5" ry="1.5" opacity="0.06"/><rect fill="#3178c6" x="315.42" y="118" width="13.67" height="16" rx="1.5" ry="1.5" opacity="0.06"/><rect fill="#3178c6" x="330.10" y="118" width="13.67" height="16" rx="1.5" ry="1.5" opacity="0.06"/><rect fill="#3178c6" x="344.77" y="118" width="13.67" height="16" rx="1.5" ry="1.5" opacity="0.06"/><rect fill="#3178c6" x="359.44" y="118" width="13.67" height="16" rx="1.5" ry="1.5" opacity="0.06"/><rect fill="#3178c6" x="374.12" y="118" width="13.67" height="16" rx="1.5" ry="1.5" opacity="0.06"/><rect fill="#3178c6" x="388.79" y="118" width="13.67" height="16" rx="1.5" ry="1.5" opacity="0.06"/><rect fill="#3178c6" x="403.46" y="118" width="13.67" height="16" rx="1.5" ry="1.5" opacity="0.06"/><rect fill="#3178c6" x="418.13" y="118" width="13.67" height="16" rx="1.5" ry="1.5" opacity="0.06"/><rect fill="#3178c6" x="432.81" y="118" width="13.67" height="16" rx="1.5" ry="1.5" opacity="0.06"/><rect fill="#3178c6" x="447.48" y="118" width="13.67" height="16" rx="1.5" ry="1.5" opacity="0.06"/><rect fill="#3178c6" x="462.15" y="118" width="13.67" height="16" rx="1.5" ry="1.5" opacity="0.06"/><rect fill="#3178c6" x="476.83" y="118" width="13.67" height="16" rx="1.5" ry="1.5" opacity="0.06"/><rect fill="#3178c6" x="491.50" y="118" width="13.67" height="16" rx="1.5" ry="1.5" opacity="0.06"/><rect fill="#3178c6" x="506.17" y="118" width="13.67" height="16" rx="1.5" ry="1.5" opacity="0.06"/><rect fill="#3178c6" x="520.85" y="118" width="13.67" height="16" rx="1.5" ry="1.5" opacity="0.06"/><rect fill="#3178c6" x="535.52" y="118" width="13.67" height="16" rx="1.5" ry="1.5" opacity="0.06"/><rect fill="#3178c6" x="550.19" y="118" width="13.67" height="16" rx="1.5" ry="1.5" opacity="0.06"/><rect fill="#3178c6" x="564.87" y="118" width="13.67" height="16" rx="1.5" ry="1.5" opacity="0.06"/><rect fill="#3178c6" x="579.54" y="118" width="13.67" height="16" rx="1.5" ry="1.5" opacity="0.06"/><rect fill="#3178c6" x="594.21" y="118" width="13.67" height="16" rx="1.5" ry="1.5" opacity="0.06"/><rect fill="#3178c6" x="608.88" y="118" width="13.67" height="16" rx="1.5" ry="1.5" opacity="0.06"/><rect fill="#3178c6" x="623.56" y="118" width="13.67" height="16" rx="1.5" ry="1.5" opacity="0.06"/><rect fill="#3178c6" x="638.23" y="118" width="13.67" height="16" rx="1.5" ry="1.5" opacity="0.06"/><rect fill="#3178c6" x="652.90" y="118" width="13.67" height="16" rx="1.5" ry="1.5" opacity="0.06"/><rect fill="#3178c6" x="667.58" y="118" width="13.67" height="16" rx="1.5" ry="1.5" opacity="0.06"/><rect fill="#3178c6" x="682.25" y="118" width="13.67" height="16" rx="1.5" ry="1.5" opacity="0.06"/><rect fill="#3178c6" x="696.92" y="118" width="13.67" height="16" rx="1.5" ry="1.5" opacity="0.06"/><rect fill="#3178c6" x="711.60" y="118" width="13.67" height="16" rx="1.5" ry="1.5" opacity="0.06"/><rect fill="#3178c6" x="726.27" y="118" width="13.67" height="16" rx="1.5" ry="1.5" opacity="0.06"/><rect fill="#3178c6" x="740.94" y="118" width="13.67" height="16" rx="1.5" ry="1.5" opacity="0.06"/><rect fill="#3178c6" x="755.62" y="118" width="13.67" height="16" rx="1.5" ry="1.5" opacity="0.06"/><rect fill="#3178c6" x="770.29" y="118" width="13.67" height="16" rx="1.5" ry="1.5" opacity="0.06"/><rect fill="#3178c6" x="784.96" y="118" width="13.67" height="16" rx="1.5" ry="1.5" opacity="0.06"/><rect fill="#3178c6" x="799.63" y="118" width="13.67" height="16" rx="1.5" ry="1.5" opacity="0.06"/><rect fill="#3178c6" x="814.31" y="118" width="13.67" height="16" rx="1.5" ry="1.5" opacity="0.06"/><rect fill="#3178c6" x="828.98" y="118" width="13.67" height="16" rx="1.5" ry="1.5" opacity="0.06"/><rect fill="#3178c6" x="843.65" y="118" width="13.67" height="16" rx="1.5" ry="1.5" opacity="0.06"/><rect fill="#3178c6" x="858.33" y="118" width="13.67" height="16" rx="1.5" ry="1.5" opacity="1.00"/><text class="fg" x="0" y="153" font-size="11">yolo-labeler</text><rect fill="#e34c26" x="110.00" y="140" width="13.67" height="16" rx="1.5" ry="1.5" opacity="0.06"/><rect fill="#e34c26" x="124.67" y="140" width="13.67" height="16" rx="1.5" ry="1.5" opacity="0.06"/><rect fill="#e34c26" x="139.35" y="140" width="13.67" height="16" rx="1.5" ry="1.5" opacity="0.06"/><rect fill="#e34c26" x="154.02" y="140" width="13.67" height="16" rx="1.5" ry="1.5" opacity="0.06"/><rect fill="#e34c26" x="168.69" y="140" width="13.67" height="16" rx="1.5" ry="1.5" opacity="0.06"/><rect fill="#e34c26" x="183.37" y="140" width="13.67" height="16" rx="1.5" ry="1.5" opacity="0.06"/><rect fill="#e34c26" x="198.04" y="140" width="13.67" height="16" rx="1.5" ry="1.5" opacity="0.06"/><rect fill="#e34c26" x="212.71" y="140" width="13.67" height="16" rx="1.5" ry="1.5" opacity="0.06"/><rect fill="#e34c26" x="227.38" y="140" width="13.67" height="16" rx="1.5" ry="1.5" opacity="0.06"/><rect fill="#e34c26" x="242.06" y="140" width="13.67" height="16" rx="1.5" ry="1.5" opacity="0.06"/><rect fill="#e34c26" x="256.73" y="140" width="13.67" height="16" rx="1.5" ry="1.5" opacity="0.06"/><rect fill="#e34c26" x="271.40" y="140" width="13.67" height="16" rx="1.5" ry="1.5" opacity="0.06"/><rect fill="#e34c26" x="286.08" y="140" width="13.67" height="16" rx="1.5" ry="1.5" opacity="0.06"/><rect fill="#e34c26" x="300.75" y="140" width="13.67" height="16" rx="1.5" ry="1.5" opacity="0.06"/><rect fill="#e34c26" x="315.42" y="140" width="13.67" height="16" rx="1.5" ry="1.5" opacity="0.06"/><rect fill="#e34c26" x="330.10" y="140" width="13.67" height="16" rx="1.5" ry="1.5" opacity="0.06"/><rect fill="#e34c26" x="344.77" y="140" width="13.67" height="16" rx="1.5" ry="1.5" opacity="0.06"/><rect fill="#e34c26" x="359.44" y="140" width="13.67" height="16" rx="1.5" ry="1.5" opacity="0.06"/><rect fill="#e34c26" x="374.12" y="140" width="13.67" height="16" rx="1.5" ry="1.5" opacity="0.06"/><rect fill="#e34c26" x="388.79" y="140" width="13.67" height="16" rx="1.5" ry="1.5" opacity="0.06"/><rect fill="#e34c26" x="403.46" y="140" width="13.67" height="16" rx="1.5" ry="1.5" opacity="0.06"/><rect fill="#e34c26" x="418.13" y="140" width="13.67" height="16" rx="1.5" ry="1.5" opacity="0.06"/><rect fill="#e34c26" x="432.81" y="140" width="13.67" height="16" rx="1.5" ry="1.5" opacity="0.06"/><rect fill="#e34c26" x="447.48" y="140" width="13.67" height="16" rx="1.5" ry="1.5" opacity="0.06"/><rect fill="#e34c26" x="462.15" y="140" width="13.67" height="16" rx="1.5" ry="1.5" opacity="0.06"/><rect fill="#e34c26" x="476.83" y="140" width="13.67" height="16" rx="1.5" ry="1.5" opacity="0.06"/><rect fill="#e34c26" x="491.50" y="140" width="13.67" height="16" rx="1.5" ry="1.5" opacity="0.06"/><rect fill="#e34c26" x="506.17" y="140" width="13.67" height="16" rx="1.5" ry="1.5" opacity="0.06"/><rect fill="#e34c26" x="520.85" y="140" width="13.67" height="16" rx="1.5" ry="1.5" opacity="0.06"/><rect fill="#e34c26" x="535.52" y="140" width="13.67" height="16" rx="1.5" ry="1.5" opacity="0.06"/><rect fill="#e34c26" x="550.19" y="140" width="13.67" height="16" rx="1.5" ry="1.5" opacity="0.06"/><rect fill="#e34c26" x="564.87" y="140" width="13.67" height="16" rx="1.5" ry="1.5" opacity="0.06"/><rect fill="#e34c26" x="579.54" y="140" width="13.67" height="16" rx="1.5" ry="1.5" opacity="0.06"/><rect fill="#e34c26" x="594.21" y="140" width="13.67" height="16" rx="1.5" ry="1.5" opacity="0.06"/><rect fill="#e34c26" x="608.88" y="140" width="13.67" height="16" rx="1.5" ry="1.5" opacity="0.06"/><rect fill="#e34c26" x="623.56" y="140" width="13.67" height="16" rx="1.5" ry="1.5" opacity="0.06"/><rect fill="#e34c26" x="638.23" y="140" width="13.67" height="16" rx="1.5" ry="1.5" opacity="0.06"/><rect fill="#e34c26" x="652.90" y="140" width="13.67" height="16" rx="1.5" ry="1.5" opacity="0.06"/><rect fill="#e34c26" x="667.58" y="140" width="13.67" height="16" rx="1.5" ry="1.5" opacity="0.06"/><rect fill="#e34c26" x="682.25" y="140" width="13.67" height="16" rx="1.5" ry="1.5" opacity="0.06"/><rect fill="#e34c26" x="696.92" y="140" width="13.67" height="16" rx="1.5" ry="1.5" opacity="0.06"/><rect fill="#e34c26" x="711.60" y="140" width="13.67" height="16" rx="1.5" ry="1.5" opacity="1.00"/><rect fill="#e34c26" x="726.27" y="140" width="13.67" height="16" rx="1.5" ry="1.5" opacity="0.06"/><rect fill="#e34c26" x="740.94" y="140" width="13.67" height="16" rx="1.5" ry="1.5" opacity="0.06"/><rect fill="#e34c26" x="755.62" y="140" width="13.67" height="16" rx="1.5" ry="1.5" opacity="0.06"/><rect fill="#e34c26" x="770.29" y="140" width="13.67" height="16" rx="1.5" ry="1.5" opacity="0.06"/><rect fill="#e34c26" x="784.96" y="140" width="13.67" height="16" rx="1.5" ry="1.5" opacity="0.06"/><rect fill="#e34c26" x="799.63" y="140" width="13.67" height="16" rx="1.5" ry="1.5" opacity="0.06"/><rect fill="#e34c26" x="814.31" y="140" width="13.67" height="16" rx="1.5" ry="1.5" opacity="0.06"/><rect fill="#e34c26" x="828.98" y="140" width="13.67" height="16" rx="1.5" ry="1.5" opacity="0.06"/><rect fill="#e34c26" x="843.65" y="140" width="13.67" height="16" rx="1.5" ry="1.5" opacity="0.06"/><rect fill="#e34c26" x="858.33" y="140" width="13.67" height="16" rx="1.5" ry="1.5" opacity="0.06"/><text class="fg" x="0" y="175" font-size="11">Clash.Meta</text><rect fill="#00ADD8" x="110.00" y="162" width="13.67" height="16" rx="1.5" ry="1.5" opacity="0.06"/><rect fill="#00ADD8" x="124.67" y="162" width="13.67" height="16" rx="1.5" ry="1.5" opacity="0.06"/><rect fill="#00ADD8" x="139.35" y="162" width="13.67" height="16" rx="1.5" ry="1.5" opacity="0.06"/><rect fill="#00ADD8" x="154.02" y="162" width="13.67" height="16" rx="1.5" ry="1.5" opacity="0.06"/><rect fill="#00ADD8" x="168.69" y="162" width="13.67" height="16" rx="1.5" ry="1.5" opacity="0.06"/><rect fill="#00ADD8" x="183.37" y="162" width="13.67" height="16" rx="1.5" ry="1.5" opacity="0.06"/><rect fill="#00ADD8" x="198.04" y="162" width="13.67" height="16" rx="1.5" ry="1.5" opacity="0.06"/><rect fill="#00ADD8" x="212.71" y="162" width="13.67" height="16" rx="1.5" ry="1.5" opacity="0.06"/><rect fill="#00ADD8" x="227.38" y="162" width="13.67" height="16" rx="1.5" ry="1.5" opacity="0.06"/><rect fill="#00ADD8" x="242.06" y="162" width="13.67" height="16" rx="1.5" ry="1.5" opacity="0.06"/><rect fill="#00ADD8" x="256.73" y="162" width="13.67" height="16" rx="1.5" ry="1.5" opacity="0.06"/><rect fill="#00ADD8" x="271.40" y="162" width="13.67" height="16" rx="1.5" ry="1.5" opacity="0.06"/><rect fill="#00ADD8" x="286.08" y="162" width="13.67" height="16" rx="1.5" ry="1.5" opacity="0.06"/><rect fill="#00ADD8" x="300.75" y="162" width="13.67" height="16" rx="1.5" ry="1.5" opacity="0.06"/><rect fill="#00ADD8" x="315.42" y="162" width="13.67" height="16" rx="1.5" ry="1.5" opacity="0.06"/><rect fill="#00ADD8" x="330.10" y="162" width="13.67" height="16" rx="1.5" ry="1.5" opacity="0.06"/><rect fill="#00ADD8" x="344.77" y="162" width="13.67" height="16" rx="1.5" ry="1.5" opacity="0.06"/><rect fill="#00ADD8" x="359.44" y="162" width="13.67" height="16" rx="1.5" ry="1.5" opacity="0.06"/><rect fill="#00ADD8" x="374.12" y="162" width="13.67" height="16" rx="1.5" ry="1.5" opacity="0.06"/><rect fill="#00ADD8" x="388.79" y="162" width="13.67" height="16" rx="1.5" ry="1.5" opacity="0.06"/><rect fill="#00ADD8" x="403.46" y="162" width="13.67" height="16" rx="1.5" ry="1.5" opacity="0.06"/><rect fill="#00ADD8" x="418.13" y="162" width="13.67" height="16" rx="1.5" ry="1.5" opacity="0.06"/><rect fill="#00ADD8" x="432.81" y="162" width="13.67" height="16" rx="1.5" ry="1.5" opacity="0.06"/><rect fill="#00ADD8" x="447.48" y="162" width="13.67" height="16" rx="1.5" ry="1.5" opacity="0.06"/><rect fill="#00ADD8" x="462.15" y="162" width="13.67" height="16" rx="1.5" ry="1.5" opacity="0.06"/><rect fill="#00ADD8" x="476.83" y="162" width="13.67" height="16" rx="1.5" ry="1.5" opacity="0.06"/><rect fill="#00ADD8" x="491.50" y="162" width="13.67" height="16" rx="1.5" ry="1.5" opacity="0.06"/><rect fill="#00ADD8" x="506.17" y="162" width="13.67" height="16" rx="1.5" ry="1.5" opacity="0.06"/><rect fill="#00ADD8" x="520.85" y="162" width="13.67" height="16" rx="1.5" ry="1.5" opacity="0.06"/><rect fill="#00ADD8" x="535.52" y="162" width="13.67" height="16" rx="1.5" ry="1.5" opacity="0.06"/><rect fill="#00ADD8" x="550.19" y="162" width="13.67" height="16" rx="1.5" ry="1.5" opacity="0.06"/><rect fill="#00ADD8" x="564.87" y="162" width="13.67" height="16" rx="1.5" ry="1.5" opacity="0.06"/><rect fill="#00ADD8" x="579.54" y="162" width="13.67" height="16" rx="1.5" ry="1.5" opacity="0.06"/><rect fill="#00ADD8" x="594.21" y="162" width="13.67" height="16" rx="1.5" ry="1.5" opacity="0.06"/><rect fill="#00ADD8" x="608.88" y="162" width="13.67" height="16" rx="1.5" ry="1.5" opacity="0.06"/><rect fill="#00ADD8" x="623.56" y="162" width="13.67" height="16" rx="1.5" ry="1.5" opacity="0.06"/><rect fill="#00ADD8" x="638.23" y="162" width="13.67" height="16" rx="1.5" ry="1.5" opacity="0.06"/><rect fill="#00ADD8" x="652.90" y="162" width="13.67" height="16" rx="1.5" ry="1.5" opacity="0.06"/><rect fill="#00ADD8" x="667.58" y="162" width="13.67" height="16" rx="1.5" ry="1.5" opacity="0.06"/><rect fill="#00ADD8" x="682.25" y="162" width="13.67" height="16" rx="1.5" ry="1.5" opacity="0.06"/><rect fill="#00ADD8" x="696.92" y="162" width="13.67" height="16" rx="1.5" ry="1.5" opacity="0.06"/><rect fill="#00ADD8" x="711.60" y="162" width="13.67" height="16" rx="1.5" ry="1.5" opacity="0.06"/><rect fill="#00ADD8" x="726.27" y="162" width="13.67" height="16" rx="1.5" ry="1.5" opacity="0.06"/><rect fill="#00ADD8" x="740.94" y="162" width="13.67" height="16" rx="1.5" ry="1.5" opacity="0.06"/><rect fill="#00ADD8" x="755.62" y="162" width="13.67" height="16" rx="1.5" ry="1.5" opacity="0.06"/><rect fill="#00ADD8" x="770.29" y="162" width="13.67" height="16" rx="1.5" ry="1.5" opacity="0.06"/><rect fill="#00ADD8" x="784.96" y="162" width="13.67" height="16" rx="1.5" ry="1.5" opacity="0.06"/><rect fill="#00ADD8" x="799.63" y="162" width="13.67" height="16" rx="1.5" ry="1.5" opacity="0.06"/><rect fill="#00ADD8" x="814.31" y="162" width="13.67" height="16" rx="1.5" ry="1.5" opacity="1.00"/><rect fill="#00ADD8" x="828.98" y="162" width="13.67" height="16" rx="1.5" ry="1.5" opacity="0.06"/><rect fill="#00ADD8" x="843.65" y="162" width="13.67" height="16" rx="1.5" ry="1.5" opacity="0.06"/><rect fill="#00ADD8" x="858.33" y="162" width="13.67" height="16" rx="1.5" ry="1.5" opacity="0.06"/><text class="muted" x="116.84" y="201" font-size="9" text-anchor="middle">May</text><text class="muted" x="278.24" y="201" font-size="9" text-anchor="middle">Aug</text><text class="muted" x="468.99" y="201" font-size="9" text-anchor="middle">Nov</text><text class="muted" x="659.74" y="201" font-size="9" text-anchor="middle">Feb</text><text class="muted" x="850.49" y="201" font-size="9" text-anchor="middle">May</text></g>
  <g transform="translate(24, 246)"><text class="muted" x="0" y="14" font-size="11" letter-spacing="0.1em">LANGUAGES BY COMMIT</text><text class="fg" x="0" y="36" font-size="12">C#</text><text class="muted" x="280" y="36" font-size="10" text-anchor="end">614 · 57%</text><rect class="panel" x="0" y="40" width="280" height="6" rx="3" ry="3"/><rect x="0" y="40" width="158.49897392556156" height="6" rx="3" ry="3" fill="#178600"/><text class="fg" x="0" y="64" font-size="12">C++</text><text class="muted" x="280" y="64" font-size="10" text-anchor="end">171 · 23%</text><rect class="panel" x="0" y="68" width="280" height="6" rx="3" ry="3"/><rect x="0" y="68" width="63.620729052600005" height="6" rx="3" ry="3" fill="#f34b7d"/><text class="fg" x="0" y="92" font-size="12">Python</text><text class="muted" x="280" y="92" font-size="10" text-anchor="end">279 · 9%</text><rect class="panel" x="0" y="96" width="280" height="6" rx="3" ry="3"/><rect x="0" y="96" width="24.96961482820466" height="6" rx="3" ry="3" fill="#3572A5"/><text class="fg" x="0" y="120" font-size="12">TypeScript</text><text class="muted" x="280" y="120" font-size="10" text-anchor="end">96 · 6%</text><rect class="panel" x="0" y="124" width="280" height="6" rx="3" ry="3"/><rect x="0" y="124" width="16.15680158014804" height="6" rx="3" ry="3" fill="#3178c6"/><text class="fg" x="0" y="148" font-size="12">Kotlin</text><text class="muted" x="280" y="148" font-size="10" text-anchor="end">97 · 5%</text><rect class="panel" x="0" y="152" width="280" height="6" rx="3" ry="3"/><rect x="0" y="152" width="13.514623945334725" height="6" rx="3" ry="3" fill="#A97BFF"/><text class="fg" x="0" y="176" font-size="12">C</text><text class="muted" x="280" y="176" font-size="10" text-anchor="end">17 · 1%</text><rect class="panel" x="0" y="180" width="280" height="6" rx="3" ry="3"/><rect x="0" y="180" width="3.239256668151007" height="6" rx="3" ry="3" fill="#555555"/></g>
  <g transform="translate(320, 246)"><text class="muted" x="0" y="14" font-size="11" letter-spacing="0.1em">COMMITS BY HOUR (UTC)</text><text class="muted" x="280" y="14" font-size="9" text-anchor="end">80 commits</text><rect class="accent" x="0" y="124" width="10.708333333333334" height="0" rx="1.5" ry="1.5" opacity="0.55"/><rect class="accent" x="11.708333333333334" y="124" width="10.708333333333334" height="0" rx="1.5" ry="1.5" opacity="0.55"/><rect class="accent" x="23.416666666666668" y="113.33333333333333" width="10.708333333333334" height="10.666666666666666" rx="1.5" ry="1.5" opacity="0.60"/><rect class="accent" x="35.125" y="124" width="10.708333333333334" height="0" rx="1.5" ry="1.5" opacity="0.55"/><rect class="accent" x="46.833333333333336" y="124" width="10.708333333333334" height="0" rx="1.5" ry="1.5" opacity="0.55"/><rect class="accent" x="58.54166666666667" y="49.33333333333333" width="10.708333333333334" height="74.66666666666667" rx="1.5" ry="1.5" opacity="0.90"/><rect class="accent" x="70.25" y="70.66666666666666" width="10.708333333333334" height="53.333333333333336" rx="1.5" ry="1.5" opacity="0.80"/><rect class="accent" x="81.95833333333334" y="70.66666666666666" width="10.708333333333334" height="53.333333333333336" rx="1.5" ry="1.5" opacity="0.80"/><rect class="accent" x="93.66666666666667" y="49.33333333333333" width="10.708333333333334" height="74.66666666666667" rx="1.5" ry="1.5" opacity="0.90"/><rect class="accent2" x="105.375" y="28" width="10.708333333333334" height="96" rx="1.5" ry="1.5" opacity="1.00"/><rect class="accent" x="117.08333333333334" y="113.33333333333333" width="10.708333333333334" height="10.666666666666666" rx="1.5" ry="1.5" opacity="0.60"/><rect class="accent" x="128.79166666666669" y="124" width="10.708333333333334" height="0" rx="1.5" ry="1.5" opacity="0.55"/><rect class="accent" x="140.5" y="81.33333333333334" width="10.708333333333334" height="42.666666666666664" rx="1.5" ry="1.5" opacity="0.75"/><rect class="accent" x="152.20833333333334" y="102.66666666666667" width="10.708333333333334" height="21.333333333333332" rx="1.5" ry="1.5" opacity="0.65"/><rect class="accent" x="163.91666666666669" y="60" width="10.708333333333334" height="64" rx="1.5" ry="1.5" opacity="0.85"/><rect class="accent" x="175.625" y="70.66666666666666" width="10.708333333333334" height="53.333333333333336" rx="1.5" ry="1.5" opacity="0.80"/><rect class="accent" x="187.33333333333334" y="60" width="10.708333333333334" height="64" rx="1.5" ry="1.5" opacity="0.85"/><rect class="accent" x="199.04166666666669" y="92" width="10.708333333333334" height="32" rx="1.5" ry="1.5" opacity="0.70"/><rect class="accent" x="210.75" y="70.66666666666666" width="10.708333333333334" height="53.333333333333336" rx="1.5" ry="1.5" opacity="0.80"/><rect class="accent" x="222.45833333333334" y="81.33333333333334" width="10.708333333333334" height="42.666666666666664" rx="1.5" ry="1.5" opacity="0.75"/><rect class="accent" x="234.16666666666669" y="113.33333333333333" width="10.708333333333334" height="10.666666666666666" rx="1.5" ry="1.5" opacity="0.60"/><rect class="accent" x="245.875" y="70.66666666666666" width="10.708333333333334" height="53.333333333333336" rx="1.5" ry="1.5" opacity="0.80"/><rect class="accent" x="257.58333333333337" y="81.33333333333334" width="10.708333333333334" height="42.666666666666664" rx="1.5" ry="1.5" opacity="0.75"/><rect class="accent" x="269.2916666666667" y="124" width="10.708333333333334" height="0" rx="1.5" ry="1.5" opacity="0.55"/><text class="muted" x="5.354166666666667" y="136" font-size="9" text-anchor="middle">00</text><text class="muted" x="75.60416666666667" y="136" font-size="9" text-anchor="middle">06</text><text class="muted" x="145.85416666666666" y="136" font-size="9" text-anchor="middle">12</text><text class="muted" x="216.10416666666666" y="136" font-size="9" text-anchor="middle">18</text><text class="muted" x="0" y="152" font-size="11">peak hour</text><text class="fg" x="280" y="152" font-size="12" text-anchor="end" font-weight="600">09:00 UTC</text></g>
  <g transform="translate(616, 246)"><text class="muted" x="0" y="14" font-size="11" letter-spacing="0.1em">MONTHLY CONTRIBUTIONS</text><text class="muted" x="280" y="14" font-size="9" text-anchor="end">last 12 months</text><rect class="accent2" x="0" y="115.93399339933994" width="19.666666666666668" height="8.066006600660065" rx="2" ry="2" opacity="0.59"/><text class="muted" x="9.833333333333334" y="136" font-size="9" text-anchor="middle">J</text><rect class="accent2" x="23.666666666666668" y="118.31243124312431" width="19.666666666666668" height="5.687568756875688" rx="2" ry="2" opacity="0.58"/><text class="muted" x="33.5" y="136" font-size="9" text-anchor="middle">J</text><rect class="accent2" x="47.333333333333336" y="115.83058305830583" width="19.666666666666668" height="8.16941694169417" rx="2" ry="2" opacity="0.59"/><text class="muted" x="57.16666666666667" y="136" font-size="9" text-anchor="middle">A</text><rect class="accent2" x="71" y="119.44994499449945" width="19.666666666666668" height="4.55005500550055" rx="2" ry="2" opacity="0.57"/><text class="muted" x="80.83333333333333" y="136" font-size="9" text-anchor="middle">S</text><rect class="accent2" x="94.66666666666667" y="117.17491749174917" width="19.666666666666668" height="6.8250825082508255" rx="2" ry="2" opacity="0.58"/><text class="muted" x="104.5" y="136" font-size="9" text-anchor="middle">O</text><rect class="accent2" x="118.33333333333334" y="115.72717271727173" width="19.666666666666668" height="8.272827282728274" rx="2" ry="2" opacity="0.59"/><text class="muted" x="128.16666666666669" y="136" font-size="9" text-anchor="middle">N</text><rect class="accent2" x="142" y="106.83388338833883" width="19.666666666666668" height="17.166116611661167" rx="2" ry="2" opacity="0.63"/><text class="muted" x="151.83333333333334" y="136" font-size="9" text-anchor="middle">D</text><rect class="accent2" x="165.66666666666669" y="108.5918591859186" width="19.666666666666668" height="15.408140814081408" rx="2" ry="2" opacity="0.62"/><text class="muted" x="175.50000000000003" y="136" font-size="9" text-anchor="middle">J</text><rect class="accent2" x="189.33333333333334" y="67.43454345434543" width="19.666666666666668" height="56.56545654565457" rx="2" ry="2" opacity="0.82"/><text class="muted" x="199.16666666666669" y="136" font-size="9" text-anchor="middle">F</text><rect class="accent2" x="213" y="30" width="19.666666666666668" height="94" rx="2" ry="2" opacity="1.00"/><text class="muted" x="222.83333333333334" y="136" font-size="9" text-anchor="middle">M</text><rect class="accent2" x="236.66666666666669" y="106.62706270627064" width="19.666666666666668" height="17.372937293729372" rx="2" ry="2" opacity="0.63"/><text class="muted" x="246.50000000000003" y="136" font-size="9" text-anchor="middle">A</text><rect class="accent2" x="260.33333333333337" y="118.2090209020902" width="19.666666666666668" height="5.790979097909791" rx="2" ry="2" opacity="0.58"/><text class="muted" x="270.1666666666667" y="136" font-size="9" text-anchor="middle">M</text><text class="muted" x="0" y="152" font-size="11">total</text><text class="fg" x="280" y="152" font-size="12" text-anchor="end" font-weight="600">2,397</text></g>
</svg>