<svg xmlns="http://www.w3.org/2000/svg" viewBox="0 0 920 506" width="920" height="506" role="img" aria-label="Jamminroot activity charts">
  <style>
  text { font-family: -apple-system, BlinkMacSystemFont, "Segoe UI", Roboto, "Helvetica Neue", sans-serif; }
  .bg { fill: #ffffff; }
  .panel { fill: #f6f8fa; }
  .border { stroke: #d0d7de; }
  .fg { fill: #1f2328; }
  .muted { fill: #656d76; }
  .accent { fill: #0969da; }
  .accent2 { fill: #1f883d; }
  .work { fill: #6b21a8; }
  @media (prefers-color-scheme: dark) {
    .bg { fill: #0d1117; }
    .panel { fill: #161b22; }
    .border { stroke: #30363d; }
    .fg { fill: #e6edf3; }
    .muted { fill: #7d8590; }
    .accent { fill: #58a6ff; }
    .accent2 { fill: #3fb950; }
    .work { fill: #a855f7; }
  }
</style>
  <rect class="bg" x="0" y="0" width="920" height="506" rx="8" ry="8"/>
  <g transform="translate(24, 24)"><text class="muted" x="0" y="14" font-size="11" letter-spacing="0.1em">PROJECT ACTIVITY · LAST 12 MONTHS</text><text class="fg" x="0" y="43" font-size="11">crypto-model-re…</text><rect fill="#3572A5" x="740.94" y="30" width="13.67" height="16" rx="1.5" ry="1.5" opacity="0.45"/><rect fill="#3572A5" x="755.62" y="30" width="13.67" height="16" rx="1.5" ry="1.5" opacity="1.00"/><rect fill="#3572A5" x="770.29" y="30" width="13.67" height="16" rx="1.5" ry="1.5" opacity="0.93"/><rect fill="#3572A5" x="784.96" y="30" width="13.67" height="16" rx="1.5" ry="1.5" opacity="0.31"/><text class="fg" x="0" y="65" font-size="11">poker-cv</text><rect fill="#3572A5" x="608.88" y="52" width="13.67" height="16" rx="1.5" ry="1.5" opacity="0.31"/><rect fill="#3572A5" x="623.56" y="52" width="13.67" height="16" rx="1.5" ry="1.5" opacity="1.00"/><rect fill="#3572A5" x="638.23" y="52" width="13.67" height="16" rx="1.5" ry="1.5" opacity="0.39"/><text class="fg" x="0" y="87" font-size="11">intag2</text><rect fill="#f34b7d" x="623.56" y="74" width="13.67" height="16" rx="1.5" ry="1.5" opacity="0.32"/><rect fill="#f34b7d" x="638.23" y="74" width="13.67" height="16" rx="1.5" ry="1.5" opacity="0.53"/><rect fill="#f34b7d" x="667.58" y="74" width="13.67" height="16" rx="1.5" ry="1.5" opacity="0.55"/><rect fill="#f34b7d" x="682.25" y="74" width="13.67" height="16" rx="1.5" ry="1.5" opacity="0.34"/><rect fill="#f34b7d" x="696.92" y="74" width="13.67" height="16" rx="1.5" ry="1.5" opacity="1.00"/><rect fill="#f34b7d" x="711.60" y="74" width="13.67" height="16" rx="1.5" ry="1.5" opacity="0.39"/><rect fill="#f34b7d" x="814.31" y="74" width="13.67" height="16" rx="1.5" ry="1.5" opacity="0.34"/><text class="fg" x="0" y="109" font-size="11">j-uni-hid</text><rect fill="#f34b7d" x="550.19" y="96" width="13.67" height="16" rx="1.5" ry="1.5" opacity="0.75"/><rect fill="#f34b7d" x="564.87" y="96" width="13.67" height="16" rx="1.5" ry="1.5" opacity="1.00"/><rect fill="#f34b7d" x="579.54" y="96" width="13.67" height="16" rx="1.5" ry="1.5" opacity="0.55"/><rect fill="#f34b7d" x="638.23" y="96" width="13.67" height="16" rx="1.5" ry="1.5" opacity="0.32"/><rect fill="#f34b7d" x="740.94" y="96" width="13.67" height="16" rx="1.5" ry="1.5" opacity="0.32"/><rect fill="#f34b7d" x="799.63" y="96" width="13.67" height="16" rx="1.5" ry="1.5" opacity="0.34"/><text class="fg" x="0" y="131" font-size="11">ozwil-android</text><rect fill="#A97BFF" x="726.27" y="118" width="13.67" height="16" rx="1.5" ry="1.5" opacity="1.00"/><rect fill="#A97BFF" x="740.94" y="118" width="13.67" height="16" rx="1.5" ry="1.5" opacity="0.77"/><text class="fg" x="0" y="153" font-size="11">freqtrade_start…</text><rect fill="#3572A5" x="110.00" y="140" width="13.67" height="16" rx="1.5" ry="1.5" opacity="1.00"/><rect fill="#3572A5" x="124.67" y="140" width="13.67" height="16" rx="1.5" ry="1.5" opacity="0.57"/><rect fill="#3572A5" x="139.35" y="140" width="13.67" height="16" rx="1.5" ry="1.5" opacity="0.69"/><rect fill="#3572A5" x="154.02" y="140" width="13.67" height="16" rx="1.5" ry="1.5" opacity="0.46"/><rect fill="#3572A5" x="168.69" y="140" width="13.67" height="16" rx="1.5" ry="1.5" opacity="0.34"/><text class="fg" x="0" y="175" font-size="11">auto-claude</text><rect fill="#3178c6" x="579.54" y="162" width="13.67" height="16" rx="1.5" ry="1.5" opacity="1.00"/><text class="fg" x="0" y="197" font-size="11">summit</text><rect fill="#178600" x="814.31" y="184" width="13.67" height="16" rx="1.5" ry="1.5" opacity="1.00"/><rect fill="#178600" x="828.98" y="184" width="13.67" height="16" rx="1.5" ry="1.5" opacity="0.96"/><rect fill="#178600" x="843.65" y="184" width="13.67" height="16" rx="1.5" ry="1.5" opacity="0.47"/><text class="fg" x="0" y="219" font-size="11">n8n-nodes-telep…</text><rect fill="#3178c6" x="344.77" y="206" width="13.67" height="16" rx="1.5" ry="1.5" opacity="0.62"/><rect fill="#3178c6" x="359.44" y="206" width="13.67" height="16" rx="1.5" ry="1.5" opacity="0.35"/><rect fill="#3178c6" x="652.90" y="206" width="13.67" height="16" rx="1.5" ry="1.5" opacity="0.57"/><rect fill="#3178c6" x="711.60" y="206" width="13.67" height="16" rx="1.5" ry="1.5" opacity="1.00"/><text class="muted" x="116.84" y="245" font-size="9" text-anchor="middle">May</text><text class="muted" x="278.24" y="245" font-size="9" text-anchor="middle">Aug</text><text class="muted" x="468.99" y="245" font-size="9" text-anchor="middle">Nov</text><text class="muted" x="659.74" y="245" font-size="9" text-anchor="middle">Feb</text><text class="muted" x="850.49" y="245" font-size="9" text-anchor="middle">May</text></g>
  <g transform="translate(24, 290)"><text class="muted" x="0" y="14" font-size="11" letter-spacing="0.1em">LANGUAGES BY COMMIT</text><text class="fg" x="0" y="36" font-size="12">C#</text><text class="muted" x="280" y="36" font-size="10" text-anchor="end">680 · 56%</text><rect class="panel" x="0" y="40" width="280" height="6" rx="3" ry="3"/><rect x="0" y="40" width="155.92596073619868" height="6" rx="3" ry="3" fill="#178600"/><text class="fg" x="0" y="64" font-size="12">C++</text><text class="muted" x="280" y="64" font-size="10" text-anchor="end">173 · 21%</text><rect class="panel" x="0" y="68" width="280" height="6" rx="3" ry="3"/><rect x="0" y="68" width="59.904923120804504" height="6" rx="3" ry="3" fill="#f34b7d"/><text class="fg" x="0" y="92" font-size="12">Python</text><text class="muted" x="280" y="92" font-size="10" text-anchor="end">478 · 14%</text><rect class="panel" x="0" y="96" width="280" height="6" rx="3" ry="3"/><rect x="0" y="96" width="38.50314307616179" height="6" rx="3" ry="3" fill="#3572A5"/><text class="fg" x="0" y="120" font-size="12">TypeScript</text><text class="muted" x="280" y="120" font-size="10" text-anchor="end">70 · 4%</text><rect class="panel" x="0" y="124" width="280" height="6" rx="3" ry="3"/><rect x="0" y="124" width="9.859286462152118" height="6" rx="3" ry="3" fill="#3178c6"/><text class="fg" x="0" y="148" font-size="12">Kotlin</text><text class="muted" x="280" y="148" font-size="10" text-anchor="end">75 · 3%</text><rect class="panel" x="0" y="152" width="280" height="6" rx="3" ry="3"/><rect x="0" y="152" width="9.096698577001845" height="6" rx="3" ry="3" fill="#A97BFF"/><text class="fg" x="0" y="176" font-size="12">Dart</text><text class="muted" x="280" y="176" font-size="10" text-anchor="end">42 · 2%</text><rect class="panel" x="0" y="180" width="280" height="6" rx="3" ry="3"/><rect x="0" y="180" width="6.7099880276810415" height="6" rx="3" ry="3" fill="#00B4AB"/></g>
  <g transform="translate(320, 290)"><text class="muted" x="0" y="14" font-size="11" letter-spacing="0.1em">COMMITS BY HOUR (UTC)</text><text class="muted" x="280" y="14" font-size="9" text-anchor="end">1146 commits</text><rect class="accent" x="0" y="62.6987951807229" width="10.708333333333334" height="61.3012048192771" rx="1.5" ry="1.5" opacity="0.84"/><rect class="accent" x="11.708333333333334" y="83.51807228915662" width="10.708333333333334" height="40.48192771084338" rx="1.5" ry="1.5" opacity="0.74"/><rect class="accent" x="23.416666666666668" y="89.3012048192771" width="10.708333333333334" height="34.69879518072289" rx="1.5" ry="1.5" opacity="0.71"/><rect class="accent" x="35.125" y="108.96385542168674" width="10.708333333333334" height="15.036144578313253" rx="1.5" ry="1.5" opacity="0.62"/><rect class="accent" x="46.833333333333336" y="97.39759036144578" width="10.708333333333334" height="26.602409638554217" rx="1.5" ry="1.5" opacity="0.67"/><rect class="accent" x="58.54166666666667" y="96.24096385542168" width="10.708333333333334" height="27.75903614457831" rx="1.5" ry="1.5" opacity="0.68"/><rect class="accent" x="70.25" y="71.95180722891567" width="10.708333333333334" height="52.04819277108433" rx="1.5" ry="1.5" opacity="0.79"/><rect class="accent" x="81.95833333333334" y="91.6144578313253" width="10.708333333333334" height="32.3855421686747" rx="1.5" ry="1.5" opacity="0.70"/><rect class="accent" x="93.66666666666667" y="73.10843373493975" width="10.708333333333334" height="50.89156626506025" rx="1.5" ry="1.5" opacity="0.79"/><rect class="accent" x="105.375" y="58.07228915662651" width="10.708333333333334" height="65.92771084337349" rx="1.5" ry="1.5" opacity="0.86"/><rect class="accent" x="117.08333333333334" y="54.60240963855422" width="10.708333333333334" height="69.39759036144578" rx="1.5" ry="1.5" opacity="0.88"/><rect class="accent" x="128.79166666666669" y="76.57831325301206" width="10.708333333333334" height="47.42168674698795" rx="1.5" ry="1.5" opacity="0.77"/><rect class="accent" x="140.5" y="74.26506024096386" width="10.708333333333334" height="49.734939759036145" rx="1.5" ry="1.5" opacity="0.78"/><rect class="accent" x="152.20833333333334" y="73.10843373493975" width="10.708333333333334" height="50.89156626506025" rx="1.5" ry="1.5" opacity="0.79"/><rect class="accent" x="163.91666666666669" y="70.79518072289156" width="10.708333333333334" height="53.204819277108435" rx="1.5" ry="1.5" opacity="0.80"/><rect class="accent" x="175.625" y="75.42168674698796" width="10.708333333333334" height="48.57831325301204" rx="1.5" ry="1.5" opacity="0.78"/><rect class="accent" x="187.33333333333334" y="80.04819277108433" width="10.708333333333334" height="43.95180722891566" rx="1.5" ry="1.5" opacity="0.76"/><rect class="accent" x="199.04166666666669" y="59.22891566265061" width="10.708333333333334" height="64.7710843373494" rx="1.5" ry="1.5" opacity="0.85"/><rect class="accent" x="210.75" y="63.855421686746986" width="10.708333333333334" height="60.144578313253014" rx="1.5" ry="1.5" opacity="0.83"/><rect class="accent" x="222.45833333333334" y="39.566265060240966" width="10.708333333333334" height="84.43373493975903" rx="1.5" ry="1.5" opacity="0.95"/><rect class="accent" x="234.16666666666669" y="39.566265060240966" width="10.708333333333334" height="84.43373493975903" rx="1.5" ry="1.5" opacity="0.95"/><rect class="accent2" x="245.875" y="28" width="10.708333333333334" height="96" rx="1.5" ry="1.5" opacity="1.00"/><rect class="accent" x="257.58333333333337" y="43.03614457831324" width="10.708333333333334" height="80.96385542168676" rx="1.5" ry="1.5" opacity="0.93"/><rect class="accent" x="269.2916666666667" y="39.566265060240966" width="10.708333333333334" height="84.43373493975903" rx="1.5" ry="1.5" opacity="0.95"/><text class="muted" x="5.354166666666667" y="136" font-size="9" text-anchor="middle">00</text><text class="muted" x="75.60416666666667" y="136" font-size="9" text-anchor="middle">06</text><text class="muted" x="145.85416666666666" y="136" font-size="9" text-anchor="middle">12</text><text class="muted" x="216.10416666666666" y="136" font-size="9" text-anchor="middle">18</text><text class="muted" x="0" y="152" font-size="11">peak hour</text><text class="fg" x="280" y="152" font-size="12" text-anchor="end" font-weight="600">21:00 UTC</text></g>
  <g transform="translate(616, 290)"><text class="muted" x="0" y="14" font-size="11" letter-spacing="0.1em">MONTHLY CONTRIBUTIONS</text><text class="muted" x="280" y="14" font-size="9" text-anchor="end">last 12 months</text><rect class="accent2" x="0" y="123.33880422039859" width="19.666666666666668" height="0.6611957796014069" rx="2" ry="2" opacity="0.55"/><text class="muted" x="9.833333333333334" y="136" font-size="9" text-anchor="middle">J</text><rect class="accent2" x="23.666666666666668" y="123.88980070339977" width="19.666666666666668" height="0.11019929660023446" rx="2" ry="2" opacity="0.55"/><text class="muted" x="33.5" y="136" font-size="9" text-anchor="middle">J</text><rect class="accent2" x="47.333333333333336" y="123.33880422039859" width="19.666666666666668" height="0.6611957796014069" rx="2" ry="2" opacity="0.55"/><text class="muted" x="57.16666666666667" y="136" font-size="9" text-anchor="middle">A</text><rect class="accent2" x="71" y="123.44900351699883" width="19.666666666666668" height="0.5509964830011723" rx="2" ry="2" opacity="0.55"/><text class="muted" x="80.83333333333333" y="136" font-size="9" text-anchor="middle">S</text><rect class="accent2" x="94.66666666666667" y="124" width="19.666666666666668" height="0" rx="2" ry="2" opacity="0.55"/><text class="muted" x="104.5" y="136" font-size="9" text-anchor="middle">O</text><rect class="accent2" x="118.33333333333334" y="123.88980070339977" width="19.666666666666668" height="0.11019929660023446" rx="2" ry="2" opacity="0.55"/><text class="muted" x="128.16666666666669" y="136" font-size="9" text-anchor="middle">N</text><rect class="accent2" x="142" y="110.77608440797187" width="19.666666666666668" height="13.223915592028137" rx="2" ry="2" opacity="0.61"/><text class="muted" x="151.83333333333334" y="136" font-size="9" text-anchor="middle">D</text><rect class="accent2" x="165.66666666666669" y="109.23329425556858" width="19.666666666666668" height="14.76670574443142" rx="2" ry="2" opacity="0.62"/><text class="muted" x="175.50000000000003" y="136" font-size="9" text-anchor="middle">J</text><rect class="accent2" x="189.33333333333334" y="69.23094958968346" width="19.666666666666668" height="54.76905041031653" rx="2" ry="2" opacity="0.81"/><text class="muted" x="199.16666666666669" y="136" font-size="9" text-anchor="middle">F</text><rect class="accent2" x="213" y="30" width="19.666666666666668" height="94" rx="2" ry="2" opacity="1.00"/><text class="muted" x="222.83333333333334" y="136" font-size="9" text-anchor="middle">M</text><rect class="accent2" x="236.66666666666669" y="114.52286049237983" width="19.666666666666668" height="9.477139507620164" rx="2" ry="2" opacity="0.60"/><text class="muted" x="246.50000000000003" y="136" font-size="9" text-anchor="middle">A</text><rect class="accent2" x="260.33333333333337" y="120.25322391559203" width="19.666666666666668" height="3.746776084407972" rx="2" ry="2" opacity="0.57"/><text class="muted" x="270.1666666666667" y="136" font-size="9" text-anchor="middle">M</text><text class="muted" x="0" y="152" font-size="11">total</text><text class="fg" x="280" y="152" font-size="12" text-anchor="end" font-weight="600">1,743</text></g>
</svg>