<svg xmlns="http://www.w3.org/2000/svg" viewBox="0 0 920 506" width="920" height="506" role="img" aria-label="Jamminroot activity charts">
  <style>
  text { font-family: -apple-system, BlinkMacSystemFont, "Segoe UI", Roboto, "Helvetica Neue", sans-serif; }
  .bg { fill: #ffffff; }
  .panel { fill: #f6f8fa; }
  .border { stroke: #d0d7de; }
  .fg { fill: #1f2328; }
  .muted { fill: #656d76; }
  .accent { fill: #0969da; }
  .accent2 { fill: #1f883d; }
  .work { fill: #6b21a8; }
  @media (prefers-color-scheme: dark) {
    .bg { fill: #0d1117; }
    .panel { fill: #161b22; }
    .border { stroke: #30363d; }
    .fg { fill: #e6edf3; }
    .muted { fill: #7d8590; }
    .accent { fill: #58a6ff; }
    .accent2 { fill: #3fb950; }
    .work { fill: #a855f7; }
  }
</style>
  <rect class="bg" x="0" y="0" width="920" height="506" rx="8" ry="8"/>
  <g transform="translate(24, 24)"><text class="muted" x="0" y="14" font-size="11" letter-spacing="0.1em">PROJECT ACTIVITY · LAST 12 MONTHS</text><text class="fg" x="0" y="43" font-size="11">crypto-model-re…</text><rect fill="#3572A5" x="740.94" y="30" width="13.67" height="16" rx="1.5" ry="1.5" opacity="0.45"/><rect fill="#3572A5" x="755.62" y="30" width="13.67" height="16" rx="1.5" ry="1.5" opacity="1.00"/><rect fill="#3572A5" x="770.29" y="30" width="13.67" height="16" rx="1.5" ry="1.5" opacity="0.90"/><rect fill="#3572A5" x="784.96" y="30" width="13.67" height="16" rx="1.5" ry="1.5" opacity="0.31"/><text class="fg" x="0" y="65" font-size="11">poker-cv</text><rect fill="#3572A5" x="608.88" y="52" width="13.67" height="16" rx="1.5" ry="1.5" opacity="0.31"/><rect fill="#3572A5" x="623.56" y="52" width="13.67" height="16" rx="1.5" ry="1.5" opacity="1.00"/><rect fill="#3572A5" x="638.23" y="52" width="13.67" height="16" rx="1.5" ry="1.5" opacity="0.39"/><text class="fg" x="0" y="87" font-size="11">intag2</text><rect fill="#f34b7d" x="623.56" y="74" width="13.67" height="16" rx="1.5" ry="1.5" opacity="0.32"/><rect fill="#f34b7d" x="638.23" y="74" width="13.67" height="16" rx="1.5" ry="1.5" opacity="0.53"/><rect fill="#f34b7d" x="667.58" y="74" width="13.67" height="16" rx="1.5" ry="1.5" opacity="0.55"/><rect fill="#f34b7d" x="682.25" y="74" width="13.67" height="16" rx="1.5" ry="1.5" opacity="0.34"/><rect fill="#f34b7d" x="696.92" y="74" width="13.67" height="16" rx="1.5" ry="1.5" opacity="1.00"/><rect fill="#f34b7d" x="711.60" y="74" width="13.67" height="16" rx="1.5" ry="1.5" opacity="0.39"/><rect fill="#f34b7d" x="814.31" y="74" width="13.67" height="16" rx="1.5" ry="1.5" opacity="0.34"/><text class="fg" x="0" y="109" font-size="11">j-uni-hid</text><rect fill="#f34b7d" x="550.19" y="96" width="13.67" height="16" rx="1.5" ry="1.5" opacity="0.75"/><rect fill="#f34b7d" x="564.87" y="96" width="13.67" height="16" rx="1.5" ry="1.5" opacity="1.00"/><rect fill="#f34b7d" x="579.54" y="96" width="13.67" height="16" rx="1.5" ry="1.5" opacity="0.55"/><rect fill="#f34b7d" x="638.23" y="96" width="13.67" height="16" rx="1.5" ry="1.5" opacity="0.32"/><rect fill="#f34b7d" x="740.94" y="96" width="13.67" height="16" rx="1.5" ry="1.5" opacity="0.32"/><rect fill="#f34b7d" x="799.63" y="96" width="13.67" height="16" rx="1.5" ry="1.5" opacity="0.34"/><text class="fg" x="0" y="131" font-size="11">ozwil-android</text><rect fill="#A97BFF" x="726.27" y="118" width="13.67" height="16" rx="1.5" ry="1.5" opacity="1.00"/><rect fill="#A97BFF" x="740.94" y="118" width="13.67" height="16" rx="1.5" ry="1.5" opacity="0.77"/><text class="fg" x="0" y="153" font-size="11">auto-claude</text><rect fill="#3178c6" x="579.54" y="140" width="13.67" height="16" rx="1.5" ry="1.5" opacity="1.00"/><text class="fg" x="0" y="175" font-size="11">freqtrade_start…</text><rect fill="#3572A5" x="110.00" y="162" width="13.67" height="16" rx="1.5" ry="1.5" opacity="1.00"/><rect fill="#3572A5" x="124.67" y="162" width="13.67" height="16" rx="1.5" ry="1.5" opacity="0.59"/><rect fill="#3572A5" x="139.35" y="162" width="13.67" height="16" rx="1.5" ry="1.5" opacity="0.71"/><rect fill="#3572A5" x="154.02" y="162" width="13.67" height="16" rx="1.5" ry="1.5" opacity="0.46"/><rect fill="#3572A5" x="168.69" y="162" width="13.67" height="16" rx="1.5" ry="1.5" opacity="0.34"/><text class="fg" x="0" y="197" font-size="11">summit</text><rect fill="#178600" x="814.31" y="184" width="13.67" height="16" rx="1.5" ry="1.5" opacity="1.00"/><rect fill="#178600" x="828.98" y="184" width="13.67" height="16" rx="1.5" ry="1.5" opacity="0.88"/><rect fill="#178600" x="843.65" y="184" width="13.67" height="16" rx="1.5" ry="1.5" opacity="0.46"/><text class="fg" x="0" y="219" font-size="11">n8n-nodes-telep…</text><rect fill="#3178c6" x="344.77" y="206" width="13.67" height="16" rx="1.5" ry="1.5" opacity="0.62"/><rect fill="#3178c6" x="359.44" y="206" width="13.67" height="16" rx="1.5" ry="1.5" opacity="0.35"/><rect fill="#3178c6" x="652.90" y="206" width="13.67" height="16" rx="1.5" ry="1.5" opacity="0.57"/><rect fill="#3178c6" x="711.60" y="206" width="13.67" height="16" rx="1.5" ry="1.5" opacity="1.00"/><text class="muted" x="116.84" y="245" font-size="9" text-anchor="middle">May</text><text class="muted" x="278.24" y="245" font-size="9" text-anchor="middle">Aug</text><text class="muted" x="468.99" y="245" font-size="9" text-anchor="middle">Nov</text><text class="muted" x="659.74" y="245" font-size="9" text-anchor="middle">Feb</text><text class="muted" x="850.49" y="245" font-size="9" text-anchor="middle">May</text></g>
  <g transform="translate(24, 290)"><text class="muted" x="0" y="14" font-size="11" letter-spacing="0.1em">LANGUAGES BY COMMIT</text><text class="fg" x="0" y="36" font-size="12">C#</text><text class="muted" x="280" y="36" font-size="10" text-anchor="end">680 · 53%</text><rect class="panel" x="0" y="40" width="280" height="6" rx="3" ry="3"/><rect x="0" y="40" width="149.7757672762921" height="6" rx="3" ry="3" fill="#178600"/><text class="fg" x="0" y="64" font-size="12">C++</text><text class="muted" x="280" y="64" font-size="10" text-anchor="end">173 · 21%</text><rect class="panel" x="0" y="68" width="280" height="6" rx="3" ry="3"/><rect x="0" y="68" width="57.542091013474426" height="6" rx="3" ry="3" fill="#f34b7d"/><text class="fg" x="0" y="92" font-size="12">Python</text><text class="muted" x="280" y="92" font-size="10" text-anchor="end">444 · 13%</text><rect class="panel" x="0" y="96" width="280" height="6" rx="3" ry="3"/><rect x="0" y="96" width="35.7919302898401" height="6" rx="3" ry="3" fill="#3572A5"/><text class="fg" x="0" y="120" font-size="12">C</text><text class="muted" x="280" y="120" font-size="10" text-anchor="end">25 · 7%</text><rect class="panel" x="0" y="124" width="280" height="6" rx="3" ry="3"/><rect x="0" y="124" width="18.681908003103096" height="6" rx="3" ry="3" fill="#555555"/><text class="fg" x="0" y="148" font-size="12">TypeScript</text><text class="muted" x="280" y="148" font-size="10" text-anchor="end">70 · 3%</text><rect class="panel" x="0" y="152" width="280" height="6" rx="3" ry="3"/><rect x="0" y="152" width="9.47040626008326" height="6" rx="3" ry="3" fill="#3178c6"/><text class="fg" x="0" y="176" font-size="12">Kotlin</text><text class="muted" x="280" y="176" font-size="10" text-anchor="end">75 · 3%</text><rect class="panel" x="0" y="180" width="280" height="6" rx="3" ry="3"/><rect x="0" y="180" width="8.73789715720703" height="6" rx="3" ry="3" fill="#A97BFF"/></g>
  <g transform="translate(320, 290)"><text class="muted" x="0" y="14" font-size="11" letter-spacing="0.1em">COMMITS BY HOUR (UTC)</text><text class="muted" x="280" y="14" font-size="9" text-anchor="end">1119 commits</text><rect class="accent" x="0" y="61.18518518518518" width="10.708333333333334" height="62.81481481481482" rx="1.5" ry="1.5" opacity="0.84"/><rect class="accent" x="11.708333333333334" y="82.51851851851852" width="10.708333333333334" height="41.48148148148148" rx="1.5" ry="1.5" opacity="0.74"/><rect class="accent" x="23.416666666666668" y="88.44444444444444" width="10.708333333333334" height="35.55555555555556" rx="1.5" ry="1.5" opacity="0.72"/><rect class="accent" x="35.125" y="105.03703703703704" width="10.708333333333334" height="18.962962962962962" rx="1.5" ry="1.5" opacity="0.64"/><rect class="accent" x="46.833333333333336" y="96.74074074074073" width="10.708333333333334" height="27.25925925925926" rx="1.5" ry="1.5" opacity="0.68"/><rect class="accent" x="58.54166666666667" y="95.55555555555556" width="10.708333333333334" height="28.444444444444443" rx="1.5" ry="1.5" opacity="0.68"/><rect class="accent" x="70.25" y="73.03703703703704" width="10.708333333333334" height="50.96296296296296" rx="1.5" ry="1.5" opacity="0.79"/><rect class="accent" x="81.95833333333334" y="92" width="10.708333333333334" height="32" rx="1.5" ry="1.5" opacity="0.70"/><rect class="accent" x="93.66666666666667" y="73.03703703703704" width="10.708333333333334" height="50.96296296296296" rx="1.5" ry="1.5" opacity="0.79"/><rect class="accent" x="105.375" y="55.25925925925927" width="10.708333333333334" height="68.74074074074073" rx="1.5" ry="1.5" opacity="0.87"/><rect class="accent" x="117.08333333333334" y="55.25925925925927" width="10.708333333333334" height="68.74074074074073" rx="1.5" ry="1.5" opacity="0.87"/><rect class="accent" x="128.79166666666669" y="73.03703703703704" width="10.708333333333334" height="50.96296296296296" rx="1.5" ry="1.5" opacity="0.79"/><rect class="accent" x="140.5" y="74.22222222222223" width="10.708333333333334" height="49.77777777777777" rx="1.5" ry="1.5" opacity="0.78"/><rect class="accent" x="152.20833333333334" y="73.03703703703704" width="10.708333333333334" height="50.96296296296296" rx="1.5" ry="1.5" opacity="0.79"/><rect class="accent" x="163.91666666666669" y="71.85185185185185" width="10.708333333333334" height="52.148148148148145" rx="1.5" ry="1.5" opacity="0.79"/><rect class="accent" x="175.625" y="75.4074074074074" width="10.708333333333334" height="48.592592592592595" rx="1.5" ry="1.5" opacity="0.78"/><rect class="accent" x="187.33333333333334" y="78.96296296296296" width="10.708333333333334" height="45.03703703703704" rx="1.5" ry="1.5" opacity="0.76"/><rect class="accent" x="199.04166666666669" y="60" width="10.708333333333334" height="64" rx="1.5" ry="1.5" opacity="0.85"/><rect class="accent" x="210.75" y="64.74074074074075" width="10.708333333333334" height="59.25925925925925" rx="1.5" ry="1.5" opacity="0.83"/><rect class="accent" x="222.45833333333334" y="45.777777777777786" width="10.708333333333334" height="78.22222222222221" rx="1.5" ry="1.5" opacity="0.92"/><rect class="accent" x="234.16666666666669" y="43.40740740740742" width="10.708333333333334" height="80.59259259259258" rx="1.5" ry="1.5" opacity="0.93"/><rect class="accent2" x="245.875" y="28" width="10.708333333333334" height="96" rx="1.5" ry="1.5" opacity="1.00"/><rect class="accent" x="257.58333333333337" y="43.40740740740742" width="10.708333333333334" height="80.59259259259258" rx="1.5" ry="1.5" opacity="0.93"/><rect class="accent" x="269.2916666666667" y="39.85185185185185" width="10.708333333333334" height="84.14814814814815" rx="1.5" ry="1.5" opacity="0.94"/><text class="muted" x="5.354166666666667" y="136" font-size="9" text-anchor="middle">00</text><text class="muted" x="75.60416666666667" y="136" font-size="9" text-anchor="middle">06</text><text class="muted" x="145.85416666666666" y="136" font-size="9" text-anchor="middle">12</text><text class="muted" x="216.10416666666666" y="136" font-size="9" text-anchor="middle">18</text><text class="muted" x="0" y="152" font-size="11">peak hour</text><text class="fg" x="280" y="152" font-size="12" text-anchor="end" font-weight="600">21:00 UTC</text></g>
  <g transform="translate(616, 290)"><text class="muted" x="0" y="14" font-size="11" letter-spacing="0.1em">MONTHLY CONTRIBUTIONS</text><text class="muted" x="280" y="14" font-size="9" text-anchor="end">last 12 months</text><rect class="accent2" x="0" y="123.33880422039859" width="19.666666666666668" height="0.6611957796014069" rx="2" ry="2" opacity="0.55"/><text class="muted" x="9.833333333333334" y="136" font-size="9" text-anchor="middle">J</text><rect class="accent2" x="23.666666666666668" y="123.88980070339977" width="19.666666666666668" height="0.11019929660023446" rx="2" ry="2" opacity="0.55"/><text class="muted" x="33.5" y="136" font-size="9" text-anchor="middle">J</text><rect class="accent2" x="47.333333333333336" y="123.33880422039859" width="19.666666666666668" height="0.6611957796014069" rx="2" ry="2" opacity="0.55"/><text class="muted" x="57.16666666666667" y="136" font-size="9" text-anchor="middle">A</text><rect class="accent2" x="71" y="123.44900351699883" width="19.666666666666668" height="0.5509964830011723" rx="2" ry="2" opacity="0.55"/><text class="muted" x="80.83333333333333" y="136" font-size="9" text-anchor="middle">S</text><rect class="accent2" x="94.66666666666667" y="124" width="19.666666666666668" height="0" rx="2" ry="2" opacity="0.55"/><text class="muted" x="104.5" y="136" font-size="9" text-anchor="middle">O</text><rect class="accent2" x="118.33333333333334" y="123.88980070339977" width="19.666666666666668" height="0.11019929660023446" rx="2" ry="2" opacity="0.55"/><text class="muted" x="128.16666666666669" y="136" font-size="9" text-anchor="middle">N</text><rect class="accent2" x="142" y="110.77608440797187" width="19.666666666666668" height="13.223915592028137" rx="2" ry="2" opacity="0.61"/><text class="muted" x="151.83333333333334" y="136" font-size="9" text-anchor="middle">D</text><rect class="accent2" x="165.66666666666669" y="109.23329425556858" width="19.666666666666668" height="14.76670574443142" rx="2" ry="2" opacity="0.62"/><text class="muted" x="175.50000000000003" y="136" font-size="9" text-anchor="middle">J</text><rect class="accent2" x="189.33333333333334" y="69.23094958968346" width="19.666666666666668" height="54.76905041031653" rx="2" ry="2" opacity="0.81"/><text class="muted" x="199.16666666666669" y="136" font-size="9" text-anchor="middle">F</text><rect class="accent2" x="213" y="30" width="19.666666666666668" height="94" rx="2" ry="2" opacity="1.00"/><text class="muted" x="222.83333333333334" y="136" font-size="9" text-anchor="middle">M</text><rect class="accent2" x="236.66666666666669" y="114.52286049237983" width="19.666666666666668" height="9.477139507620164" rx="2" ry="2" opacity="0.60"/><text class="muted" x="246.50000000000003" y="136" font-size="9" text-anchor="middle">A</text><rect class="accent2" x="260.33333333333337" y="120.14302461899179" width="19.666666666666668" height="3.856975381008206" rx="2" ry="2" opacity="0.57"/><text class="muted" x="270.1666666666667" y="136" font-size="9" text-anchor="middle">M</text><text class="muted" x="0" y="152" font-size="11">total</text><text class="fg" x="280" y="152" font-size="12" text-anchor="end" font-weight="600">1,744</text></g>
</svg>