<svg xmlns="http://www.w3.org/2000/svg" viewBox="0 0 952 1076" width="952" height="1076" role="img" aria-label="Jamminroot profile card">
  <style>
  text { font-family: -apple-system, BlinkMacSystemFont, "Segoe UI", Roboto, "Helvetica Neue", sans-serif; }
  .bg { fill: #ffffff; }
  .panel { fill: #f6f8fa; }
  .border { stroke: #d0d7de; }
  .fg { fill: #1f2328; }
  .muted { fill: #656d76; }
  .accent { fill: #0969da; }
  .accent2 { fill: #1f883d; }
  @media (prefers-color-scheme: dark) {
    .bg { fill: #0d1117; }
    .panel { fill: #161b22; }
    .border { stroke: #30363d; }
    .fg { fill: #e6edf3; }
    .muted { fill: #7d8590; }
    .accent { fill: #58a6ff; }
    .accent2 { fill: #3fb950; }
  }
</style>
  <rect class="bg" x="0" y="0" width="952" height="1076" rx="8" ry="8"/>
  <g transform="translate(24, 24)"><text class="fg" x="0" y="14" font-size="16" font-weight="700">Recent activity</text>
<text class="muted" x="600" y="14" font-size="10" text-anchor="end">updated 2026-05-09</text>
<text class="muted" x="0" y="32" font-size="12">Focused on personal and open-source projects including an n8n Telegram</text>
<text class="muted" x="0" y="50" font-size="12">integration, a Windows file-tagging utility, automated profile card</text>
<text class="muted" x="0" y="68" font-size="12">generation, and a Neovim IDE setup. Also built an image labeling tool</text>
<text class="muted" x="0" y="86" font-size="12">and</text>
<text class="accent" x="0" y="134" font-size="11" font-weight="600">2026 May</text>
<circle class="accent" cx="70" cy="130" r="4"/>
<text class="fg" x="86" y="154" font-size="13" font-weight="600">Profile card and CV generator</text>
<text class="muted" x="600" y="154" font-size="10" text-anchor="end">Jamminroot/Jamminroot</text>
<text class="muted" x="86" y="170" font-size="11">Developed an automated GitHub profile card and CV timeline</text>
<text class="muted" x="86" y="186" font-size="11">generator.</text>
<text class="fg" x="86" y="214" font-size="13" font-weight="600">Profile cards rendering</text>
<text class="muted" x="600" y="214" font-size="10" text-anchor="end">Jamminroot/jamminroot_profile_cards</text>
<text class="muted" x="86" y="230" font-size="11">Worked on combining sidebar cards and CV timeline into a single</text>
<text class="muted" x="86" y="246" font-size="11">profile SVG.</text>
<line class="border" x1="70" y1="134" x2="70" y2="258" stroke-width="1"/>
<text class="accent" x="0" y="286" font-size="11" font-weight="600">2026 Apr</text>
<circle class="accent" cx="70" cy="282" r="4"/>
<text class="fg" x="86" y="306" font-size="13" font-weight="600">Clash proxy fork maintenance</text>
<text class="muted" x="600" y="306" font-size="10" text-anchor="end">Jamminroot/Clash.Meta</text>
<text class="muted" x="86" y="322" font-size="11">Maintained a Clash proxy fork with XHTTP support for FlClash</text>
<text class="muted" x="86" y="338" font-size="11">compatibility.</text>
<line class="border" x1="70" y1="286" x2="70" y2="350" stroke-width="1"/>
<text class="accent" x="0" y="378" font-size="11" font-weight="600">2026 Feb</text>
<circle class="accent" cx="70" cy="374" r="4"/>
<text class="fg" x="86" y="398" font-size="13" font-weight="600">Telegram n8n node maintenance</text>
<text class="muted" x="600" y="398" font-size="10" text-anchor="end">Jamminroot/n8n-nodes-telepilot-2</text>
<text class="muted" x="86" y="414" font-size="11">Iterated on a Telegram integration node for n8n, adding triggers</text>
<text class="muted" x="86" y="430" font-size="11">and stabilizing CI.</text>
<text class="fg" x="86" y="458" font-size="13" font-weight="600">Windows file-tagging utility</text>
<text class="muted" x="600" y="458" font-size="10" text-anchor="end">Jamminroot/intag</text>
<text class="muted" x="86" y="474" font-size="11">Refined a Windows Explorer file-tagging tool with version 2</text>
<text class="muted" x="86" y="490" font-size="11">features and store release.</text>
<text class="fg" x="86" y="518" font-size="13" font-weight="600">Neovim development environment</text>
<text class="muted" x="600" y="518" font-size="10" text-anchor="end">Jamminroot/.dotfiles</text>
<text class="muted" x="86" y="534" font-size="11">Set up and maintained a personal Neovim configuration with LSP</text>
<text class="muted" x="86" y="550" font-size="11">and treesitter support.</text>
<text class="fg" x="86" y="578" font-size="13" font-weight="600">On-host image labeling tool</text>
<text class="muted" x="600" y="578" font-size="10" text-anchor="end">Jamminroot/yolo-labeler</text>
<text class="muted" x="86" y="594" font-size="11">Built a minimal, fast YOLO image labeling tool for personal use.</text>
<line class="border" x1="70" y1="378" x2="70" y2="606" stroke-width="1"/>
<text class="accent" x="0" y="634" font-size="11" font-weight="600">2026 Jan</text>
<circle class="accent" cx="70" cy="630" r="4"/>
<text class="fg" x="86" y="654" font-size="13" font-weight="600">n8n Telegram node improvements</text>
<text class="muted" x="600" y="654" font-size="10" text-anchor="end">Jamminroot/n8n-nodes-telepilot-2</text>
<text class="muted" x="86" y="670" font-size="11">Continued stability improvements on the Telegram n8n node.</text>
<text class="fg" x="86" y="698" font-size="13" font-weight="600">intag metadata and store preparation</text>
<text class="muted" x="600" y="698" font-size="10" text-anchor="end">Jamminroot/intag</text>
<text class="muted" x="86" y="714" font-size="11">Extended file-tagging utility with extra metadata support and</text>
<text class="muted" x="86" y="730" font-size="11">prepared for Microsoft Store submission.</text>
<line class="border" x1="70" y1="634" x2="70" y2="742" stroke-width="1"/>
<text class="accent" x="0" y="770" font-size="11" font-weight="600">2025</text>
<circle class="accent" cx="70" cy="766" r="4"/>
<text class="fg" x="86" y="790" font-size="13" font-weight="600">Telegram n8n node development</text>
<text class="muted" x="600" y="790" font-size="10" text-anchor="end">Jamminroot/n8n-nodes-telepilot-2</text>
<text class="muted" x="86" y="806" font-size="11">Built initial version of a Telegram integration node for n8n</text>
<text class="muted" x="86" y="822" font-size="11">with Docker and Alpine support.</text>
<text class="fg" x="86" y="850" font-size="13" font-weight="600">Personal repository updates</text>
<text class="muted" x="600" y="850" font-size="10" text-anchor="end">Jamminroot/Jamminroot</text>
<text class="muted" x="86" y="866" font-size="11">Maintained personal repository with documentation updates.</text>
<line class="border" x1="70" y1="770" x2="70" y2="878" stroke-width="1"/>
<text class="accent" x="0" y="906" font-size="11" font-weight="600">2024</text>
<circle class="accent" cx="70" cy="902" r="4"/>
<text class="fg" x="86" y="926" font-size="13" font-weight="600">Personal repository maintenance</text>
<text class="muted" x="600" y="926" font-size="10" text-anchor="end">Jamminroot/Jamminroot</text>
<text class="muted" x="86" y="942" font-size="11">Updated personal repository documentation.</text>
<text class="fg" x="86" y="970" font-size="13" font-weight="600">Windows file-tagging tool early work</text>
<text class="muted" x="600" y="970" font-size="10" text-anchor="end">Jamminroot/intag</text>
<text class="muted" x="86" y="986" font-size="11">Started development of a Windows Explorer file-tagging utility</text>
<text class="muted" x="86" y="1002" font-size="11">with CLI capabilities.</text>
<line class="border" x1="70" y1="906" x2="70" y2="1014" stroke-width="1"/></g>
  <g transform="translate(648, 24)"><text class="muted" x="0" y="14" font-size="10" letter-spacing="0.1em">LANGUAGES BY COMMIT</text><text class="fg" x="0" y="36" font-size="11">C#</text><text class="muted" x="280" y="36" font-size="10" text-anchor="end">1083 · 71%</text><rect class="panel" x="0" y="40" width="280" height="6" rx="3" ry="3"/><rect x="0" y="40" width="200.1990961045215" height="6" rx="3" ry="3" fill="#178600"/><text class="fg" x="0" y="64" font-size="11">C++</text><text class="muted" x="280" y="64" font-size="10" text-anchor="end">171 · 15%</text><rect class="panel" x="0" y="68" width="280" height="6" rx="3" ry="3"/><rect x="0" y="68" width="43.23260661864615" height="6" rx="3" ry="3" fill="#f34b7d"/><text class="fg" x="0" y="92" font-size="11">Python</text><text class="muted" x="280" y="92" font-size="10" text-anchor="end">279 · 6%</text><rect class="panel" x="0" y="96" width="280" height="6" rx="3" ry="3"/><rect x="0" y="96" width="16.967764302015173" height="6" rx="3" ry="3" fill="#3572A5"/><text class="fg" x="0" y="120" font-size="11">TypeScript</text><text class="muted" x="280" y="120" font-size="10" text-anchor="end">92 · 4%</text><rect class="panel" x="0" y="124" width="280" height="6" rx="3" ry="3"/><rect x="0" y="124" width="10.719721498100604" height="6" rx="3" ry="3" fill="#3178c6"/><text class="fg" x="0" y="148" font-size="11">Kotlin</text><text class="muted" x="280" y="148" font-size="10" text-anchor="end">75 · 2%</text><rect class="panel" x="0" y="152" width="280" height="6" rx="3" ry="3"/><rect x="0" y="152" width="6.679618385150202" height="6" rx="3" ry="3" fill="#A97BFF"/><text class="fg" x="0" y="176" font-size="11">C</text><text class="muted" x="280" y="176" font-size="10" text-anchor="end">17 · 1%</text><rect class="panel" x="0" y="180" width="280" height="6" rx="3" ry="3"/><rect x="0" y="180" width="2.201193091566369" height="6" rx="3" ry="3" fill="#555555"/></g>
  <g transform="translate(648, 236)"><text class="muted" x="0" y="14" font-size="10" letter-spacing="0.1em">COMMITS BY HOUR (UTC)</text><text class="muted" x="280" y="14" font-size="9" text-anchor="end">86 commits</text><rect class="accent" x="0" y="124" width="10.708333333333334" height="0" rx="1.5" ry="1.5" opacity="0.55"/><rect class="accent" x="11.708333333333334" y="124" width="10.708333333333334" height="0" rx="1.5" ry="1.5" opacity="0.55"/><rect class="accent" x="23.416666666666668" y="124" width="10.708333333333334" height="0" rx="1.5" ry="1.5" opacity="0.55"/><rect class="accent" x="35.125" y="124" width="10.708333333333334" height="0" rx="1.5" ry="1.5" opacity="0.55"/><rect class="accent" x="46.833333333333336" y="124" width="10.708333333333334" height="0" rx="1.5" ry="1.5" opacity="0.55"/><rect class="accent" x="58.54166666666667" y="76" width="10.708333333333334" height="48" rx="1.5" ry="1.5" opacity="0.78"/><rect class="accent" x="70.25" y="84" width="10.708333333333334" height="40" rx="1.5" ry="1.5" opacity="0.74"/><rect class="accent" x="81.95833333333334" y="84" width="10.708333333333334" height="40" rx="1.5" ry="1.5" opacity="0.74"/><rect class="accent" x="93.66666666666667" y="68" width="10.708333333333334" height="56" rx="1.5" ry="1.5" opacity="0.81"/><rect class="accent2" x="105.375" y="28" width="10.708333333333334" height="96" rx="1.5" ry="1.5" opacity="1.00"/><rect class="accent" x="117.08333333333334" y="100" width="10.708333333333334" height="24" rx="1.5" ry="1.5" opacity="0.66"/><rect class="accent" x="128.79166666666669" y="124" width="10.708333333333334" height="0" rx="1.5" ry="1.5" opacity="0.55"/><rect class="accent" x="140.5" y="92" width="10.708333333333334" height="32" rx="1.5" ry="1.5" opacity="0.70"/><rect class="accent" x="152.20833333333334" y="108" width="10.708333333333334" height="16" rx="1.5" ry="1.5" opacity="0.63"/><rect class="accent" x="163.91666666666669" y="76" width="10.708333333333334" height="48" rx="1.5" ry="1.5" opacity="0.78"/><rect class="accent" x="175.625" y="68" width="10.708333333333334" height="56" rx="1.5" ry="1.5" opacity="0.81"/><rect class="accent" x="187.33333333333334" y="84" width="10.708333333333334" height="40" rx="1.5" ry="1.5" opacity="0.74"/><rect class="accent" x="199.04166666666669" y="108" width="10.708333333333334" height="16" rx="1.5" ry="1.5" opacity="0.63"/><rect class="accent" x="210.75" y="68" width="10.708333333333334" height="56" rx="1.5" ry="1.5" opacity="0.81"/><rect class="accent" x="222.45833333333334" y="92" width="10.708333333333334" height="32" rx="1.5" ry="1.5" opacity="0.70"/><rect class="accent" x="234.16666666666669" y="116" width="10.708333333333334" height="8" rx="1.5" ry="1.5" opacity="0.59"/><rect class="accent" x="245.875" y="76" width="10.708333333333334" height="48" rx="1.5" ry="1.5" opacity="0.78"/><rect class="accent" x="257.58333333333337" y="92" width="10.708333333333334" height="32" rx="1.5" ry="1.5" opacity="0.70"/><rect class="accent" x="269.2916666666667" y="124" width="10.708333333333334" height="0" rx="1.5" ry="1.5" opacity="0.55"/><text class="muted" x="5.354166666666667" y="136" font-size="9" text-anchor="middle">00</text><text class="muted" x="75.60416666666667" y="136" font-size="9" text-anchor="middle">06</text><text class="muted" x="145.85416666666666" y="136" font-size="9" text-anchor="middle">12</text><text class="muted" x="216.10416666666666" y="136" font-size="9" text-anchor="middle">18</text><text class="muted" x="0" y="152" font-size="10">peak hour</text><text class="fg" x="280" y="152" font-size="11" text-anchor="end" font-weight="600">09:00 UTC</text></g>
  <g transform="translate(648, 422)"><text class="muted" x="0" y="14" font-size="10" letter-spacing="0.1em">MONTHLY CONTRIBUTIONS</text><text class="muted" x="280" y="14" font-size="9" text-anchor="end">last 12 months</text><rect class="accent2" x="0" y="113.40914419695193" width="19.666666666666668" height="0.5908558030480657" rx="2" ry="2" opacity="0.55"/><text class="muted" x="9.833333333333334" y="126" font-size="8" text-anchor="middle">J</text><rect class="accent2" x="23.666666666666668" y="113.90152403282532" width="19.666666666666668" height="0.0984759671746776" rx="2" ry="2" opacity="0.55"/><text class="muted" x="33.5" y="126" font-size="8" text-anchor="middle">J</text><rect class="accent2" x="47.333333333333336" y="113.40914419695193" width="19.666666666666668" height="0.5908558030480657" rx="2" ry="2" opacity="0.55"/><text class="muted" x="57.16666666666667" y="126" font-size="8" text-anchor="middle">A</text><rect class="accent2" x="71" y="113.5076201641266" width="19.666666666666668" height="0.49237983587338807" rx="2" ry="2" opacity="0.55"/><text class="muted" x="80.83333333333333" y="126" font-size="8" text-anchor="middle">S</text><rect class="accent2" x="94.66666666666667" y="114" width="19.666666666666668" height="0" rx="2" ry="2" opacity="0.55"/><text class="muted" x="104.5" y="126" font-size="8" text-anchor="middle">O</text><rect class="accent2" x="118.33333333333334" y="113.90152403282532" width="19.666666666666668" height="0.0984759671746776" rx="2" ry="2" opacity="0.55"/><text class="muted" x="128.16666666666669" y="126" font-size="8" text-anchor="middle">N</text><rect class="accent2" x="142" y="102.18288393903869" width="19.666666666666668" height="11.817116060961313" rx="2" ry="2" opacity="0.61"/><text class="muted" x="151.83333333333334" y="126" font-size="8" text-anchor="middle">D</text><rect class="accent2" x="165.66666666666669" y="100.8042203985932" width="19.666666666666668" height="13.1957796014068" rx="2" ry="2" opacity="0.62"/><text class="muted" x="175.50000000000003" y="126" font-size="8" text-anchor="middle">J</text><rect class="accent2" x="189.33333333333334" y="65.05744431418523" width="19.666666666666668" height="48.94255568581477" rx="2" ry="2" opacity="0.81"/><text class="muted" x="199.16666666666669" y="126" font-size="8" text-anchor="middle">F</text><rect class="accent2" x="213" y="30" width="19.666666666666668" height="84" rx="2" ry="2" opacity="1.00"/><text class="muted" x="222.83333333333334" y="126" font-size="8" text-anchor="middle">M</text><rect class="accent2" x="236.66666666666669" y="105.53106682297772" width="19.666666666666668" height="8.468933177022274" rx="2" ry="2" opacity="0.60"/><text class="muted" x="246.50000000000003" y="126" font-size="8" text-anchor="middle">A</text><rect class="accent2" x="260.33333333333337" y="111.63657678780774" width="19.666666666666668" height="2.363423212192263" rx="2" ry="2" opacity="0.56"/><text class="muted" x="270.1666666666667" y="126" font-size="8" text-anchor="middle">M</text><text class="muted" x="0" y="142" font-size="10">total</text><text class="fg" x="280" y="142" font-size="11" text-anchor="end" font-weight="600">1,733</text></g>
</svg>