<svg xmlns="http://www.w3.org/2000/svg" viewBox="0 0 952 1616" width="952" height="1616" role="img" aria-label="Jamminroot profile card">
  <style>
  text { font-family: -apple-system, BlinkMacSystemFont, "Segoe UI", Roboto, "Helvetica Neue", sans-serif; }
  .bg { fill: #ffffff; }
  .panel { fill: #f6f8fa; }
  .border { stroke: #d0d7de; }
  .fg { fill: #1f2328; }
  .muted { fill: #656d76; }
  .accent { fill: #0969da; }
  .accent2 { fill: #1f883d; }
  @media (prefers-color-scheme: dark) {
    .bg { fill: #0d1117; }
    .panel { fill: #161b22; }
    .border { stroke: #30363d; }
    .fg { fill: #e6edf3; }
    .muted { fill: #7d8590; }
    .accent { fill: #58a6ff; }
    .accent2 { fill: #3fb950; }
  }
</style>
  <rect class="bg" x="0" y="0" width="952" height="1616" rx="8" ry="8"/>
  <g transform="translate(24, 24)"><text class="fg" x="0" y="14" font-size="16" font-weight="700">Recent activity</text>
<text class="muted" x="600" y="14" font-size="10" text-anchor="end">updated 2026-05-10</text>
<text class="muted" x="0" y="32" font-size="12">Heavy focus on a SaaS crypto trading platform, alongside hardware</text>
<text class="muted" x="0" y="50" font-size="12">emulation firmware and several machine learning research projects. Also</text>
<text class="muted" x="0" y="68" font-size="12">maintained a Windows Explorer tagging utility and an Android LLM</text>
<text class="muted" x="0" y="86" font-size="12">assistant.</text>
<text class="accent" x="0" y="134" font-size="11" font-weight="600">2026 May</text>
<circle class="accent" cx="70" cy="130" r="4"/>
<text class="fg" x="86" y="154" font-size="13" font-weight="600">Profile README and CV automation</text>
<text class="muted" x="600" y="154" font-size="10" text-anchor="end">Jamminroot</text>
<text class="muted" x="86" y="170" font-size="11">Iterated on the personal profile README, refining the automated</text>
<text class="muted" x="86" y="186" font-size="11">CV generation workflow and repository display logic.</text>
<text class="fg" x="86" y="214" font-size="13" font-weight="600">Profile card generator updates</text>
<text class="muted" x="600" y="214" font-size="10" text-anchor="end">jamminroot_profile_cards</text>
<text class="muted" x="86" y="230" font-size="11">Worked on the custom profile card generator, combining cards and</text>
<text class="muted" x="86" y="246" font-size="11">syncing CV data for the automated timeline.</text>
<line class="border" x1="70" y1="134" x2="70" y2="258" stroke-width="1"/>
<text class="accent" x="0" y="286" font-size="11" font-weight="600">2026 Apr</text>
<circle class="accent" cx="70" cy="282" r="4"/>
<text class="fg" x="86" y="306" font-size="13" font-weight="600">SaaS crypto trading platform</text>
<text class="muted" x="600" y="306" font-size="10" text-anchor="end">summit</text>
<text class="muted" x="86" y="322" font-size="11">Continued development on the SaaS crypto algorithmic trading</text>
<text class="muted" x="86" y="338" font-size="11">platform with AI and neural network features.</text>
<text class="fg" x="86" y="366" font-size="13" font-weight="600">Proxy API for FlClash</text>
<text class="muted" x="600" y="366" font-size="10" text-anchor="end">Clash.Meta</text>
<text class="muted" x="86" y="382" font-size="11">Maintained a Mihomo fork, re-exposing proxy APIs for integration</text>
<text class="muted" x="86" y="398" font-size="11">with the FlClash client.</text>
<line class="border" x1="70" y1="286" x2="70" y2="410" stroke-width="1"/>
<text class="accent" x="0" y="438" font-size="11" font-weight="600">2026 Mar</text>
<circle class="accent" cx="70" cy="434" r="4"/>
<text class="fg" x="86" y="458" font-size="13" font-weight="600">SaaS crypto trading platform</text>
<text class="muted" x="600" y="458" font-size="10" text-anchor="end">summit</text>
<text class="muted" x="86" y="474" font-size="11">Continued development on the SaaS crypto algorithmic trading</text>
<text class="muted" x="86" y="490" font-size="11">platform with AI and neural network features.</text>
<line class="border" x1="70" y1="438" x2="70" y2="502" stroke-width="1"/>
<text class="accent" x="0" y="530" font-size="11" font-weight="600">2026 Feb</text>
<circle class="accent" cx="70" cy="526" r="4"/>
<text class="fg" x="86" y="550" font-size="13" font-weight="600">SaaS crypto trading platform</text>
<text class="muted" x="600" y="550" font-size="10" text-anchor="end">summit</text>
<text class="muted" x="86" y="566" font-size="11">Continued development on the SaaS crypto algorithmic trading</text>
<text class="muted" x="86" y="582" font-size="11">platform with AI and neural network features.</text>
<text class="fg" x="86" y="610" font-size="13" font-weight="600">Telegram automation node for n8n</text>
<text class="muted" x="600" y="610" font-size="10" text-anchor="end">n8n-nodes-telepilot-2</text>
<text class="muted" x="86" y="626" font-size="11">Maintained a fork of a Telegram automation node for n8n, working</text>
<text class="muted" x="86" y="642" font-size="11">on CI stability and new trigger features.</text>
<text class="fg" x="86" y="670" font-size="13" font-weight="600">Neovim development environment</text>
<text class="muted" x="600" y="670" font-size="10" text-anchor="end">.dotfiles</text>
<text class="muted" x="86" y="686" font-size="11">Polished a personal Neovim IDE setup, migrating to newer APIs</text>
<text class="muted" x="86" y="702" font-size="11">and improving remote session support.</text>
<text class="fg" x="86" y="730" font-size="13" font-weight="600">YOLO labeling tool</text>
<text class="muted" x="600" y="730" font-size="10" text-anchor="end">yolo-labeler</text>
<text class="muted" x="86" y="746" font-size="11">Built a minimalistic, on-host labeling tool for personal</text>
<text class="muted" x="86" y="762" font-size="11">computer vision projects.</text>
<text class="fg" x="86" y="790" font-size="13" font-weight="600">Windows Explorer file tagging</text>
<text class="muted" x="600" y="790" font-size="10" text-anchor="end">intag</text>
<text class="muted" x="86" y="806" font-size="11">Polished the Windows Explorer file and folder tagging utility,</text>
<text class="muted" x="86" y="822" font-size="11">preparing documentation and store assets.</text>
<line class="border" x1="70" y1="530" x2="70" y2="834" stroke-width="1"/>
<text class="accent" x="0" y="862" font-size="11" font-weight="600">2026 Jan</text>
<circle class="accent" cx="70" cy="858" r="4"/>
<text class="fg" x="86" y="882" font-size="13" font-weight="600">SaaS crypto trading platform</text>
<text class="muted" x="600" y="882" font-size="10" text-anchor="end">summit</text>
<text class="muted" x="86" y="898" font-size="11">Continued development on the SaaS crypto algorithmic trading</text>
<text class="muted" x="86" y="914" font-size="11">platform with AI and neural network features.</text>
<text class="fg" x="86" y="942" font-size="13" font-weight="600">Telegram automation node for n8n</text>
<text class="muted" x="600" y="942" font-size="10" text-anchor="end">n8n-nodes-telepilot-2</text>
<text class="muted" x="86" y="958" font-size="11">Iterated on a Telegram automation node fork, stabilizing session</text>
<text class="muted" x="86" y="974" font-size="11">storage and authentication.</text>
<text class="fg" x="86" y="1002" font-size="13" font-weight="600">Windows Explorer file tagging</text>
<text class="muted" x="600" y="1002" font-size="10" text-anchor="end">intag</text>
<text class="muted" x="86" y="1018" font-size="11">Prepared a major release of the Windows Explorer tagging</text>
<text class="muted" x="86" y="1034" font-size="11">utility, adding metadata support and store listing materials.</text>
<line class="border" x1="70" y1="862" x2="70" y2="1046" stroke-width="1"/>
<text class="accent" x="0" y="1074" font-size="11" font-weight="600">2025</text>
<circle class="accent" cx="70" cy="1070" r="4"/>
<text class="fg" x="86" y="1094" font-size="13" font-weight="600">SaaS crypto trading platform</text>
<text class="muted" x="600" y="1094" font-size="10" text-anchor="end">summit</text>
<text class="muted" x="86" y="1110" font-size="11">Worked extensively on the SaaS crypto algorithmic trading</text>
<text class="muted" x="86" y="1126" font-size="11">platform with AI and neural network features.</text>
<text class="fg" x="86" y="1154" font-size="13" font-weight="600">ESP32-S3 HID emulation firmware</text>
<text class="muted" x="600" y="1154" font-size="10" text-anchor="end">j-uni-hid</text>
<text class="muted" x="86" y="1170" font-size="11">Developed feature-rich mouse and keyboard emulation firmware for</text>
<text class="muted" x="86" y="1186" font-size="11">the ESP32-S3 microcontroller.</text>
<text class="fg" x="86" y="1214" font-size="13" font-weight="600">Crypto price prediction research</text>
<text class="muted" x="600" y="1214" font-size="10" text-anchor="end">crypto-model-research</text>
<text class="muted" x="86" y="1230" font-size="11">Conducted R&amp;D on cryptocurrency price prediction models.</text>
<text class="fg" x="86" y="1258" font-size="13" font-weight="600">Computer vision for online poker</text>
<text class="muted" x="600" y="1258" font-size="10" text-anchor="end">poker-cv</text>
<text class="muted" x="86" y="1274" font-size="11">Explored computer vision techniques for use on online poker</text>
<text class="muted" x="86" y="1290" font-size="11">platforms.</text>
<text class="fg" x="86" y="1318" font-size="13" font-weight="600">Windows Explorer tagging utility</text>
<text class="muted" x="600" y="1318" font-size="10" text-anchor="end">intag2</text>
<text class="muted" x="86" y="1334" font-size="11">Built a stylish Windows Explorer extension for assigning tags to</text>
<text class="muted" x="86" y="1350" font-size="11">files and folders.</text>
<text class="fg" x="86" y="1378" font-size="13" font-weight="600">Android LLM assistant</text>
<text class="muted" x="600" y="1378" font-size="10" text-anchor="end">ozwil-android</text>
<text class="muted" x="86" y="1394" font-size="11">Developed an Android LLM assistant with phone-use capabilities.</text>
<text class="fg" x="86" y="1422" font-size="13" font-weight="600">Freqtrade strategies</text>
<text class="muted" x="600" y="1422" font-size="10" text-anchor="end">freqtrade_startegies</text>
<text class="muted" x="86" y="1438" font-size="11">Worked on custom trading strategies for the Freqtrade framework.</text>
<text class="fg" x="86" y="1466" font-size="13" font-weight="600">Autonomous AI coding tool</text>
<text class="muted" x="600" y="1466" font-size="10" text-anchor="end">auto-claude</text>
<text class="muted" x="86" y="1482" font-size="11">Built an autonomous multi-session AI coding assistant.</text>
<text class="fg" x="86" y="1510" font-size="13" font-weight="600">CV and input emulation research</text>
<text class="muted" x="600" y="1510" font-size="10" text-anchor="end">MEMU3</text>
<text class="muted" x="86" y="1526" font-size="11">Explored computer vision, input emulation, and screen capture in</text>
<text class="muted" x="86" y="1542" font-size="11">a C++ research project.</text>
<line class="border" x1="70" y1="1074" x2="70" y2="1554" stroke-width="1"/></g>
  <g transform="translate(648, 24)"><text class="muted" x="0" y="14" font-size="10" letter-spacing="0.1em">LANGUAGES BY COMMIT</text><text class="fg" x="0" y="36" font-size="11">C#</text><text class="muted" x="280" y="36" font-size="10" text-anchor="end">614 · 57%</text><rect class="panel" x="0" y="40" width="280" height="6" rx="3" ry="3"/><rect x="0" y="40" width="160.66583503349523" height="6" rx="3" ry="3" fill="#178600"/><text class="fg" x="0" y="64" font-size="11">C++</text><text class="muted" x="280" y="64" font-size="10" text-anchor="end">171 · 23%</text><rect class="panel" x="0" y="68" width="280" height="6" rx="3" ry="3"/><rect x="0" y="68" width="64.49049672382294" height="6" rx="3" ry="3" fill="#f34b7d"/><text class="fg" x="0" y="92" font-size="11">Python</text><text class="muted" x="280" y="92" font-size="10" text-anchor="end">279 · 9%</text><rect class="panel" x="0" y="96" width="280" height="6" rx="3" ry="3"/><rect x="0" y="96" width="25.31097784091874" height="6" rx="3" ry="3" fill="#3572A5"/><text class="fg" x="0" y="120" font-size="11">TypeScript</text><text class="muted" x="280" y="120" font-size="10" text-anchor="end">95 · 6%</text><rect class="panel" x="0" y="124" width="280" height="6" rx="3" ry="3"/><rect x="0" y="124" width="16.28509817360763" height="6" rx="3" ry="3" fill="#3178c6"/><text class="fg" x="0" y="148" font-size="11">Kotlin</text><text class="muted" x="280" y="148" font-size="10" text-anchor="end">75 · 4%</text><rect class="panel" x="0" y="152" width="280" height="6" rx="3" ry="3"/><rect x="0" y="152" width="9.964051239929757" height="6" rx="3" ry="3" fill="#A97BFF"/><text class="fg" x="0" y="176" font-size="11">C</text><text class="muted" x="280" y="176" font-size="10" text-anchor="end">17 · 1%</text><rect class="panel" x="0" y="180" width="280" height="6" rx="3" ry="3"/><rect x="0" y="180" width="3.2835409882257074" height="6" rx="3" ry="3" fill="#555555"/></g>
  <g transform="translate(648, 236)"><text class="muted" x="0" y="14" font-size="10" letter-spacing="0.1em">COMMITS BY HOUR (UTC)</text><text class="muted" x="280" y="14" font-size="9" text-anchor="end">79 commits</text><rect class="accent" x="0" y="124" width="10.708333333333334" height="0" rx="1.5" ry="1.5" opacity="0.55"/><rect class="accent" x="11.708333333333334" y="124" width="10.708333333333334" height="0" rx="1.5" ry="1.5" opacity="0.55"/><rect class="accent" x="23.416666666666668" y="113.33333333333333" width="10.708333333333334" height="10.666666666666666" rx="1.5" ry="1.5" opacity="0.60"/><rect class="accent" x="35.125" y="124" width="10.708333333333334" height="0" rx="1.5" ry="1.5" opacity="0.55"/><rect class="accent" x="46.833333333333336" y="124" width="10.708333333333334" height="0" rx="1.5" ry="1.5" opacity="0.55"/><rect class="accent" x="58.54166666666667" y="60" width="10.708333333333334" height="64" rx="1.5" ry="1.5" opacity="0.85"/><rect class="accent" x="70.25" y="70.66666666666666" width="10.708333333333334" height="53.333333333333336" rx="1.5" ry="1.5" opacity="0.80"/><rect class="accent" x="81.95833333333334" y="70.66666666666666" width="10.708333333333334" height="53.333333333333336" rx="1.5" ry="1.5" opacity="0.80"/><rect class="accent" x="93.66666666666667" y="49.33333333333333" width="10.708333333333334" height="74.66666666666667" rx="1.5" ry="1.5" opacity="0.90"/><rect class="accent2" x="105.375" y="28" width="10.708333333333334" height="96" rx="1.5" ry="1.5" opacity="1.00"/><rect class="accent" x="117.08333333333334" y="113.33333333333333" width="10.708333333333334" height="10.666666666666666" rx="1.5" ry="1.5" opacity="0.60"/><rect class="accent" x="128.79166666666669" y="124" width="10.708333333333334" height="0" rx="1.5" ry="1.5" opacity="0.55"/><rect class="accent" x="140.5" y="81.33333333333334" width="10.708333333333334" height="42.666666666666664" rx="1.5" ry="1.5" opacity="0.75"/><rect class="accent" x="152.20833333333334" y="102.66666666666667" width="10.708333333333334" height="21.333333333333332" rx="1.5" ry="1.5" opacity="0.65"/><rect class="accent" x="163.91666666666669" y="60" width="10.708333333333334" height="64" rx="1.5" ry="1.5" opacity="0.85"/><rect class="accent" x="175.625" y="70.66666666666666" width="10.708333333333334" height="53.333333333333336" rx="1.5" ry="1.5" opacity="0.80"/><rect class="accent" x="187.33333333333334" y="60" width="10.708333333333334" height="64" rx="1.5" ry="1.5" opacity="0.85"/><rect class="accent" x="199.04166666666669" y="92" width="10.708333333333334" height="32" rx="1.5" ry="1.5" opacity="0.70"/><rect class="accent" x="210.75" y="70.66666666666666" width="10.708333333333334" height="53.333333333333336" rx="1.5" ry="1.5" opacity="0.80"/><rect class="accent" x="222.45833333333334" y="81.33333333333334" width="10.708333333333334" height="42.666666666666664" rx="1.5" ry="1.5" opacity="0.75"/><rect class="accent" x="234.16666666666669" y="113.33333333333333" width="10.708333333333334" height="10.666666666666666" rx="1.5" ry="1.5" opacity="0.60"/><rect class="accent" x="245.875" y="70.66666666666666" width="10.708333333333334" height="53.333333333333336" rx="1.5" ry="1.5" opacity="0.80"/><rect class="accent" x="257.58333333333337" y="81.33333333333334" width="10.708333333333334" height="42.666666666666664" rx="1.5" ry="1.5" opacity="0.75"/><rect class="accent" x="269.2916666666667" y="124" width="10.708333333333334" height="0" rx="1.5" ry="1.5" opacity="0.55"/><text class="muted" x="5.354166666666667" y="136" font-size="9" text-anchor="middle">00</text><text class="muted" x="75.60416666666667" y="136" font-size="9" text-anchor="middle">06</text><text class="muted" x="145.85416666666666" y="136" font-size="9" text-anchor="middle">12</text><text class="muted" x="216.10416666666666" y="136" font-size="9" text-anchor="middle">18</text><text class="muted" x="0" y="152" font-size="10">peak hour</text><text class="fg" x="280" y="152" font-size="11" text-anchor="end" font-weight="600">09:00 UTC</text></g>
  <g transform="translate(648, 422)"><text class="muted" x="0" y="14" font-size="10" letter-spacing="0.1em">MONTHLY CONTRIBUTIONS</text><text class="muted" x="280" y="14" font-size="9" text-anchor="end">last 12 months</text><rect class="accent2" x="0" y="113.40914419695193" width="19.666666666666668" height="0.5908558030480657" rx="2" ry="2" opacity="0.55"/><text class="muted" x="9.833333333333334" y="126" font-size="8" text-anchor="middle">J</text><rect class="accent2" x="23.666666666666668" y="113.90152403282532" width="19.666666666666668" height="0.0984759671746776" rx="2" ry="2" opacity="0.55"/><text class="muted" x="33.5" y="126" font-size="8" text-anchor="middle">J</text><rect class="accent2" x="47.333333333333336" y="113.40914419695193" width="19.666666666666668" height="0.5908558030480657" rx="2" ry="2" opacity="0.55"/><text class="muted" x="57.16666666666667" y="126" font-size="8" text-anchor="middle">A</text><rect class="accent2" x="71" y="113.5076201641266" width="19.666666666666668" height="0.49237983587338807" rx="2" ry="2" opacity="0.55"/><text class="muted" x="80.83333333333333" y="126" font-size="8" text-anchor="middle">S</text><rect class="accent2" x="94.66666666666667" y="114" width="19.666666666666668" height="0" rx="2" ry="2" opacity="0.55"/><text class="muted" x="104.5" y="126" font-size="8" text-anchor="middle">O</text><rect class="accent2" x="118.33333333333334" y="113.90152403282532" width="19.666666666666668" height="0.0984759671746776" rx="2" ry="2" opacity="0.55"/><text class="muted" x="128.16666666666669" y="126" font-size="8" text-anchor="middle">N</text><rect class="accent2" x="142" y="102.18288393903869" width="19.666666666666668" height="11.817116060961313" rx="2" ry="2" opacity="0.61"/><text class="muted" x="151.83333333333334" y="126" font-size="8" text-anchor="middle">D</text><rect class="accent2" x="165.66666666666669" y="100.8042203985932" width="19.666666666666668" height="13.1957796014068" rx="2" ry="2" opacity="0.62"/><text class="muted" x="175.50000000000003" y="126" font-size="8" text-anchor="middle">J</text><rect class="accent2" x="189.33333333333334" y="65.05744431418523" width="19.666666666666668" height="48.94255568581477" rx="2" ry="2" opacity="0.81"/><text class="muted" x="199.16666666666669" y="126" font-size="8" text-anchor="middle">F</text><rect class="accent2" x="213" y="30" width="19.666666666666668" height="84" rx="2" ry="2" opacity="1.00"/><text class="muted" x="222.83333333333334" y="126" font-size="8" text-anchor="middle">M</text><rect class="accent2" x="236.66666666666669" y="105.53106682297772" width="19.666666666666668" height="8.468933177022274" rx="2" ry="2" opacity="0.60"/><text class="muted" x="246.50000000000003" y="126" font-size="8" text-anchor="middle">A</text><rect class="accent2" x="260.33333333333337" y="111.3411488862837" width="19.666666666666668" height="2.6588511137162953" rx="2" ry="2" opacity="0.56"/><text class="muted" x="270.1666666666667" y="126" font-size="8" text-anchor="middle">M</text><text class="muted" x="0" y="142" font-size="10">total</text><text class="fg" x="280" y="142" font-size="11" text-anchor="end" font-weight="600">1,736</text></g>
</svg>