<svg xmlns="http://www.w3.org/2000/svg" viewBox="0 0 952 1560" width="952" height="1560" role="img" aria-label="Jamminroot profile card">
  <style>
  text { font-family: -apple-system, BlinkMacSystemFont, "Segoe UI", Roboto, "Helvetica Neue", sans-serif; }
  .bg { fill: #ffffff; }
  .panel { fill: #f6f8fa; }
  .border { stroke: #d0d7de; }
  .fg { fill: #1f2328; }
  .muted { fill: #656d76; }
  .accent { fill: #0969da; }
  .accent2 { fill: #1f883d; }
  @media (prefers-color-scheme: dark) {
    .bg { fill: #0d1117; }
    .panel { fill: #161b22; }
    .border { stroke: #30363d; }
    .fg { fill: #e6edf3; }
    .muted { fill: #7d8590; }
    .accent { fill: #58a6ff; }
    .accent2 { fill: #3fb950; }
  }
</style>
  <rect class="bg" x="0" y="0" width="952" height="1560" rx="8" ry="8"/>
  <g transform="translate(24, 24)"><text class="fg" x="0" y="14" font-size="16" font-weight="700">Recent activity</text>
<text class="muted" x="600" y="14" font-size="10" text-anchor="end">updated 2026-05-09</text>
<text class="muted" x="0" y="32" font-size="12">Focused on building and maintaining a crypto trading platform with AI</text>
<text class="muted" x="0" y="50" font-size="12">models, developing various utility tools (file tagging, HID firmware, CV</text>
<text class="muted" x="0" y="68" font-size="12">generation), and exploring AI/ML applications in trading, poker, and</text>
<text class="muted" x="0" y="86" font-size="12">personal</text>
<text class="accent" x="0" y="134" font-size="11" font-weight="600">2026 May</text>
<circle class="accent" cx="70" cy="130" r="4"/>
<text class="fg" x="86" y="154" font-size="13" font-weight="600">Profile card generator and CV automation</text>
<text class="muted" x="600" y="154" font-size="10" text-anchor="end">Jamminroot/Jamminroot</text>
<text class="muted" x="86" y="170" font-size="11">Built a custom GitHub profile CV workflow generator producing</text>
<text class="muted" x="86" y="186" font-size="11">timeline and sidebar cards.</text>
<text class="fg" x="86" y="214" font-size="13" font-weight="600">Profile card rendering engine</text>
<text class="muted" x="600" y="214" font-size="10" text-anchor="end">Jamminroot/jamminroot_profile_cards</text>
<text class="muted" x="86" y="230" font-size="11">Developed a card renderer that outputs combined profile SVG with</text>
<text class="muted" x="86" y="246" font-size="11">light/dark theme support.</text>
<text class="fg" x="86" y="274" font-size="13" font-weight="600">Crypto AI trading platform</text>
<text class="muted" x="600" y="274" font-size="10" text-anchor="end">Jamminroot/summit</text>
<text class="muted" x="86" y="290" font-size="11">Worked on a SaaS algorithmic crypto trading platform</text>
<text class="muted" x="86" y="306" font-size="11">incorporating AI and neural network models.</text>
<text class="fg" x="86" y="334" font-size="13" font-weight="600">Archived trading platform iteration</text>
<text class="muted" x="600" y="334" font-size="10" text-anchor="end">Jamminroot/summit-2-archive-use-reg…</text>
<text class="muted" x="86" y="350" font-size="11">Maintained an archive version of the crypto trading platform</text>
<text class="muted" x="86" y="366" font-size="11">with earlier model experiments.</text>
<line class="border" x1="70" y1="134" x2="70" y2="378" stroke-width="1"/>
<text class="accent" x="0" y="406" font-size="11" font-weight="600">2026 Apr</text>
<circle class="accent" cx="70" cy="402" r="4"/>
<text class="fg" x="86" y="426" font-size="13" font-weight="600">FlClash proxy fork</text>
<text class="muted" x="600" y="426" font-size="10" text-anchor="end">Jamminroot/Clash.Meta</text>
<text class="muted" x="86" y="442" font-size="11">Added XHTTP support to a Mihomo fork for the FlClash proxy</text>
<text class="muted" x="86" y="458" font-size="11">client.</text>
<text class="fg" x="86" y="486" font-size="13" font-weight="600">ESP32-S3 HID firmware</text>
<text class="muted" x="600" y="486" font-size="10" text-anchor="end">Jamminroot/j-uni-hid</text>
<text class="muted" x="86" y="502" font-size="11">Continued work on feature-rich mouse and keyboard emulation</text>
<text class="muted" x="86" y="518" font-size="11">firmware for ESP32-S3.</text>
<text class="fg" x="86" y="546" font-size="13" font-weight="600">Crypto price prediction modeling</text>
<text class="muted" x="600" y="546" font-size="10" text-anchor="end">Jamminroot/crypto-model-research</text>
<text class="muted" x="86" y="562" font-size="11">Researched and developed cryptocurrency price prediction models</text>
<text class="muted" x="86" y="578" font-size="11">in Python.</text>
<line class="border" x1="70" y1="406" x2="70" y2="590" stroke-width="1"/>
<text class="accent" x="0" y="618" font-size="11" font-weight="600">2026 Feb</text>
<circle class="accent" cx="70" cy="614" r="4"/>
<text class="fg" x="86" y="638" font-size="13" font-weight="600">TelePilot n8n node fork</text>
<text class="muted" x="600" y="638" font-size="10" text-anchor="end">Jamminroot/n8n-nodes-telepilot-2</text>
<text class="muted" x="86" y="654" font-size="11">Enhanced a Telegram automation node for n8n workflows, improving</text>
<text class="muted" x="86" y="670" font-size="11">session handling and CI stability.</text>
<text class="fg" x="86" y="698" font-size="13" font-weight="600">Windows file tagging utility</text>
<text class="muted" x="600" y="698" font-size="10" text-anchor="end">Jamminroot/intag</text>
<text class="muted" x="86" y="714" font-size="11">Polished and released v2 of the Windows Explorer file tagging</text>
<text class="muted" x="86" y="730" font-size="11">tool, adding metadata support and Store submission.</text>
<text class="fg" x="86" y="758" font-size="13" font-weight="600">Neovim IDE configuration</text>
<text class="muted" x="600" y="758" font-size="10" text-anchor="end">Jamminroot/.dotfiles</text>
<text class="muted" x="86" y="774" font-size="11">Maintained a personal Neovim setup with LSP, treesitter, and</text>
<text class="muted" x="86" y="790" font-size="11">remote session improvements.</text>
<text class="fg" x="86" y="818" font-size="13" font-weight="600">YOLO annotation tool</text>
<text class="muted" x="600" y="818" font-size="10" text-anchor="end">Jamminroot/yolo-labeler</text>
<text class="muted" x="86" y="834" font-size="11">Built a lightweight, browser-based YOLO image labeling utility</text>
<text class="muted" x="86" y="850" font-size="11">for personal projects.</text>
<line class="border" x1="70" y1="618" x2="70" y2="862" stroke-width="1"/>
<text class="accent" x="0" y="890" font-size="11" font-weight="600">2026 Jan</text>
<circle class="accent" cx="70" cy="886" r="4"/>
<text class="fg" x="86" y="910" font-size="13" font-weight="600">Windows file tagging utility release prep</text>
<text class="muted" x="600" y="910" font-size="10" text-anchor="end">Jamminroot/intag</text>
<text class="muted" x="86" y="926" font-size="11">Prepared v2 release of the Windows Explorer file tagging tool</text>
<text class="muted" x="86" y="942" font-size="11">for Microsoft Store submission.</text>
<text class="fg" x="86" y="970" font-size="13" font-weight="600">Android LLM assistant</text>
<text class="muted" x="600" y="970" font-size="10" text-anchor="end">Jamminroot/ozwil-android</text>
<text class="muted" x="86" y="986" font-size="11">Worked on an Android assistant using large language models with</text>
<text class="muted" x="86" y="1002" font-size="11">on-device phone interaction capabilities.</text>
<text class="fg" x="86" y="1030" font-size="13" font-weight="600">AI coding agent</text>
<text class="muted" x="600" y="1030" font-size="10" text-anchor="end">Jamminroot/auto-claude</text>
<text class="muted" x="86" y="1046" font-size="11">Built an autonomous multi-session AI coding tool for iterative</text>
<text class="muted" x="86" y="1062" font-size="11">development.</text>
<text class="fg" x="86" y="1090" font-size="13" font-weight="600">Freqtrade trading strategies</text>
<text class="muted" x="600" y="1090" font-size="10" text-anchor="end">Jamminroot/freqtrade_startegies</text>
<text class="muted" x="86" y="1106" font-size="11">Developed custom algorithmic trading strategies for the</text>
<text class="muted" x="86" y="1122" font-size="11">Freqtrade bot framework.</text>
<line class="border" x1="70" y1="890" x2="70" y2="1134" stroke-width="1"/>
<text class="accent" x="0" y="1162" font-size="11" font-weight="600">2025</text>
<circle class="accent" cx="70" cy="1158" r="4"/>
<text class="fg" x="86" y="1182" font-size="13" font-weight="600">TelePilot n8n node integration</text>
<text class="muted" x="600" y="1182" font-size="10" text-anchor="end">Jamminroot/n8n-nodes-telepilot-2</text>
<text class="muted" x="86" y="1198" font-size="11">Started the TelePilot2 n8n integration project with Docker</text>
<text class="muted" x="86" y="1214" font-size="11">deployment and session management.</text>
<text class="fg" x="86" y="1242" font-size="13" font-weight="600">Poker computer vision experiments</text>
<text class="muted" x="600" y="1242" font-size="10" text-anchor="end">Jamminroot/poker-cv</text>
<text class="muted" x="86" y="1258" font-size="11">Explored computer vision techniques for analyzing online poker</text>
<text class="muted" x="86" y="1274" font-size="11">platform interactions.</text>
<text class="fg" x="86" y="1302" font-size="13" font-weight="600">Windows Explorer tagging utility v2</text>
<text class="muted" x="600" y="1302" font-size="10" text-anchor="end">Jamminroot/intag2</text>
<text class="muted" x="86" y="1318" font-size="11">Worked on an enhanced version of the Windows file tagging tool</text>
<text class="muted" x="86" y="1334" font-size="11">with a polished UI and style improvements.</text>
<line class="border" x1="70" y1="1162" x2="70" y2="1346" stroke-width="1"/>
<text class="accent" x="0" y="1374" font-size="11" font-weight="600">2024</text>
<circle class="accent" cx="70" cy="1370" r="4"/>
<text class="fg" x="86" y="1394" font-size="13" font-weight="600">GitHub profile setup</text>
<text class="muted" x="600" y="1394" font-size="10" text-anchor="end">Jamminroot/Jamminroot</text>
<text class="muted" x="86" y="1410" font-size="11">Set up initial personal GitHub profile README with introductory</text>
<text class="muted" x="86" y="1426" font-size="11">content.</text>
<text class="fg" x="86" y="1454" font-size="13" font-weight="600">Windows file tagging utility launch</text>
<text class="muted" x="600" y="1454" font-size="10" text-anchor="end">Jamminroot/intag</text>
<text class="muted" x="86" y="1470" font-size="11">Released the first version of the Windows Explorer tagging tool</text>
<text class="muted" x="86" y="1486" font-size="11">with CLI and graphical interface.</text>
<line class="border" x1="70" y1="1374" x2="70" y2="1498" stroke-width="1"/></g>
  <g transform="translate(648, 24)"><text class="muted" x="0" y="14" font-size="10" letter-spacing="0.1em">LANGUAGES BY COMMIT</text><text class="fg" x="0" y="36" font-size="11">C#</text><text class="muted" x="280" y="36" font-size="10" text-anchor="end">1083 · 71%</text><rect class="panel" x="0" y="40" width="280" height="6" rx="3" ry="3"/><rect x="0" y="40" width="200.10366651116436" height="6" rx="3" ry="3" fill="#178600"/><text class="fg" x="0" y="64" font-size="11">C++</text><text class="muted" x="280" y="64" font-size="10" text-anchor="end">171 · 15%</text><rect class="panel" x="0" y="68" width="280" height="6" rx="3" ry="3"/><rect x="0" y="68" width="43.21199878299822" height="6" rx="3" ry="3" fill="#f34b7d"/><text class="fg" x="0" y="92" font-size="11">Python</text><text class="muted" x="280" y="92" font-size="10" text-anchor="end">279 · 6%</text><rect class="panel" x="0" y="96" width="280" height="6" rx="3" ry="3"/><rect x="0" y="96" width="16.95967621930637" height="6" rx="3" ry="3" fill="#3572A5"/><text class="fg" x="0" y="120" font-size="11">TypeScript</text><text class="muted" x="280" y="120" font-size="10" text-anchor="end">94 · 4%</text><rect class="panel" x="0" y="124" width="280" height="6" rx="3" ry="3"/><rect x="0" y="124" width="10.848080256839017" height="6" rx="3" ry="3" fill="#3178c6"/><text class="fg" x="0" y="148" font-size="11">Kotlin</text><text class="muted" x="280" y="148" font-size="10" text-anchor="end">75 · 2%</text><rect class="panel" x="0" y="152" width="280" height="6" rx="3" ry="3"/><rect x="0" y="152" width="6.676434388425548" height="6" rx="3" ry="3" fill="#A97BFF"/><text class="fg" x="0" y="176" font-size="11">C</text><text class="muted" x="280" y="176" font-size="10" text-anchor="end">17 · 1%</text><rect class="panel" x="0" y="180" width="280" height="6" rx="3" ry="3"/><rect x="0" y="180" width="2.200143841266463" height="6" rx="3" ry="3" fill="#555555"/></g>
  <g transform="translate(648, 236)"><text class="muted" x="0" y="14" font-size="10" letter-spacing="0.1em">COMMITS BY HOUR (UTC)</text><text class="muted" x="280" y="14" font-size="9" text-anchor="end">88 commits</text><rect class="accent" x="0" y="124" width="10.708333333333334" height="0" rx="1.5" ry="1.5" opacity="0.55"/><rect class="accent" x="11.708333333333334" y="124" width="10.708333333333334" height="0" rx="1.5" ry="1.5" opacity="0.55"/><rect class="accent" x="23.416666666666668" y="124" width="10.708333333333334" height="0" rx="1.5" ry="1.5" opacity="0.55"/><rect class="accent" x="35.125" y="124" width="10.708333333333334" height="0" rx="1.5" ry="1.5" opacity="0.55"/><rect class="accent" x="46.833333333333336" y="124" width="10.708333333333334" height="0" rx="1.5" ry="1.5" opacity="0.55"/><rect class="accent" x="58.54166666666667" y="76" width="10.708333333333334" height="48" rx="1.5" ry="1.5" opacity="0.78"/><rect class="accent" x="70.25" y="84" width="10.708333333333334" height="40" rx="1.5" ry="1.5" opacity="0.74"/><rect class="accent" x="81.95833333333334" y="84" width="10.708333333333334" height="40" rx="1.5" ry="1.5" opacity="0.74"/><rect class="accent" x="93.66666666666667" y="68" width="10.708333333333334" height="56" rx="1.5" ry="1.5" opacity="0.81"/><rect class="accent2" x="105.375" y="28" width="10.708333333333334" height="96" rx="1.5" ry="1.5" opacity="1.00"/><rect class="accent" x="117.08333333333334" y="100" width="10.708333333333334" height="24" rx="1.5" ry="1.5" opacity="0.66"/><rect class="accent" x="128.79166666666669" y="124" width="10.708333333333334" height="0" rx="1.5" ry="1.5" opacity="0.55"/><rect class="accent" x="140.5" y="92" width="10.708333333333334" height="32" rx="1.5" ry="1.5" opacity="0.70"/><rect class="accent" x="152.20833333333334" y="108" width="10.708333333333334" height="16" rx="1.5" ry="1.5" opacity="0.63"/><rect class="accent" x="163.91666666666669" y="76" width="10.708333333333334" height="48" rx="1.5" ry="1.5" opacity="0.78"/><rect class="accent" x="175.625" y="68" width="10.708333333333334" height="56" rx="1.5" ry="1.5" opacity="0.81"/><rect class="accent" x="187.33333333333334" y="76" width="10.708333333333334" height="48" rx="1.5" ry="1.5" opacity="0.78"/><rect class="accent" x="199.04166666666669" y="100" width="10.708333333333334" height="24" rx="1.5" ry="1.5" opacity="0.66"/><rect class="accent" x="210.75" y="68" width="10.708333333333334" height="56" rx="1.5" ry="1.5" opacity="0.81"/><rect class="accent" x="222.45833333333334" y="92" width="10.708333333333334" height="32" rx="1.5" ry="1.5" opacity="0.70"/><rect class="accent" x="234.16666666666669" y="116" width="10.708333333333334" height="8" rx="1.5" ry="1.5" opacity="0.59"/><rect class="accent" x="245.875" y="76" width="10.708333333333334" height="48" rx="1.5" ry="1.5" opacity="0.78"/><rect class="accent" x="257.58333333333337" y="92" width="10.708333333333334" height="32" rx="1.5" ry="1.5" opacity="0.70"/><rect class="accent" x="269.2916666666667" y="124" width="10.708333333333334" height="0" rx="1.5" ry="1.5" opacity="0.55"/><text class="muted" x="5.354166666666667" y="136" font-size="9" text-anchor="middle">00</text><text class="muted" x="75.60416666666667" y="136" font-size="9" text-anchor="middle">06</text><text class="muted" x="145.85416666666666" y="136" font-size="9" text-anchor="middle">12</text><text class="muted" x="216.10416666666666" y="136" font-size="9" text-anchor="middle">18</text><text class="muted" x="0" y="152" font-size="10">peak hour</text><text class="fg" x="280" y="152" font-size="11" text-anchor="end" font-weight="600">09:00 UTC</text></g>
  <g transform="translate(648, 422)"><text class="muted" x="0" y="14" font-size="10" letter-spacing="0.1em">MONTHLY CONTRIBUTIONS</text><text class="muted" x="280" y="14" font-size="9" text-anchor="end">last 12 months</text><rect class="accent2" x="0" y="113.40914419695193" width="19.666666666666668" height="0.5908558030480657" rx="2" ry="2" opacity="0.55"/><text class="muted" x="9.833333333333334" y="126" font-size="8" text-anchor="middle">J</text><rect class="accent2" x="23.666666666666668" y="113.90152403282532" width="19.666666666666668" height="0.0984759671746776" rx="2" ry="2" opacity="0.55"/><text class="muted" x="33.5" y="126" font-size="8" text-anchor="middle">J</text><rect class="accent2" x="47.333333333333336" y="113.40914419695193" width="19.666666666666668" height="0.5908558030480657" rx="2" ry="2" opacity="0.55"/><text class="muted" x="57.16666666666667" y="126" font-size="8" text-anchor="middle">A</text><rect class="accent2" x="71" y="113.5076201641266" width="19.666666666666668" height="0.49237983587338807" rx="2" ry="2" opacity="0.55"/><text class="muted" x="80.83333333333333" y="126" font-size="8" text-anchor="middle">S</text><rect class="accent2" x="94.66666666666667" y="114" width="19.666666666666668" height="0" rx="2" ry="2" opacity="0.55"/><text class="muted" x="104.5" y="126" font-size="8" text-anchor="middle">O</text><rect class="accent2" x="118.33333333333334" y="113.90152403282532" width="19.666666666666668" height="0.0984759671746776" rx="2" ry="2" opacity="0.55"/><text class="muted" x="128.16666666666669" y="126" font-size="8" text-anchor="middle">N</text><rect class="accent2" x="142" y="102.18288393903869" width="19.666666666666668" height="11.817116060961313" rx="2" ry="2" opacity="0.61"/><text class="muted" x="151.83333333333334" y="126" font-size="8" text-anchor="middle">D</text><rect class="accent2" x="165.66666666666669" y="100.8042203985932" width="19.666666666666668" height="13.1957796014068" rx="2" ry="2" opacity="0.62"/><text class="muted" x="175.50000000000003" y="126" font-size="8" text-anchor="middle">J</text><rect class="accent2" x="189.33333333333334" y="65.05744431418523" width="19.666666666666668" height="48.94255568581477" rx="2" ry="2" opacity="0.81"/><text class="muted" x="199.16666666666669" y="126" font-size="8" text-anchor="middle">F</text><rect class="accent2" x="213" y="30" width="19.666666666666668" height="84" rx="2" ry="2" opacity="1.00"/><text class="muted" x="222.83333333333334" y="126" font-size="8" text-anchor="middle">M</text><rect class="accent2" x="236.66666666666669" y="105.53106682297772" width="19.666666666666668" height="8.468933177022274" rx="2" ry="2" opacity="0.60"/><text class="muted" x="246.50000000000003" y="126" font-size="8" text-anchor="middle">A</text><rect class="accent2" x="260.33333333333337" y="111.43962485345838" width="19.666666666666668" height="2.5603751465416176" rx="2" ry="2" opacity="0.56"/><text class="muted" x="270.1666666666667" y="126" font-size="8" text-anchor="middle">M</text><text class="muted" x="0" y="142" font-size="10">total</text><text class="fg" x="280" y="142" font-size="11" text-anchor="end" font-weight="600">1,735</text></g>
</svg>