<svg xmlns="http://www.w3.org/2000/svg" viewBox="0 0 920 680" width="920" height="680" role="img" aria-label="Jamminroot project cards">
  <style>
  text { font-family: -apple-system, BlinkMacSystemFont, "Segoe UI", Roboto, "Helvetica Neue", sans-serif; }
  .bg { fill: #ffffff; }
  .panel { fill: #f6f8fa; }
  .border { stroke: #d0d7de; }
  .fg { fill: #1f2328; }
  .muted { fill: #656d76; }
  .accent { fill: #0969da; }
  .accent2 { fill: #1f883d; }
  .work { fill: #6b21a8; }
  @media (prefers-color-scheme: dark) {
    .bg { fill: #0d1117; }
    .panel { fill: #161b22; }
    .border { stroke: #30363d; }
    .fg { fill: #e6edf3; }
    .muted { fill: #7d8590; }
    .accent { fill: #58a6ff; }
    .accent2 { fill: #3fb950; }
    .work { fill: #a855f7; }
  }
</style>
  <rect class="bg" x="0" y="0" width="920" height="680" rx="8" ry="8"/>
  <rect class="panel" x="24" y="24" width="280" height="200" rx="8" ry="8"/><rect class="border" x="24.5" y="24.5" width="279" height="199" rx="8" ry="8" fill="none"/><text class="fg" x="38" y="50" font-size="14" font-weight="700">summit</text><circle cx="230" cy="46" r="4" fill="#178600"/><text class="muted" x="240" y="50" font-size="10">C#</text><text class="accent" x="38" y="74" font-size="12" font-weight="600">Crypto trading platform rewrite</text><text class="muted" x="38" y="96" font-size="11">SaaS crypto algo trading platform with an</text><text class="muted" x="38" y="110" font-size="11">AI and NN twists</text><path d="M 38.00 196.00 L 42.94 196.00 L 47.88 196.00 L 52.82 196.00 L 57.76 196.00 L 62.71 196.00 L 67.65 196.00 L 72.59 196.00 L 77.53 196.00 L 82.47 196.00 L 87.41 196.00 L 92.35 196.00 L 97.29 196.00 L 102.24 196.00 L 107.18 196.00 L 112.12 196.00 L 117.06 196.00 L 122.00 196.00 L 126.94 196.00 L 131.88 196.00 L 136.82 196.00 L 141.76 196.00 L 146.71 196.00 L 151.65 196.00 L 156.59 196.00 L 161.53 196.00 L 166.47 196.00 L 171.41 196.00 L 176.35 196.00 L 181.29 196.00 L 186.24 196.00 L 191.18 196.00 L 196.12 196.00 L 201.06 196.00 L 206.00 196.00 L 210.94 196.00 L 215.88 196.00 L 220.82 196.00 L 225.76 196.00 L 230.71 196.00 L 235.65 196.00 L 240.59 196.00 L 245.53 196.00 L 250.47 196.00 L 255.41 196.00 L 260.35 196.00 L 265.29 196.00 L 270.24 186.67 L 275.18 164.00 L 280.12 192.00 L 285.06 194.67 L 290.00 196.00 L 290.00 196 L 38.00 196 Z" fill="#178600" opacity="0.18"/><path d="M 38.00 196.00 L 42.94 196.00 L 47.88 196.00 L 52.82 196.00 L 57.76 196.00 L 62.71 196.00 L 67.65 196.00 L 72.59 196.00 L 77.53 196.00 L 82.47 196.00 L 87.41 196.00 L 92.35 196.00 L 97.29 196.00 L 102.24 196.00 L 107.18 196.00 L 112.12 196.00 L 117.06 196.00 L 122.00 196.00 L 126.94 196.00 L 131.88 196.00 L 136.82 196.00 L 141.76 196.00 L 146.71 196.00 L 151.65 196.00 L 156.59 196.00 L 161.53 196.00 L 166.47 196.00 L 171.41 196.00 L 176.35 196.00 L 181.29 196.00 L 186.24 196.00 L 191.18 196.00 L 196.12 196.00 L 201.06 196.00 L 206.00 196.00 L 210.94 196.00 L 215.88 196.00 L 220.82 196.00 L 225.76 196.00 L 230.71 196.00 L 235.65 196.00 L 240.59 196.00 L 245.53 196.00 L 250.47 196.00 L 255.41 196.00 L 260.35 196.00 L 265.29 196.00 L 270.24 186.67 L 275.18 164.00 L 280.12 192.00 L 285.06 194.67 L 290.00 196.00" stroke="#178600" stroke-width="1.5" fill="none" stroke-linecap="round" stroke-linejoin="round"/><text class="muted" x="38" y="210" font-size="9">last 12 months · 35 commits</text>
  <rect class="panel" x="320" y="24" width="280" height="200" rx="8" ry="8"/><rect class="border" x="320.5" y="24.5" width="279" height="199" rx="8" ry="8" fill="none"/><text class="fg" x="334" y="50" font-size="14" font-weight="700">j-uni-hid</text><circle cx="526" cy="46" r="4" fill="#f34b7d"/><text class="muted" x="536" y="50" font-size="10">C++</text><text class="accent" x="334" y="74" font-size="12" font-weight="600">ESP32-S3 firmware iteration</text><text class="muted" x="334" y="96" font-size="11">Feature-rich mouse and keyboard emulation</text><text class="muted" x="334" y="110" font-size="11">firmware for ESP32-S3</text><path d="M 334.00 196.00 L 338.94 196.00 L 343.88 196.00 L 348.82 196.00 L 353.76 196.00 L 358.71 196.00 L 363.65 196.00 L 368.59 196.00 L 373.53 196.00 L 378.47 196.00 L 383.41 196.00 L 388.35 196.00 L 393.29 196.00 L 398.24 196.00 L 403.18 196.00 L 408.12 196.00 L 413.06 196.00 L 418.00 196.00 L 422.94 196.00 L 427.88 196.00 L 432.82 196.00 L 437.76 196.00 L 442.71 196.00 L 447.65 196.00 L 452.59 196.00 L 457.53 196.00 L 462.47 196.00 L 467.41 196.00 L 472.35 196.00 L 477.29 196.00 L 482.24 164.00 L 487.18 181.07 L 492.12 196.00 L 497.06 196.00 L 502.00 196.00 L 506.94 195.29 L 511.88 196.00 L 516.82 196.00 L 521.76 196.00 L 526.71 196.00 L 531.65 196.00 L 536.59 196.00 L 541.53 196.00 L 546.47 195.29 L 551.41 196.00 L 556.35 196.00 L 561.29 194.58 L 566.24 196.00 L 571.18 196.00 L 576.12 196.00 L 581.06 196.00 L 586.00 196.00 L 586.00 196 L 334.00 196 Z" fill="#f34b7d" opacity="0.18"/><path d="M 334.00 196.00 L 338.94 196.00 L 343.88 196.00 L 348.82 196.00 L 353.76 196.00 L 358.71 196.00 L 363.65 196.00 L 368.59 196.00 L 373.53 196.00 L 378.47 196.00 L 383.41 196.00 L 388.35 196.00 L 393.29 196.00 L 398.24 196.00 L 403.18 196.00 L 408.12 196.00 L 413.06 196.00 L 418.00 196.00 L 422.94 196.00 L 427.88 196.00 L 432.82 196.00 L 437.76 196.00 L 442.71 196.00 L 447.65 196.00 L 452.59 196.00 L 457.53 196.00 L 462.47 196.00 L 467.41 196.00 L 472.35 196.00 L 477.29 196.00 L 482.24 164.00 L 487.18 181.07 L 492.12 196.00 L 497.06 196.00 L 502.00 196.00 L 506.94 195.29 L 511.88 196.00 L 516.82 196.00 L 521.76 196.00 L 526.71 196.00 L 531.65 196.00 L 536.59 196.00 L 541.53 196.00 L 546.47 195.29 L 551.41 196.00 L 556.35 196.00 L 561.29 194.58 L 566.24 196.00 L 571.18 196.00 L 576.12 196.00 L 581.06 196.00 L 586.00 196.00" stroke="#f34b7d" stroke-width="1.5" fill="none" stroke-linecap="round" stroke-linejoin="round"/><text class="muted" x="334" y="210" font-size="9">last 12 months · 70 commits</text>
  <rect class="panel" x="616" y="24" width="280" height="200" rx="8" ry="8"/><rect class="border" x="616.5" y="24.5" width="279" height="199" rx="8" ry="8" fill="none"/><text class="fg" x="630" y="50" font-size="14" font-weight="700">input-driver</text><circle cx="822" cy="46" r="4" fill="#555555"/><text class="muted" x="832" y="50" font-size="10">C</text><text class="accent" x="630" y="74" font-size="12" font-weight="600">Windows input filter driver</text><text class="accent" x="630" y="90" font-size="12" font-weight="600">development</text><text class="muted" x="630" y="112" font-size="11">Interception-like windows (WDK) input</text><text class="muted" x="630" y="126" font-size="11">filter/injection driver</text><path d="M 630.00 196.00 L 634.94 196.00 L 639.88 196.00 L 644.82 196.00 L 649.76 196.00 L 654.71 196.00 L 659.65 196.00 L 664.59 196.00 L 669.53 196.00 L 674.47 196.00 L 679.41 196.00 L 684.35 196.00 L 689.29 196.00 L 694.24 196.00 L 699.18 196.00 L 704.12 196.00 L 709.06 196.00 L 714.00 196.00 L 718.94 196.00 L 723.88 196.00 L 728.82 196.00 L 733.76 196.00 L 738.71 196.00 L 743.65 196.00 L 748.59 196.00 L 753.53 196.00 L 758.47 196.00 L 763.41 196.00 L 768.35 196.00 L 773.29 196.00 L 778.24 196.00 L 783.18 196.00 L 788.12 196.00 L 793.06 196.00 L 798.00 196.00 L 802.94 196.00 L 807.88 196.00 L 812.82 196.00 L 817.76 196.00 L 822.71 196.00 L 827.65 196.00 L 832.59 196.00 L 837.53 196.00 L 842.47 196.00 L 847.41 196.00 L 852.35 196.00 L 857.29 196.00 L 862.24 196.00 L 867.18 196.00 L 872.12 196.00 L 877.06 196.00 L 882.00 164.00 L 882.00 196 L 630.00 196 Z" fill="#555555" opacity="0.18"/><path d="M 630.00 196.00 L 634.94 196.00 L 639.88 196.00 L 644.82 196.00 L 649.76 196.00 L 654.71 196.00 L 659.65 196.00 L 664.59 196.00 L 669.53 196.00 L 674.47 196.00 L 679.41 196.00 L 684.35 196.00 L 689.29 196.00 L 694.24 196.00 L 699.18 196.00 L 704.12 196.00 L 709.06 196.00 L 714.00 196.00 L 718.94 196.00 L 723.88 196.00 L 728.82 196.00 L 733.76 196.00 L 738.71 196.00 L 743.65 196.00 L 748.59 196.00 L 753.53 196.00 L 758.47 196.00 L 763.41 196.00 L 768.35 196.00 L 773.29 196.00 L 778.24 196.00 L 783.18 196.00 L 788.12 196.00 L 793.06 196.00 L 798.00 196.00 L 802.94 196.00 L 807.88 196.00 L 812.82 196.00 L 817.76 196.00 L 822.71 196.00 L 827.65 196.00 L 832.59 196.00 L 837.53 196.00 L 842.47 196.00 L 847.41 196.00 L 852.35 196.00 L 857.29 196.00 L 862.24 196.00 L 867.18 196.00 L 872.12 196.00 L 877.06 196.00 L 882.00 164.00" stroke="#555555" stroke-width="1.5" fill="none" stroke-linecap="round" stroke-linejoin="round"/><text class="muted" x="630" y="210" font-size="9">last 12 months · 8 commits</text>
  <rect class="panel" x="24" y="240" width="280" height="200" rx="8" ry="8"/><rect class="border" x="24.5" y="240.5" width="279" height="199" rx="8" ry="8" fill="none"/><text class="fg" x="38" y="266" font-size="14" font-weight="700">crypto-model-research</text><circle cx="230" cy="262" r="4" fill="#3572A5"/><text class="muted" x="240" y="266" font-size="10">Python</text><text class="accent" x="38" y="290" font-size="12" font-weight="600">Crypto price prediction research</text><text class="muted" x="38" y="312" font-size="11">RnD project with crypto price prediction</text><text class="muted" x="38" y="326" font-size="11">model</text><path d="M 38.00 412.00 L 42.94 412.00 L 47.88 412.00 L 52.82 412.00 L 57.76 412.00 L 62.71 412.00 L 67.65 412.00 L 72.59 412.00 L 77.53 412.00 L 82.47 412.00 L 87.41 412.00 L 92.35 412.00 L 97.29 412.00 L 102.24 412.00 L 107.18 412.00 L 112.12 412.00 L 117.06 412.00 L 122.00 412.00 L 126.94 412.00 L 131.88 412.00 L 136.82 412.00 L 141.76 412.00 L 146.71 412.00 L 151.65 412.00 L 156.59 412.00 L 161.53 412.00 L 166.47 412.00 L 171.41 412.00 L 176.35 412.00 L 181.29 412.00 L 186.24 412.00 L 191.18 412.00 L 196.12 412.00 L 201.06 412.00 L 206.00 412.00 L 210.94 412.00 L 215.88 412.00 L 220.82 412.00 L 225.76 412.00 L 230.71 412.00 L 235.65 412.00 L 240.59 412.00 L 245.53 412.00 L 250.47 399.01 L 255.41 380.00 L 260.35 407.36 L 265.29 412.00 L 270.24 412.00 L 275.18 412.00 L 280.12 412.00 L 285.06 412.00 L 290.00 412.00 L 290.00 412 L 38.00 412 Z" fill="#3572A5" opacity="0.18"/><path d="M 38.00 412.00 L 42.94 412.00 L 47.88 412.00 L 52.82 412.00 L 57.76 412.00 L 62.71 412.00 L 67.65 412.00 L 72.59 412.00 L 77.53 412.00 L 82.47 412.00 L 87.41 412.00 L 92.35 412.00 L 97.29 412.00 L 102.24 412.00 L 107.18 412.00 L 112.12 412.00 L 117.06 412.00 L 122.00 412.00 L 126.94 412.00 L 131.88 412.00 L 136.82 412.00 L 141.76 412.00 L 146.71 412.00 L 151.65 412.00 L 156.59 412.00 L 161.53 412.00 L 166.47 412.00 L 171.41 412.00 L 176.35 412.00 L 181.29 412.00 L 186.24 412.00 L 191.18 412.00 L 196.12 412.00 L 201.06 412.00 L 206.00 412.00 L 210.94 412.00 L 215.88 412.00 L 220.82 412.00 L 225.76 412.00 L 230.71 412.00 L 235.65 412.00 L 240.59 412.00 L 245.53 412.00 L 250.47 399.01 L 255.41 380.00 L 260.35 407.36 L 265.29 412.00 L 270.24 412.00 L 275.18 412.00 L 280.12 412.00 L 285.06 412.00 L 290.00 412.00" stroke="#3572A5" stroke-width="1.5" fill="none" stroke-linecap="round" stroke-linejoin="round"/><text class="muted" x="38" y="426" font-size="9">last 12 months · 107 commits</text>
  <rect class="panel" x="320" y="240" width="280" height="200" rx="8" ry="8"/><rect class="border" x="320.5" y="240.5" width="279" height="199" rx="8" ry="8" fill="none"/><text class="fg" x="334" y="266" font-size="14" font-weight="700">poker-cv</text><circle cx="526" cy="262" r="4" fill="#3572A5"/><text class="muted" x="536" y="266" font-size="10">Python</text><text class="accent" x="334" y="290" font-size="12" font-weight="600">Poker computer vision research</text><text class="muted" x="334" y="312" font-size="11">Pet-RnD project around CV use for online</text><text class="muted" x="334" y="326" font-size="11">poker platforms</text><path d="M 334.00 412.00 L 338.94 412.00 L 343.88 412.00 L 348.82 412.00 L 353.76 412.00 L 358.71 412.00 L 363.65 412.00 L 368.59 412.00 L 373.53 412.00 L 378.47 412.00 L 383.41 412.00 L 388.35 412.00 L 393.29 412.00 L 398.24 412.00 L 403.18 412.00 L 408.12 412.00 L 413.06 412.00 L 418.00 412.00 L 422.94 412.00 L 427.88 412.00 L 432.82 412.00 L 437.76 412.00 L 442.71 412.00 L 447.65 412.00 L 452.59 412.00 L 457.53 412.00 L 462.47 412.00 L 467.41 412.00 L 472.35 412.00 L 477.29 412.00 L 482.24 412.00 L 487.18 412.00 L 492.12 412.00 L 497.06 412.00 L 502.00 411.67 L 506.94 380.00 L 511.88 412.00 L 516.82 412.00 L 521.76 412.00 L 526.71 412.00 L 531.65 412.00 L 536.59 412.00 L 541.53 412.00 L 546.47 412.00 L 551.41 412.00 L 556.35 412.00 L 561.29 412.00 L 566.24 412.00 L 571.18 412.00 L 576.12 412.00 L 581.06 412.00 L 586.00 412.00 L 586.00 412 L 334.00 412 Z" fill="#3572A5" opacity="0.18"/><path d="M 334.00 412.00 L 338.94 412.00 L 343.88 412.00 L 348.82 412.00 L 353.76 412.00 L 358.71 412.00 L 363.65 412.00 L 368.59 412.00 L 373.53 412.00 L 378.47 412.00 L 383.41 412.00 L 388.35 412.00 L 393.29 412.00 L 398.24 412.00 L 403.18 412.00 L 408.12 412.00 L 413.06 412.00 L 418.00 412.00 L 422.94 412.00 L 427.88 412.00 L 432.82 412.00 L 437.76 412.00 L 442.71 412.00 L 447.65 412.00 L 452.59 412.00 L 457.53 412.00 L 462.47 412.00 L 467.41 412.00 L 472.35 412.00 L 477.29 412.00 L 482.24 412.00 L 487.18 412.00 L 492.12 412.00 L 497.06 412.00 L 502.00 411.67 L 506.94 380.00 L 511.88 412.00 L 516.82 412.00 L 521.76 412.00 L 526.71 412.00 L 531.65 412.00 L 536.59 412.00 L 541.53 412.00 L 546.47 412.00 L 551.41 412.00 L 556.35 412.00 L 561.29 412.00 L 566.24 412.00 L 571.18 412.00 L 576.12 412.00 L 581.06 412.00 L 586.00 412.00" stroke="#3572A5" stroke-width="1.5" fill="none" stroke-linecap="round" stroke-linejoin="round"/><text class="muted" x="334" y="426" font-size="9">last 12 months · 99 commits</text>
  <rect class="panel" x="616" y="240" width="280" height="200" rx="8" ry="8"/><rect class="border" x="616.5" y="240.5" width="279" height="199" rx="8" ry="8" fill="none"/><text class="fg" x="630" y="266" font-size="14" font-weight="700">intag2</text><circle cx="822" cy="262" r="4" fill="#f34b7d"/><text class="muted" x="832" y="266" font-size="10">C++</text><text class="accent" x="630" y="290" font-size="12" font-weight="600">Windows Explorer file-tagging utility</text><text class="muted" x="630" y="312" font-size="11">Assign tags to files and folders in</text><text class="muted" x="630" y="326" font-size="11">explorer: much wanted and missed feature of</text><text class="muted" x="630" y="340" font-size="11">MS Windows Explorer... With style!</text><path d="M 630.00 412.00 L 634.94 412.00 L 639.88 412.00 L 644.82 412.00 L 649.76 412.00 L 654.71 412.00 L 659.65 412.00 L 664.59 412.00 L 669.53 412.00 L 674.47 412.00 L 679.41 412.00 L 684.35 412.00 L 689.29 412.00 L 694.24 412.00 L 699.18 412.00 L 704.12 412.00 L 709.06 412.00 L 714.00 412.00 L 718.94 412.00 L 723.88 412.00 L 728.82 412.00 L 733.76 412.00 L 738.71 412.00 L 743.65 412.00 L 748.59 412.00 L 753.53 412.00 L 758.47 412.00 L 763.41 412.00 L 768.35 412.00 L 773.29 412.00 L 778.24 412.00 L 783.18 412.00 L 788.12 412.00 L 793.06 412.00 L 798.00 412.00 L 802.94 401.33 L 807.88 412.00 L 812.82 409.71 L 817.76 403.62 L 822.71 409.71 L 827.65 380.00 L 832.59 411.24 L 837.53 412.00 L 842.47 412.00 L 847.41 412.00 L 852.35 412.00 L 857.29 412.00 L 862.24 412.00 L 867.18 410.48 L 872.12 412.00 L 877.06 412.00 L 882.00 412.00 L 882.00 412 L 630.00 412 Z" fill="#f34b7d" opacity="0.18"/><path d="M 630.00 412.00 L 634.94 412.00 L 639.88 412.00 L 644.82 412.00 L 649.76 412.00 L 654.71 412.00 L 659.65 412.00 L 664.59 412.00 L 669.53 412.00 L 674.47 412.00 L 679.41 412.00 L 684.35 412.00 L 689.29 412.00 L 694.24 412.00 L 699.18 412.00 L 704.12 412.00 L 709.06 412.00 L 714.00 412.00 L 718.94 412.00 L 723.88 412.00 L 728.82 412.00 L 733.76 412.00 L 738.71 412.00 L 743.65 412.00 L 748.59 412.00 L 753.53 412.00 L 758.47 412.00 L 763.41 412.00 L 768.35 412.00 L 773.29 412.00 L 778.24 412.00 L 783.18 412.00 L 788.12 412.00 L 793.06 412.00 L 798.00 412.00 L 802.94 401.33 L 807.88 412.00 L 812.82 409.71 L 817.76 403.62 L 822.71 409.71 L 827.65 380.00 L 832.59 411.24 L 837.53 412.00 L 842.47 412.00 L 847.41 412.00 L 852.35 412.00 L 857.29 412.00 L 862.24 412.00 L 867.18 410.48 L 872.12 412.00 L 877.06 412.00 L 882.00 412.00" stroke="#f34b7d" stroke-width="1.5" fill="none" stroke-linecap="round" stroke-linejoin="round"/><text class="muted" x="630" y="426" font-size="9">last 12 months · 76 commits</text>
  <rect class="panel" x="24" y="456" width="280" height="200" rx="8" ry="8"/><rect class="border" x="24.5" y="456.5" width="279" height="199" rx="8" ry="8" fill="none"/><text class="fg" x="38" y="482" font-size="14" font-weight="700">ozwil-android</text><circle cx="230" cy="478" r="4" fill="#A97BFF"/><text class="muted" x="240" y="482" font-size="10">Kotlin</text><text class="accent" x="38" y="506" font-size="12" font-weight="600">Android LLM assistant development</text><text class="muted" x="38" y="528" font-size="11">LLM with phone use capabilities in your</text><text class="muted" x="38" y="542" font-size="11">pocket!</text><path d="M 38.00 628.00 L 42.94 628.00 L 47.88 628.00 L 52.82 628.00 L 57.76 628.00 L 62.71 628.00 L 67.65 628.00 L 72.59 628.00 L 77.53 628.00 L 82.47 628.00 L 87.41 628.00 L 92.35 628.00 L 97.29 628.00 L 102.24 628.00 L 107.18 628.00 L 112.12 628.00 L 117.06 628.00 L 122.00 628.00 L 126.94 628.00 L 131.88 628.00 L 136.82 628.00 L 141.76 628.00 L 146.71 628.00 L 151.65 628.00 L 156.59 628.00 L 161.53 628.00 L 166.47 628.00 L 171.41 628.00 L 176.35 628.00 L 181.29 628.00 L 186.24 628.00 L 191.18 628.00 L 196.12 628.00 L 201.06 628.00 L 206.00 628.00 L 210.94 628.00 L 215.88 628.00 L 220.82 628.00 L 225.76 628.00 L 230.71 628.00 L 235.65 628.00 L 240.59 622.40 L 245.53 596.00 L 250.47 628.00 L 255.41 628.00 L 260.35 628.00 L 265.29 628.00 L 270.24 628.00 L 275.18 628.00 L 280.12 628.00 L 285.06 628.00 L 290.00 628.00 L 290.00 628 L 38.00 628 Z" fill="#A97BFF" opacity="0.18"/><path d="M 38.00 628.00 L 42.94 628.00 L 47.88 628.00 L 52.82 628.00 L 57.76 628.00 L 62.71 628.00 L 67.65 628.00 L 72.59 628.00 L 77.53 628.00 L 82.47 628.00 L 87.41 628.00 L 92.35 628.00 L 97.29 628.00 L 102.24 628.00 L 107.18 628.00 L 112.12 628.00 L 117.06 628.00 L 122.00 628.00 L 126.94 628.00 L 131.88 628.00 L 136.82 628.00 L 141.76 628.00 L 146.71 628.00 L 151.65 628.00 L 156.59 628.00 L 161.53 628.00 L 166.47 628.00 L 171.41 628.00 L 176.35 628.00 L 181.29 628.00 L 186.24 628.00 L 191.18 628.00 L 196.12 628.00 L 201.06 628.00 L 206.00 628.00 L 210.94 628.00 L 215.88 628.00 L 220.82 628.00 L 225.76 628.00 L 230.71 628.00 L 235.65 628.00 L 240.59 622.40 L 245.53 596.00 L 250.47 628.00 L 255.41 628.00 L 260.35 628.00 L 265.29 628.00 L 270.24 628.00 L 275.18 628.00 L 280.12 628.00 L 285.06 628.00 L 290.00 628.00" stroke="#A97BFF" stroke-width="1.5" fill="none" stroke-linecap="round" stroke-linejoin="round"/><text class="muted" x="38" y="642" font-size="9">last 12 months · 47 commits</text>
  <rect class="panel" x="320" y="456" width="280" height="200" rx="8" ry="8"/><rect class="border" x="320.5" y="456.5" width="279" height="199" rx="8" ry="8" fill="none"/><text class="fg" x="334" y="482" font-size="14" font-weight="700">freqtrade_startegies</text><circle cx="526" cy="478" r="4" fill="#3572A5"/><text class="muted" x="536" y="482" font-size="10">Python</text><text class="accent" x="334" y="506" font-size="12" font-weight="600">Trading strategy development</text><text class="muted" x="334" y="528" font-size="11">Developed and optimized numerous</text><text class="muted" x="334" y="542" font-size="11">algorithmic trading strategies.</text><path d="M 334.00 624.44 L 338.94 599.56 L 343.88 596.00 L 348.82 610.22 L 353.76 628.00 L 358.71 628.00 L 363.65 628.00 L 368.59 628.00 L 373.53 628.00 L 378.47 628.00 L 383.41 628.00 L 388.35 628.00 L 393.29 628.00 L 398.24 628.00 L 403.18 628.00 L 408.12 628.00 L 413.06 628.00 L 418.00 628.00 L 422.94 628.00 L 427.88 628.00 L 432.82 628.00 L 437.76 628.00 L 442.71 628.00 L 447.65 628.00 L 452.59 628.00 L 457.53 628.00 L 462.47 628.00 L 467.41 628.00 L 472.35 628.00 L 477.29 628.00 L 482.24 628.00 L 487.18 628.00 L 492.12 628.00 L 497.06 628.00 L 502.00 628.00 L 506.94 628.00 L 511.88 628.00 L 516.82 628.00 L 521.76 628.00 L 526.71 628.00 L 531.65 628.00 L 536.59 628.00 L 541.53 628.00 L 546.47 628.00 L 551.41 628.00 L 556.35 628.00 L 561.29 628.00 L 566.24 628.00 L 571.18 628.00 L 576.12 628.00 L 581.06 628.00 L 586.00 628.00 L 586.00 628 L 334.00 628 Z" fill="#3572A5" opacity="0.18"/><path d="M 334.00 624.44 L 338.94 599.56 L 343.88 596.00 L 348.82 610.22 L 353.76 628.00 L 358.71 628.00 L 363.65 628.00 L 368.59 628.00 L 373.53 628.00 L 378.47 628.00 L 383.41 628.00 L 388.35 628.00 L 393.29 628.00 L 398.24 628.00 L 403.18 628.00 L 408.12 628.00 L 413.06 628.00 L 418.00 628.00 L 422.94 628.00 L 427.88 628.00 L 432.82 628.00 L 437.76 628.00 L 442.71 628.00 L 447.65 628.00 L 452.59 628.00 L 457.53 628.00 L 462.47 628.00 L 467.41 628.00 L 472.35 628.00 L 477.29 628.00 L 482.24 628.00 L 487.18 628.00 L 492.12 628.00 L 497.06 628.00 L 502.00 628.00 L 506.94 628.00 L 511.88 628.00 L 516.82 628.00 L 521.76 628.00 L 526.71 628.00 L 531.65 628.00 L 536.59 628.00 L 541.53 628.00 L 546.47 628.00 L 551.41 628.00 L 556.35 628.00 L 561.29 628.00 L 566.24 628.00 L 571.18 628.00 L 576.12 628.00 L 581.06 628.00 L 586.00 628.00" stroke="#3572A5" stroke-width="1.5" fill="none" stroke-linecap="round" stroke-linejoin="round"/><text class="muted" x="334" y="642" font-size="9">last 12 months · 23 commits</text>
  <rect class="panel" x="616" y="456" width="280" height="200" rx="8" ry="8"/><rect class="border" x="616.5" y="456.5" width="279" height="199" rx="8" ry="8" fill="none"/><text class="fg" x="630" y="482" font-size="14" font-weight="700">auto-claude</text><circle cx="822" cy="478" r="4" fill="#3178c6"/><text class="muted" x="832" y="482" font-size="10">TypeScript</text><text class="accent" x="630" y="506" font-size="12" font-weight="600">Autonomous AI coding tool</text><text class="muted" x="630" y="528" font-size="11">Autonomous multi-session AI coding</text><path d="M 630.00 628.00 L 634.94 628.00 L 639.88 628.00 L 644.82 628.00 L 649.76 628.00 L 654.71 628.00 L 659.65 628.00 L 664.59 628.00 L 669.53 628.00 L 674.47 628.00 L 679.41 628.00 L 684.35 628.00 L 689.29 628.00 L 694.24 628.00 L 699.18 628.00 L 704.12 628.00 L 709.06 628.00 L 714.00 628.00 L 718.94 628.00 L 723.88 628.00 L 728.82 628.00 L 733.76 628.00 L 738.71 628.00 L 743.65 628.00 L 748.59 628.00 L 753.53 628.00 L 758.47 628.00 L 763.41 628.00 L 768.35 628.00 L 773.29 628.00 L 778.24 628.00 L 783.18 596.00 L 788.12 625.41 L 793.06 628.00 L 798.00 628.00 L 802.94 628.00 L 807.88 628.00 L 812.82 628.00 L 817.76 628.00 L 822.71 628.00 L 827.65 628.00 L 832.59 628.00 L 837.53 628.00 L 842.47 628.00 L 847.41 628.00 L 852.35 628.00 L 857.29 628.00 L 862.24 628.00 L 867.18 628.00 L 872.12 628.00 L 877.06 628.00 L 882.00 628.00 L 882.00 628 L 630.00 628 Z" fill="#3178c6" opacity="0.18"/><path d="M 630.00 628.00 L 634.94 628.00 L 639.88 628.00 L 644.82 628.00 L 649.76 628.00 L 654.71 628.00 L 659.65 628.00 L 664.59 628.00 L 669.53 628.00 L 674.47 628.00 L 679.41 628.00 L 684.35 628.00 L 689.29 628.00 L 694.24 628.00 L 699.18 628.00 L 704.12 628.00 L 709.06 628.00 L 714.00 628.00 L 718.94 628.00 L 723.88 628.00 L 728.82 628.00 L 733.76 628.00 L 738.71 628.00 L 743.65 628.00 L 748.59 628.00 L 753.53 628.00 L 758.47 628.00 L 763.41 628.00 L 768.35 628.00 L 773.29 628.00 L 778.24 628.00 L 783.18 596.00 L 788.12 625.41 L 793.06 628.00 L 798.00 628.00 L 802.94 628.00 L 807.88 628.00 L 812.82 628.00 L 817.76 628.00 L 822.71 628.00 L 827.65 628.00 L 832.59 628.00 L 837.53 628.00 L 842.47 628.00 L 847.41 628.00 L 852.35 628.00 L 857.29 628.00 L 862.24 628.00 L 867.18 628.00 L 872.12 628.00 L 877.06 628.00 L 882.00 628.00" stroke="#3178c6" stroke-width="1.5" fill="none" stroke-linecap="round" stroke-linejoin="round"/><text class="muted" x="630" y="642" font-size="9">last 12 months · 40 commits</text>
</svg>