<svg xmlns="http://www.w3.org/2000/svg" viewBox="0 0 920 680" width="920" height="680" role="img" aria-label="Jamminroot project cards">
  <style>
  text { font-family: -apple-system, BlinkMacSystemFont, "Segoe UI", Roboto, "Helvetica Neue", sans-serif; }
  .bg { fill: #ffffff; }
  .panel { fill: #f6f8fa; }
  .border { stroke: #d0d7de; }
  .fg { fill: #1f2328; }
  .muted { fill: #656d76; }
  .accent { fill: #0969da; }
  .accent2 { fill: #1f883d; }
  .work { fill: #6b21a8; }
  @media (prefers-color-scheme: dark) {
    .bg { fill: #0d1117; }
    .panel { fill: #161b22; }
    .border { stroke: #30363d; }
    .fg { fill: #e6edf3; }
    .muted { fill: #7d8590; }
    .accent { fill: #58a6ff; }
    .accent2 { fill: #3fb950; }
    .work { fill: #a855f7; }
  }
</style>
  <rect class="bg" x="0" y="0" width="920" height="680" rx="8" ry="8"/>
  <rect class="panel" x="24" y="24" width="280" height="200" rx="8" ry="8"/><rect class="border" x="24.5" y="24.5" width="279" height="199" rx="8" ry="8" fill="none"/><text class="fg" x="38" y="50" font-size="14" font-weight="700">summit</text><circle cx="230" cy="46" r="4" fill="#178600"/><text class="muted" x="240" y="50" font-size="10">C#</text><text class="accent" x="38" y="74" font-size="12" font-weight="600">SaaS crypto trading platform</text><text class="muted" x="38" y="96" font-size="11">Iterated on the trading platform&#39;s</text><text class="muted" x="38" y="110" font-size="11">infrastructure, billing model, and user</text><text class="muted" x="38" y="124" font-size="11">onboarding flows.</text><rect class="panel" x="38.00" y="202" width="19.17" height="4" rx="1" ry="1"/><rect class="panel" x="59.17" y="202" width="19.17" height="4" rx="1" ry="1"/><rect class="panel" x="80.33" y="202" width="19.17" height="4" rx="1" ry="1"/><rect class="panel" x="101.50" y="202" width="19.17" height="4" rx="1" ry="1"/><rect class="panel" x="122.67" y="202" width="19.17" height="4" rx="1" ry="1"/><rect class="panel" x="143.83" y="202" width="19.17" height="4" rx="1" ry="1"/><rect class="panel" x="165.00" y="202" width="19.17" height="4" rx="1" ry="1"/><rect class="panel" x="186.17" y="202" width="19.17" height="4" rx="1" ry="1"/><rect class="panel" x="207.33" y="202" width="19.17" height="4" rx="1" ry="1"/><rect class="panel" x="228.50" y="202" width="19.17" height="4" rx="1" ry="1"/><rect x="249.67" y="178.00" width="19.17" height="28.00" rx="1" ry="1" fill="#178600" opacity="1.00"/><rect class="panel" x="270.83" y="202" width="19.17" height="4" rx="1" ry="1"/><text class="muted" x="38" y="220" font-size="9">last 12 months · 35 commits</text>
  <rect class="panel" x="320" y="24" width="280" height="200" rx="8" ry="8"/><rect class="border" x="320.5" y="24.5" width="279" height="199" rx="8" ry="8" fill="none"/><text class="fg" x="334" y="50" font-size="14" font-weight="700">j-uni-hid</text><circle cx="526" cy="46" r="4" fill="#f34b7d"/><text class="muted" x="536" y="50" font-size="10">C++</text><text class="accent" x="334" y="74" font-size="12" font-weight="600">ESP32-S3 HID firmware</text><text class="muted" x="334" y="96" font-size="11">Developed a new firmware variant for the</text><text class="muted" x="334" y="110" font-size="11">mouse and keyboard emulation device.</text><rect class="panel" x="334.00" y="202" width="19.17" height="4" rx="1" ry="1"/><rect class="panel" x="355.17" y="202" width="19.17" height="4" rx="1" ry="1"/><rect class="panel" x="376.33" y="202" width="19.17" height="4" rx="1" ry="1"/><rect class="panel" x="397.50" y="202" width="19.17" height="4" rx="1" ry="1"/><rect class="panel" x="418.67" y="202" width="19.17" height="4" rx="1" ry="1"/><rect class="panel" x="439.83" y="202" width="19.17" height="4" rx="1" ry="1"/><rect x="461.00" y="178.00" width="19.17" height="28.00" rx="1" ry="1" fill="#f34b7d" opacity="1.00"/><rect x="482.17" y="201.64" width="19.17" height="4.36" rx="1" ry="1" fill="#f34b7d" opacity="0.56"/><rect class="panel" x="503.33" y="202" width="19.17" height="4" rx="1" ry="1"/><rect x="524.50" y="201.64" width="19.17" height="4.36" rx="1" ry="1" fill="#f34b7d" opacity="0.56"/><rect x="545.67" y="201.27" width="19.17" height="4.73" rx="1" ry="1" fill="#f34b7d" opacity="0.56"/><rect class="panel" x="566.83" y="202" width="19.17" height="4" rx="1" ry="1"/><text class="muted" x="334" y="220" font-size="9">last 12 months · 70 commits</text>
  <rect class="panel" x="616" y="24" width="280" height="200" rx="8" ry="8"/><rect class="border" x="616.5" y="24.5" width="279" height="199" rx="8" ry="8" fill="none"/><text class="fg" x="630" y="50" font-size="14" font-weight="700">input-driver</text><circle cx="822" cy="46" r="4" fill="#555555"/><text class="muted" x="832" y="50" font-size="10">C</text><text class="accent" x="630" y="74" font-size="12" font-weight="600">Windows input filter driver</text><text class="muted" x="630" y="96" font-size="11">Built and tested a kernel-level input</text><text class="muted" x="630" y="110" font-size="11">filtering and injection driver for Windows.</text><rect class="panel" x="630.00" y="202" width="19.17" height="4" rx="1" ry="1"/><rect class="panel" x="651.17" y="202" width="19.17" height="4" rx="1" ry="1"/><rect class="panel" x="672.33" y="202" width="19.17" height="4" rx="1" ry="1"/><rect class="panel" x="693.50" y="202" width="19.17" height="4" rx="1" ry="1"/><rect class="panel" x="714.67" y="202" width="19.17" height="4" rx="1" ry="1"/><rect class="panel" x="735.83" y="202" width="19.17" height="4" rx="1" ry="1"/><rect class="panel" x="757.00" y="202" width="19.17" height="4" rx="1" ry="1"/><rect class="panel" x="778.17" y="202" width="19.17" height="4" rx="1" ry="1"/><rect class="panel" x="799.33" y="202" width="19.17" height="4" rx="1" ry="1"/><rect class="panel" x="820.50" y="202" width="19.17" height="4" rx="1" ry="1"/><rect class="panel" x="841.67" y="202" width="19.17" height="4" rx="1" ry="1"/><rect x="862.83" y="178.00" width="19.17" height="28.00" rx="1" ry="1" fill="#555555" opacity="1.00"/><text class="muted" x="630" y="220" font-size="9">last 12 months · 8 commits</text>
  <rect class="panel" x="24" y="240" width="280" height="200" rx="8" ry="8"/><rect class="border" x="24.5" y="240.5" width="279" height="199" rx="8" ry="8" fill="none"/><text class="fg" x="38" y="266" font-size="14" font-weight="700">freqtrade_strats</text><circle cx="230" cy="262" r="4" fill="#3572A5"/><text class="muted" x="240" y="266" font-size="10">Python</text><text class="accent" x="38" y="290" font-size="12" font-weight="600">Trading strategy optimization</text><text class="muted" x="38" y="312" font-size="11">Optimized and backtested algorithmic</text><text class="muted" x="38" y="326" font-size="11">trading strategies for the Freqtrade</text><text class="muted" x="38" y="340" font-size="11">platform.</text><rect class="panel" x="38.00" y="418" width="19.17" height="4" rx="1" ry="1"/><rect class="panel" x="59.17" y="418" width="19.17" height="4" rx="1" ry="1"/><rect class="panel" x="80.33" y="418" width="19.17" height="4" rx="1" ry="1"/><rect class="panel" x="101.50" y="418" width="19.17" height="4" rx="1" ry="1"/><rect class="panel" x="122.67" y="418" width="19.17" height="4" rx="1" ry="1"/><rect class="panel" x="143.83" y="418" width="19.17" height="4" rx="1" ry="1"/><rect class="panel" x="165.00" y="418" width="19.17" height="4" rx="1" ry="1"/><rect class="panel" x="186.17" y="418" width="19.17" height="4" rx="1" ry="1"/><rect class="panel" x="207.33" y="418" width="19.17" height="4" rx="1" ry="1"/><rect class="panel" x="228.50" y="418" width="19.17" height="4" rx="1" ry="1"/><rect class="panel" x="249.67" y="418" width="19.17" height="4" rx="1" ry="1"/><rect class="panel" x="270.83" y="418" width="19.17" height="4" rx="1" ry="1"/><text class="muted" x="38" y="436" font-size="9">last 12 months · 0 commits</text>
  <rect class="panel" x="320" y="240" width="280" height="200" rx="8" ry="8"/><rect class="border" x="320.5" y="240.5" width="279" height="199" rx="8" ry="8" fill="none"/><text class="fg" x="334" y="266" font-size="14" font-weight="700">crypto-model-research</text><circle cx="526" cy="262" r="4" fill="#3572A5"/><text class="muted" x="536" y="266" font-size="10">Python</text><text class="accent" x="334" y="290" font-size="12" font-weight="600">Crypto price prediction research</text><text class="muted" x="334" y="312" font-size="11">Conducted machine learning experiments on a</text><text class="muted" x="334" y="326" font-size="11">crypto price prediction model.</text><rect class="panel" x="334.00" y="418" width="19.17" height="4" rx="1" ry="1"/><rect class="panel" x="355.17" y="418" width="19.17" height="4" rx="1" ry="1"/><rect class="panel" x="376.33" y="418" width="19.17" height="4" rx="1" ry="1"/><rect class="panel" x="397.50" y="418" width="19.17" height="4" rx="1" ry="1"/><rect class="panel" x="418.67" y="418" width="19.17" height="4" rx="1" ry="1"/><rect class="panel" x="439.83" y="418" width="19.17" height="4" rx="1" ry="1"/><rect class="panel" x="461.00" y="418" width="19.17" height="4" rx="1" ry="1"/><rect class="panel" x="482.17" y="418" width="19.17" height="4" rx="1" ry="1"/><rect class="panel" x="503.33" y="418" width="19.17" height="4" rx="1" ry="1"/><rect x="524.50" y="394.00" width="19.17" height="28.00" rx="1" ry="1" fill="#3572A5" opacity="1.00"/><rect class="panel" x="545.67" y="418" width="19.17" height="4" rx="1" ry="1"/><rect class="panel" x="566.83" y="418" width="19.17" height="4" rx="1" ry="1"/><text class="muted" x="334" y="436" font-size="9">last 12 months · 107 commits</text>
  <rect class="panel" x="616" y="240" width="280" height="200" rx="8" ry="8"/><rect class="border" x="616.5" y="240.5" width="279" height="199" rx="8" ry="8" fill="none"/><text class="fg" x="630" y="266" font-size="14" font-weight="700">poker-cv</text><circle cx="822" cy="262" r="4" fill="#3572A5"/><text class="muted" x="832" y="266" font-size="10">Python</text><text class="accent" x="630" y="290" font-size="12" font-weight="600">Poker CV analysis tool</text><text class="muted" x="630" y="312" font-size="11">Developed a computer vision pipeline for</text><text class="muted" x="630" y="326" font-size="11">analyzing online poker games.</text><rect class="panel" x="630.00" y="418" width="19.17" height="4" rx="1" ry="1"/><rect class="panel" x="651.17" y="418" width="19.17" height="4" rx="1" ry="1"/><rect class="panel" x="672.33" y="418" width="19.17" height="4" rx="1" ry="1"/><rect class="panel" x="693.50" y="418" width="19.17" height="4" rx="1" ry="1"/><rect class="panel" x="714.67" y="418" width="19.17" height="4" rx="1" ry="1"/><rect class="panel" x="735.83" y="418" width="19.17" height="4" rx="1" ry="1"/><rect class="panel" x="757.00" y="418" width="19.17" height="4" rx="1" ry="1"/><rect x="778.17" y="394.00" width="19.17" height="28.00" rx="1" ry="1" fill="#3572A5" opacity="1.00"/><rect class="panel" x="799.33" y="418" width="19.17" height="4" rx="1" ry="1"/><rect class="panel" x="820.50" y="418" width="19.17" height="4" rx="1" ry="1"/><rect class="panel" x="841.67" y="418" width="19.17" height="4" rx="1" ry="1"/><rect class="panel" x="862.83" y="418" width="19.17" height="4" rx="1" ry="1"/><text class="muted" x="630" y="436" font-size="9">last 12 months · 99 commits</text>
  <rect class="panel" x="24" y="456" width="280" height="200" rx="8" ry="8"/><rect class="border" x="24.5" y="456.5" width="279" height="199" rx="8" ry="8" fill="none"/><text class="fg" x="38" y="482" font-size="14" font-weight="700">CryptoSignalerBot</text><circle cx="230" cy="478" r="4" fill="#3572A5"/><text class="muted" x="240" y="482" font-size="10">Python</text><text class="accent" x="38" y="506" font-size="12" font-weight="600">Crypto trading signal bot</text><text class="muted" x="38" y="528" font-size="11">Built a Telegram bot for generating and</text><text class="muted" x="38" y="542" font-size="11">sharing crypto trading signals.</text><rect class="panel" x="38.00" y="634" width="19.17" height="4" rx="1" ry="1"/><rect class="panel" x="59.17" y="634" width="19.17" height="4" rx="1" ry="1"/><rect class="panel" x="80.33" y="634" width="19.17" height="4" rx="1" ry="1"/><rect class="panel" x="101.50" y="634" width="19.17" height="4" rx="1" ry="1"/><rect class="panel" x="122.67" y="634" width="19.17" height="4" rx="1" ry="1"/><rect class="panel" x="143.83" y="634" width="19.17" height="4" rx="1" ry="1"/><rect class="panel" x="165.00" y="634" width="19.17" height="4" rx="1" ry="1"/><rect class="panel" x="186.17" y="634" width="19.17" height="4" rx="1" ry="1"/><rect class="panel" x="207.33" y="634" width="19.17" height="4" rx="1" ry="1"/><rect class="panel" x="228.50" y="634" width="19.17" height="4" rx="1" ry="1"/><rect class="panel" x="249.67" y="634" width="19.17" height="4" rx="1" ry="1"/><rect class="panel" x="270.83" y="634" width="19.17" height="4" rx="1" ry="1"/><text class="muted" x="38" y="652" font-size="9">last 12 months · 0 commits</text>
  <rect class="panel" x="320" y="456" width="280" height="200" rx="8" ry="8"/><rect class="border" x="320.5" y="456.5" width="279" height="199" rx="8" ry="8" fill="none"/><text class="fg" x="334" y="482" font-size="14" font-weight="700">intag2</text><circle cx="526" cy="478" r="4" fill="#f34b7d"/><text class="muted" x="536" y="482" font-size="10">C++</text><text class="accent" x="334" y="506" font-size="12" font-weight="600">Windows Explorer tagging utility</text><text class="muted" x="334" y="528" font-size="11">Polished the file and folder tagging</text><text class="muted" x="334" y="542" font-size="11">utility for Windows Explorer.</text><rect class="panel" x="334.00" y="634" width="19.17" height="4" rx="1" ry="1"/><rect class="panel" x="355.17" y="634" width="19.17" height="4" rx="1" ry="1"/><rect class="panel" x="376.33" y="634" width="19.17" height="4" rx="1" ry="1"/><rect class="panel" x="397.50" y="634" width="19.17" height="4" rx="1" ry="1"/><rect class="panel" x="418.67" y="634" width="19.17" height="4" rx="1" ry="1"/><rect class="panel" x="439.83" y="634" width="19.17" height="4" rx="1" ry="1"/><rect class="panel" x="461.00" y="634" width="19.17" height="4" rx="1" ry="1"/><rect x="482.17" y="628.40" width="19.17" height="9.60" rx="1" ry="1" fill="#f34b7d" opacity="0.66"/><rect x="503.33" y="610.00" width="19.17" height="28.00" rx="1" ry="1" fill="#f34b7d" opacity="1.00"/><rect class="panel" x="524.50" y="634" width="19.17" height="4" rx="1" ry="1"/><rect x="545.67" y="633.20" width="19.17" height="4.80" rx="1" ry="1" fill="#f34b7d" opacity="0.57"/><rect class="panel" x="566.83" y="634" width="19.17" height="4" rx="1" ry="1"/><text class="muted" x="334" y="652" font-size="9">last 12 months · 76 commits</text>
  <rect class="panel" x="616" y="456" width="280" height="200" rx="8" ry="8"/><rect class="border" x="616.5" y="456.5" width="279" height="199" rx="8" ry="8" fill="none"/><text class="fg" x="630" y="482" font-size="14" font-weight="700">ozwil-android</text><circle cx="822" cy="478" r="4" fill="#A97BFF"/><text class="muted" x="832" y="482" font-size="10">Kotlin</text><text class="accent" x="630" y="506" font-size="12" font-weight="600">On-device LLM assistant</text><text class="muted" x="630" y="528" font-size="11">Built an Android chat assistant with local</text><text class="muted" x="630" y="542" font-size="11">LLM capabilities and tool use.</text><rect class="panel" x="630.00" y="634" width="19.17" height="4" rx="1" ry="1"/><rect class="panel" x="651.17" y="634" width="19.17" height="4" rx="1" ry="1"/><rect class="panel" x="672.33" y="634" width="19.17" height="4" rx="1" ry="1"/><rect class="panel" x="693.50" y="634" width="19.17" height="4" rx="1" ry="1"/><rect class="panel" x="714.67" y="634" width="19.17" height="4" rx="1" ry="1"/><rect class="panel" x="735.83" y="634" width="19.17" height="4" rx="1" ry="1"/><rect class="panel" x="757.00" y="634" width="19.17" height="4" rx="1" ry="1"/><rect class="panel" x="778.17" y="634" width="19.17" height="4" rx="1" ry="1"/><rect class="panel" x="799.33" y="634" width="19.17" height="4" rx="1" ry="1"/><rect x="820.50" y="610.00" width="19.17" height="28.00" rx="1" ry="1" fill="#A97BFF" opacity="1.00"/><rect class="panel" x="841.67" y="634" width="19.17" height="4" rx="1" ry="1"/><rect class="panel" x="862.83" y="634" width="19.17" height="4" rx="1" ry="1"/><text class="muted" x="630" y="652" font-size="9">last 12 months · 47 commits</text>
</svg>